<svg xmlns="http://www.w3.org/2000/svg" viewBox="0 0 12.62 12.5"><defs><style>.cls-1{fill:none;stroke:#009ee1;stroke-miterlimit:10;stroke-width:0.5px;}</style></defs><title>calendar</title><g id="Layer_2" data-name="Layer 2"><g id="Layer_1-2" data-name="Layer 1"><path class="cls-1" d="M10.18,1.43h2a.23.23,0,0,1,.24.23V12a.23.23,0,0,1-.24.23H.48A.23.23,0,0,1,.25,12V1.66a.23.23,0,0,1,.23-.23h2"/><line class="cls-1" x1="0.25" y1="4.76" x2="12.37" y2="4.76"/><path class="cls-1" d="M4.38,2.33a.18.18,0,0,1-.2.16H2.88c-.12,0-.21-.07-.21-.16V.41c0-.09.09-.16.21-.16h1.3a.18.18,0,0,1,.2.16Z"/><path class="cls-1" d="M10,2.33c0,.09-.09.16-.21.16H8.44c-.11,0-.21-.07-.21-.16V.41c0-.09.1-.16.21-.16h1.3c.12,0,.21.07.21.16Z"/><line class="cls-1" x1="4.62" y1="1.43" x2="8.01" y2="1.43"/></g></g></svg>