<?xml version="1.0" encoding="utf-8"?>
<!-- Generator: Adobe Illustrator 22.0.1, SVG Export Plug-In . SVG Version: 6.00 Build 0)  -->
<svg version="1.1" id="Layer_1" xmlns="http://www.w3.org/2000/svg" xmlns:xlink="http://www.w3.org/1999/xlink" x="0px" y="0px"
	 viewBox="0 0 24 24" style="enable-background:new 0 0 24 24;" xml:space="preserve">
<style type="text/css">
	.st0{fill:#76B947;}
</style>
<path class="st0" d="M12,2c5.5,0,10,4.5,10,10s-4.5,10-10,10S2,17.5,2,12S6.5,2,12,2z M12,0C5.4,0,0,5.4,0,12s5.4,12,12,12
	s12-5.4,12-12S18.6,0,12,0z M17.5,13.9c-1.5,1.2-3.2,1.9-5.5,1.9c-2.3,0-4-0.7-5.5-1.9L6,14.4c1.1,1.7,3.2,3.6,6,3.6
	c2.8,0,4.9-1.8,6-3.6L17.5,13.9z M18,10l-0.8,0.5c0,0-0.5-0.9-1.7-0.9c-1.2,0-1.7,0.9-1.7,0.9L13,10c0.3-0.7,1.2-2,2.5-2
	C16.8,8,17.7,9.3,18,10z M11,10l-0.8,0.5c0,0-0.5-0.9-1.7-0.9c-1.2,0-1.7,0.9-1.7,0.9L6,10c0.3-0.7,1.2-2,2.5-2
	C9.8,8,10.7,9.3,11,10z"/>
</svg>
