<svg xmlns="http://www.w3.org/2000/svg" viewBox="0 0 21.16 23"><defs><style>.cls-1{fill:#009ee1;}</style></defs><title>HouseAmenities</title><g id="Layer_2" data-name="Layer 2"><g id="Layer_1-2" data-name="Layer 1"><path class="cls-1" d="M20.71,9H19.16L16.59,4.72a.44.44,0,0,0-.38-.22H13.5v-4A.45.45,0,0,0,13.05,0H9a.45.45,0,0,0-.45.45V4.5H5.4A.43.43,0,0,0,5,4.72L2.45,9h-2A.45.45,0,0,0,0,9.45v3.6a.45.45,0,0,0,.45.45H20.71a.45.45,0,0,0,.45-.45V9.45A.45.45,0,0,0,20.71,9ZM9.45.9H12.6V4.5H9.45ZM5.66,5.4H16L18.11,9H3.5Zm14.6,7.2H.9V9.9H20.26Z"/><path class="cls-1" d="M17.56,10.35h-.45a.45.45,0,0,0-.45.45v.45a.45.45,0,0,0,.45.45h.45a.45.45,0,0,0,.45-.45V10.8a.45.45,0,0,0-.45-.45Z"/><path class="cls-1" d="M15.76,10.35H15.3a.45.45,0,0,0-.44.45v.45a.45.45,0,0,0,.44.45h.46a.45.45,0,0,0,.45-.45V10.8a.45.45,0,0,0-.45-.45Z"/><path class="cls-1" d="M14,10.35H13.5a.45.45,0,0,0-.45.45v.45a.45.45,0,0,0,.45.45H14a.45.45,0,0,0,.45-.45V10.8a.45.45,0,0,0-.45-.45Z"/><path class="cls-1" d="M8.71,14.45A2.78,2.78,0,0,0,7.36,16a3.72,3.72,0,0,0,.37,2.92c1.21,2.41,0,3.23,0,3.26a.44.44,0,0,0-.14.62A.43.43,0,0,0,8,23a.44.44,0,0,0,.24-.07c.08-.05,1.91-1.25.32-4.42A2.93,2.93,0,0,1,8.2,16.3a2,2,0,0,1,.89-1,.45.45,0,0,0-.38-.81Z"/><path class="cls-1" d="M11,14.45A2.78,2.78,0,0,0,9.61,16,3.72,3.72,0,0,0,10,18.91c1.21,2.41,0,3.23,0,3.26a.44.44,0,0,0-.14.62.43.43,0,0,0,.38.21.44.44,0,0,0,.24-.07c.08-.05,1.91-1.25.32-4.42a2.93,2.93,0,0,1-.34-2.21,2,2,0,0,1,.89-1,.45.45,0,1,0-.38-.81Z"/><path class="cls-1" d="M13.21,14.45A2.78,2.78,0,0,0,11.86,16a3.72,3.72,0,0,0,.37,2.92c1.21,2.41,0,3.23,0,3.26a.44.44,0,0,0-.14.62.43.43,0,0,0,.38.21.44.44,0,0,0,.24-.07c.08-.05,1.91-1.25.32-4.42a2.87,2.87,0,0,1-.33-2.21,1.94,1.94,0,0,1,.88-1,.45.45,0,1,0-.38-.81Z"/></g></g></svg>