<svg xmlns="http://www.w3.org/2000/svg" viewBox="0 0 18.12 18.12"><defs><style>.cls-1{fill:#009ee1;}</style></defs><title>Neighborhood </title><g id="Layer_2" data-name="Layer 2"><g id="Layer_1-2" data-name="Layer 1"><path class="cls-1" d="M9.06.75a2.05,2.05,0,0,1,1.39.51L17,7.07a1.5,1.5,0,0,1,.29.31,1.7,1.7,0,0,1-.47,0H15.2v9.93H2.93V7.43H1.3a1.7,1.7,0,0,1-.47,0,1.5,1.5,0,0,1,.29-.31L7.67,1.26A2.05,2.05,0,0,1,9.06.75m0-.75A2.84,2.84,0,0,0,7.17.69L.62,6.5c-1,.93-.74,1.68.68,1.68h.87v9.94H16V8.18h.87c1.42,0,1.72-.75.68-1.68L11,.69A2.84,2.84,0,0,0,9.06,0Z"/><path class="cls-1" d="M11.35,10.12v7.24H6.77V10.12h4.58m.37-.75H6.4A.38.38,0,0,0,6,9.75v8a.38.38,0,0,0,.38.38h5.32a.38.38,0,0,0,.38-.38v-8a.38.38,0,0,0-.38-.38Z"/></g></g></svg>