<svg xmlns="http://www.w3.org/2000/svg" viewBox="0 0 18 20.9"><defs><style>.cls-1{fill:none;stroke:#009ee1;stroke-linecap:round;stroke-linejoin:round;}.cls-2{fill:#009ee1;}</style></defs><title>Pricing</title><g id="Layer_2" data-name="Layer 2"><g id="Layer_1-2" data-name="Layer 1"><polygon class="cls-1" points="4.56 0.5 13.44 0.5 10.93 4.75 6.8 4.75 4.56 0.5"/><path class="cls-1" d="M8,6.59a14.18,14.18,0,0,1,3.32,0c.67.2,1.31,1.09,1.72,1.56a23.73,23.73,0,0,1,2.73,4.29,17.31,17.31,0,0,1,1.7,3.85,3.09,3.09,0,0,1-1.62,3.5,15.11,15.11,0,0,1-4.33.6c-2.13.08-4.16-.18-6.29-.17-1.4,0-4-.27-4.49-1.66a7.43,7.43,0,0,1,.29-4,14.5,14.5,0,0,1,1-2.25c.3-.62.47-1.25.79-1.83S3.63,9.28,4,8.66s1.1-1.88,2-2.07A10,10,0,0,1,8,6.59Z"/><path class="cls-2" d="M8.6,18.23V17.05a3.41,3.41,0,0,1-1.79-.51l.28-.79a3.16,3.16,0,0,0,1.69.51c.83,0,1.39-.48,1.39-1.15s-.45-1-1.32-1.39c-1.19-.47-1.93-1-1.93-2A1.92,1.92,0,0,1,8.69,9.81V8.63h.72V9.76a3.19,3.19,0,0,1,1.52.41l-.29.77a2.87,2.87,0,0,0-1.47-.39c-.91,0-1.25.54-1.25,1s.44.92,1.46,1.34c1.2.49,1.81,1.1,1.81,2.14a2,2,0,0,1-1.85,2v1.21Z"/></g></g></svg>