<svg xmlns="http://www.w3.org/2000/svg" viewBox="0 0 20.25 20.25"><defs><style>.cls-1{fill:#009ee1;stroke:#009ee1;stroke-miterlimit:10;stroke-width:0.25px;}</style></defs><title>profile </title><g id="Layer_2" data-name="Layer 2"><g id="Layer_1-2" data-name="Layer 1"><path class="cls-1" d="M9.46,8.46a.34.34,0,0,0-.34-.34H7.79a.34.34,0,0,0,0,.67h.33a.34.34,0,1,0,.67,0h.33a.34.34,0,0,0,.34-.33Z"/><path class="cls-1" d="M4.88,10.09a26.19,26.19,0,0,0,1,2.52,5.09,5.09,0,0,0,4.3,2.85,5.09,5.09,0,0,0,4.29-2.85c.28-.56.78-2,1-2.52a1,1,0,0,0,.74-1V7.79a1,1,0,0,0-.66-.94V5.12c0-1.31-.69-3.74-3.26-4a.77.77,0,0,0-.11-.37c-.33-.53-1.25-.65-2-.65a5.7,5.7,0,0,0-6,5.67.33.33,0,0,0,.34.33h0a.33.33,0,0,0,.33-.33,5,5,0,0,1,5.34-5c.94,0,1.32.21,1.39.33s0,.06,0,.19a.34.34,0,0,0,.3.48c3,0,3,3.2,3,3.33v2a.34.34,0,0,0,.33.34.34.34,0,0,1,.34.33V9.13a.34.34,0,0,1-.34.33.32.32,0,0,0-.31.23s-.66,2-1,2.62a4.53,4.53,0,0,1-3.71,2.48,4.53,4.53,0,0,1-3.7-2.48c-.32-.64-1-2.6-1-2.62a.32.32,0,0,0-.32-.23.33.33,0,0,1-.33-.33V7.79a.33.33,0,0,1,.1-.23.92.92,0,0,0,.9.56.34.34,0,0,0,.3-.18,6,6,0,0,0,.68-1.82,11.32,11.32,0,0,0,5.46-1.61,5.51,5.51,0,0,0,1.33,2.18A.33.33,0,1,0,14,6.22a4.27,4.27,0,0,1-1.24-2.43.33.33,0,0,0-.24-.32.34.34,0,0,0-.38.15c-.57,1-3.7,1.84-5.71,1.84a.34.34,0,0,0-.34.33,3.89,3.89,0,0,1-.51,1.63.32.32,0,0,1-.15-.3.34.34,0,0,0-.34-.33,1,1,0,0,0-1,1V9.12a1,1,0,0,0,.76,1Z"/><path class="cls-1" d="M10.13,13.12a1.72,1.72,0,0,0,1.23-.43.32.32,0,0,0,0-.46.33.33,0,0,0-.47,0,1.13,1.13,0,0,1-.76.24,1.12,1.12,0,0,1-.77-.24.33.33,0,0,0-.47.47,1.73,1.73,0,0,0,1.24.43Z"/><path class="cls-1" d="M10.47,11.13a.34.34,0,0,0-.34-.34h0a.34.34,0,1,0,.34.34Z"/><path class="cls-1" d="M20.11,19.71l-.34-1.36c-.17-.51-1.18-2.16-7-2.21v-.35a.33.33,0,0,0-.33-.33.33.33,0,0,0-.33.33v.67h0a1.92,1.92,0,0,1-2,2,1.93,1.93,0,0,1-2-2v-.67a.33.33,0,0,0-.33-.33.33.33,0,0,0-.33.33v.34c-4.32,0-6.48.72-7,2.25L.14,19.71a.32.32,0,0,0,.24.4.32.32,0,0,0,.4-.24l.33-1.31c.39-1.16,2.47-1.74,6.37-1.77a2.53,2.53,0,0,0,2.65,2.34,2.52,2.52,0,0,0,2.64-2.32c4.57,0,6.16,1.11,6.36,1.73l.34,1.33a.33.33,0,0,0,.32.25h.08a.32.32,0,0,0,.24-.4Z"/><path class="cls-1" d="M11.79,9.13a.34.34,0,0,0,.34-.34h.33a.34.34,0,0,0,0-.67H11.13a.34.34,0,1,0,0,.67h.33a.34.34,0,0,0,.33.34Z"/></g></g></svg>