<svg xmlns="http://www.w3.org/2000/svg" viewBox="0 0 23.36 21"><defs><style>.cls-1{fill:#009ee1;}</style></defs><title>RoomAmenities</title><g id="Layer_2" data-name="Layer 2"><g id="Layer_1-2" data-name="Layer 1"><path class="cls-1" d="M1,12.14h1.3v8.38a.48.48,0,1,0,1,0V12.14h9.39V20a1,1,0,0,0,1,1h6.87a1,1,0,0,0,1-1V12.14h.93a1,1,0,0,0,1-1V10.5a1,1,0,0,0-1-1H10.71V8.33h3.82a1,1,0,0,0,1-1V1a1,1,0,0,0-1-1H3.47a1,1,0,0,0-1,1V7.34a1,1,0,0,0,1,1h3.8V9.55H1a1,1,0,0,0-1,1v.63A1,1,0,0,0,1,12.14Zm19.57,4.94h-7V14.9h7v2.18Zm-.05,3H13.63a0,0,0,0,1-.05-.05V18h7v2A.05.05,0,0,1,20.5,20.07Zm.05-7.87V14h-7V12.2a.06.06,0,0,1,.05-.06H20.5A.06.06,0,0,1,20.55,12.2ZM3.42,7.34V1a.05.05,0,0,1,.05,0H14.53a0,0,0,0,1,.05,0V7.34a.06.06,0,0,1-.05.06H3.47S3.42,7.37,3.42,7.34ZM8.19,9.47V8.38a.06.06,0,0,1,.06-.05H9.73a0,0,0,0,1,0,.05V9.49a.06.06,0,0,1,0,.06H8.25S8.19,9.49,8.19,9.47ZM1,10.5A.06.06,0,0,1,1,10.45H22.38a0,0,0,0,1,.05.05v.64a.05.05,0,0,1-.05,0H1a.05.05,0,0,1,0,0V10.5Z"/><path class="cls-1" d="M16.36,13.47h1.38a.48.48,0,1,0,0-1H16.36a.48.48,0,1,0,0,1Z"/><path class="cls-1" d="M16.36,16.47h1.38a.49.49,0,0,0,.48-.48.48.48,0,0,0-.48-.48H16.36a.47.47,0,0,0-.48.48A.48.48,0,0,0,16.36,16.47Z"/><path class="cls-1" d="M17.74,18.59H16.36a.48.48,0,1,0,0,.95h1.38a.48.48,0,1,0,0-.95Z"/></g></g></svg>