<svg xmlns="http://www.w3.org/2000/svg" viewBox="0 0 19.84 13.25"><defs><style>.cls-1{fill:#1ea0f2;stroke:#fff;stroke-width:0.25px;}</style></defs><title>Smokers </title><g id="Layer_2" data-name="Layer 2"><g id="Layer_1-2" data-name="Layer 1"><path class="cls-1" d="M19.23,4l-.32-.7H12.27l-.34.62a5.07,5.07,0,0,0-.46,1.79L11,5.08A12.9,12.9,0,0,0,7.53,1.45,9.45,9.45,0,0,0,4.78.37,10,10,0,0,0,2.64.13H2A1.84,1.84,0,0,0,2,3.8h.73A3.23,3.23,0,0,1,5.27,4.91a13.72,13.72,0,0,1,1.84,2.6,12.23,12.23,0,0,0,4.11,4.66,6.63,6.63,0,0,0,3.33,1,6,6,0,0,0,2.33-.48,4.4,4.4,0,0,0,2.2-2,5.48,5.48,0,0,0,.63-2.59A10.92,10.92,0,0,0,19.23,4ZM6.45,4.42l-.33-.35A4.41,4.41,0,0,0,2.69,2.6H2A.64.64,0,0,1,2,1.32h.68a8.47,8.47,0,0,1,1.88.22,8.16,8.16,0,0,1,2.39.93,6.54,6.54,0,0,1,.86.63Zm10,7.13a4.81,4.81,0,0,1-1.87.38,5.47,5.47,0,0,1-2.73-.79c-2.3-1.35-3.3-3.81-4.64-5.76L8.61,4c1.6,1.81,2.73,4.14,3.92,4.14,0-2.8.44-3.6.44-3.6h5.17a10.34,10.34,0,0,1,.37,3.58,3.6,3.6,0,0,1-2.09,3.48Z"/></g></g></svg>