<?xml version="1.0" encoding="utf-8"?>
<!-- Generator: Adobe Illustrator 22.0.1, SVG Export Plug-In . SVG Version: 6.00 Build 0)  -->
<svg version="1.1" id="Layer_1" xmlns="http://www.w3.org/2000/svg" xmlns:xlink="http://www.w3.org/1999/xlink" x="0px" y="0px"
	 viewBox="0 0 24 24" style="enable-background:new 0 0 24 24;" xml:space="preserve">
<style type="text/css">
	.st0{fill:#E44134;}
</style>
<path class="st0" d="M15.9,6.1L12,10L8.1,6.1L9.2,5L12,7.8L14.8,5L15.9,6.1z M12,2c5.5,0,10,4.5,10,10s-4.5,10-10,10S2,17.5,2,12
	S6.5,2,12,2z M12,0C5.4,0,0,5.4,0,12s5.4,12,12,12s12-5.4,12-12S18.6,0,12,0z M12,14c-2.3,0-4.1,1.6-5.1,2.8l0.5,0.6
	c1.3-0.8,2.7-1.3,4.6-1.3s3.3,0.5,4.6,1.3l0.5-0.6C16.1,15.6,14.3,14,12,14z M8.5,9C7.7,9,7,9.7,7,10.5S7.7,12,8.5,12
	s1.5-0.7,1.5-1.5S9.3,9,8.5,9z M15.5,9C14.7,9,14,9.7,14,10.5s0.7,1.5,1.5,1.5c0.8,0,1.5-0.7,1.5-1.5S16.3,9,15.5,9z"/>
</svg>
