<?xml version="1.0" encoding="utf-8"?>
<!-- Generator: Adobe Illustrator 22.0.1, SVG Export Plug-In . SVG Version: 6.00 Build 0)  -->
<svg version="1.1" id="Layer_1" xmlns="http://www.w3.org/2000/svg" xmlns:xlink="http://www.w3.org/1999/xlink" x="0px" y="0px"
	 viewBox="0 0 27.1 19" style="enable-background:new 0 0 27.1 19;" xml:space="preserve">
<style type="text/css">
	.st0{fill:#009EE1;}
</style>
<g transform="translate(1 1)">
	<path class="st0" d="M24.8,10.8H0.4c-0.8,0-1.4-0.6-1.4-1.4v-9C-1-0.4-0.4-1,0.4-1h24.4c0.8,0,1.4,0.6,1.4,1.4v9
		C26.1,10.2,25.6,10.8,24.8,10.8z M0.4-0.1c-0.2,0-0.5,0.2-0.5,0.5v9c0,0.3,0.2,0.5,0.5,0.5h24.4c0.3,0,0.5-0.2,0.5-0.5v-9
		c0-0.3-0.2-0.5-0.5-0.5H0.4z"/>
	<path class="st0" d="M14.4,3.1h-3.6c-0.3,0-0.5-0.2-0.5-0.5s0.2-0.5,0.5-0.5h3.6c0.3,0,0.5,0.2,0.5,0.5S14.7,3.1,14.4,3.1z"/>
	<path class="st0" d="M23.9,9H1.3C1,9,0.8,8.8,0.8,8.5S1,8,1.3,8h22.6c0.3,0,0.5,0.2,0.5,0.5S24.2,9,23.9,9z"/>
	<path class="st0" d="M23.9,7.1H1.3C1,7.1,0.8,7,0.8,6.7c0-0.3,0.2-0.5,0.5-0.5h22.6c0.3,0,0.5,0.2,0.5,0.5
		C24.3,7,24.2,7.1,23.9,7.1z"/>
	<path class="st0" d="M12.6,17.1c-0.2,0-0.3-0.1-0.4-0.2c-0.1-0.2,0-0.5,0.2-0.6c0.4-0.2,0.7-0.5,0.7-0.7s-0.2-0.5-0.7-0.7
		c-0.7-0.5-1.1-1-1.1-1.6s0.4-1.1,1.1-1.5c0.2-0.1,0.5,0,0.6,0.2c0.1,0.2,0,0.5-0.2,0.6c-0.4,0.3-0.6,0.5-0.6,0.8s0.2,0.5,0.7,0.7
		c0.7,0.4,1.1,0.9,1.1,1.5c0,0.6-0.4,1.1-1.1,1.5C12.7,17.1,12.7,17.1,12.6,17.1z"/>
	<path class="st0" d="M7.6,18c-0.2,0-0.3-0.1-0.4-0.2c-0.1-0.2,0-0.5,0.2-0.6C7.8,17,8,16.7,8,16.5S7.8,16,7.4,15.7
		c-0.7-0.5-1.1-1-1.1-1.6c0-0.6,0.4-1.1,1.1-1.5c0.2-0.1,0.5,0,0.6,0.2c0.1,0.2,0,0.5-0.2,0.6c-0.4,0.3-0.6,0.5-0.6,0.8
		s0.2,0.5,0.7,0.7C8.5,15.2,9,15.8,9,16.4C9,17,8.5,17.5,7.8,18C7.7,18,7.7,18,7.6,18z"/>
	<path class="st0" d="M17.5,18c-0.2,0-0.3-0.1-0.4-0.2c-0.1-0.2,0-0.5,0.2-0.6c0.4-0.2,0.7-0.5,0.7-0.7s-0.2-0.5-0.7-0.7
		c-0.7-0.5-1.1-1-1.1-1.6c0-0.6,0.4-1.1,1.1-1.5c0.2-0.1,0.5,0,0.6,0.2s0,0.5-0.2,0.6c-0.4,0.3-0.6,0.5-0.6,0.8s0.2,0.5,0.7,0.7
		c0.7,0.4,1.1,0.9,1.1,1.5c0,0.6-0.4,1.1-1.1,1.5C17.7,18,17.6,18,17.5,18z"/>
</g>
</svg>
