<?xml version="1.0" encoding="utf-8"?>
<!-- Generator: Adobe Illustrator 22.0.1, SVG Export Plug-In . SVG Version: 6.00 Build 0)  -->
<svg version="1.1" id="Layer_1" xmlns="http://www.w3.org/2000/svg" xmlns:xlink="http://www.w3.org/1999/xlink" x="0px" y="0px"
	 viewBox="0 0 26.8 25" style="enable-background:new 0 0 26.8 25;" xml:space="preserve">
<style type="text/css">
	.st0{fill:#009EE1;}
</style>
<g transform="translate(1 1)">
	<path class="st0" d="M24.4,15.1H0.3c-0.8,0-1.3-0.6-1.3-1.3c0-0.8,0.6-1.3,1.3-1.3h24.1c0.8,0,1.3,0.6,1.3,1.3
		C25.8,14.5,25.2,15.1,24.4,15.1z M0.3,13.3c-0.3,0-0.4,0.2-0.4,0.4s0.2,0.4,0.4,0.4h24.1c0.3,0,0.4-0.2,0.4-0.4
		c0-0.3-0.2-0.4-0.4-0.4H0.3z"/>
	<path class="st0" d="M19.7,22.2H5.1c-1.4,0-2.7-1-3-2.4l-1.3-5.1c0-0.1,0-0.3,0.1-0.4c0.1-0.1,0.2-0.1,0.4-0.1h22.3
		c0.1,0,0.3,0,0.4,0.2c0.1,0.1,0.1,0.3,0.1,0.4l-1.3,5.1C22.3,21.2,21.1,22.2,19.7,22.2z M1.8,15.1L3,19.6c0.3,1,1.2,1.7,2.2,1.7
		h14.6c1,0,1.9-0.7,2.2-1.7l1.1-4.6H1.8z"/>
	<path class="st0" d="M5.2,24c0,0-0.1,0-0.2,0c-0.2-0.1-0.3-0.4-0.2-0.6l0.9-1.8c0.1-0.2,0.4-0.3,0.6-0.2c0.2,0.1,0.3,0.4,0.2,0.6
		l-0.9,1.8C5.6,23.9,5.4,24,5.2,24z"/>
	<path class="st0" d="M20,24c-0.2,0-0.3-0.1-0.4-0.3l-0.9-1.8c-0.1-0.2,0-0.5,0.2-0.6c0.2-0.1,0.5,0,0.6,0.2l0.9,1.8
		c0.1,0.2,0,0.5-0.2,0.6C20.1,24,20.1,24,20,24z"/>
	<path class="st0" d="M9.3,13.3H0.8c-0.3,0-0.4-0.2-0.4-0.4c0-1.2,1-2.2,2.2-2.2c0.4,0,0.8,0.1,1.2,0.3c0.4-0.7,1.1-1.2,2-1.2
		c0.7,0,1.3,0.4,1.8,0.9l0,0c1.2,0,2.2,1,2.2,2.2C9.7,13.1,9.5,13.3,9.3,13.3z M1.3,12.4h7.5c-0.2-0.5-0.7-0.9-1.2-0.9
		c0,0-0.1,0-0.1,0c-0.2,0-0.4,0-0.5-0.2c-0.2-0.4-0.7-0.7-1.2-0.7c-0.7,0-1.2,0.5-1.3,1.2c0,0.2-0.1,0.3-0.3,0.4s-0.4,0-0.4-0.1
		c-0.3-0.3-0.7-0.5-1.1-0.5C2,11.5,1.5,11.9,1.3,12.4z"/>
	<path class="st0" d="M24,12.8h-0.9V3c0-1.7-1.4-3.1-3.1-3.1c-1.8,0-2.7,1.6-2.7,3.1h-0.9c0-2.4,1.5-4,3.6-4c2.2,0,4,1.8,4,4V12.8z"
		/>
	<path class="st0" d="M15.1,7.3c-0.3,0-0.4-0.2-0.4-0.4V6.6c0-0.3,0.2-0.4,0.4-0.4s0.4,0.2,0.4,0.4v0.2C15.5,7.1,15.3,7.3,15.1,7.3z
		"/>
	<path class="st0" d="M15.1,9.3c-0.3,0-0.4-0.2-0.4-0.4V8.4c0-0.3,0.2-0.4,0.4-0.4s0.4,0.2,0.4,0.4v0.5C15.5,9.1,15.3,9.3,15.1,9.3z
		"/>
	<path class="st0" d="M15.1,11.1c-0.3,0-0.4-0.2-0.4-0.4v-0.2c0-0.3,0.2-0.4,0.4-0.4s0.4,0.2,0.4,0.4v0.2
		C15.5,10.9,15.3,11.1,15.1,11.1z"/>
	<path class="st0" d="M16.9,7.3c-0.3,0-0.4-0.2-0.4-0.4V6.6c0-0.3,0.2-0.4,0.4-0.4s0.4,0.2,0.4,0.4v0.2C17.3,7.1,17.1,7.3,16.9,7.3z
		"/>
	<path class="st0" d="M16.9,9.3c-0.3,0-0.4-0.2-0.4-0.4V8.4c0-0.3,0.2-0.4,0.4-0.4s0.4,0.2,0.4,0.4v0.5C17.3,9.1,17.1,9.3,16.9,9.3z
		"/>
	<path class="st0" d="M16.9,11.1c-0.3,0-0.4-0.2-0.4-0.4v-0.2c0-0.3,0.2-0.4,0.4-0.4s0.4,0.2,0.4,0.4v0.2
		C17.3,10.9,17.1,11.1,16.9,11.1z"/>
	<path class="st0" d="M18.6,7.3c-0.3,0-0.4-0.2-0.4-0.4V6.6c0-0.3,0.2-0.4,0.4-0.4s0.4,0.2,0.4,0.4v0.2C19.1,7.1,18.9,7.3,18.6,7.3z
		"/>
	<path class="st0" d="M18.6,9.3c-0.3,0-0.4-0.2-0.4-0.4V8.4c0-0.3,0.2-0.4,0.4-0.4s0.4,0.2,0.4,0.4v0.5C19.1,9.1,18.9,9.3,18.6,9.3z
		"/>
	<path class="st0" d="M18.6,11.1c-0.3,0-0.4-0.2-0.4-0.4v-0.2c0-0.3,0.2-0.4,0.4-0.4s0.4,0.2,0.4,0.4v0.2
		C19.1,10.9,18.9,11.1,18.6,11.1z"/>
	<path class="st0" d="M18.6,5.2h-3.6c-0.3,0-0.4-0.2-0.4-0.4c0-1.2,1-2.2,2.2-2.2s2.2,1,2.2,2.2C19.1,5.1,18.9,5.2,18.6,5.2z
		 M15.6,4.4h2.5c-0.2-0.5-0.7-0.9-1.2-0.9S15.8,3.8,15.6,4.4z"/>
</g>
</svg>
