<?xml version="1.0" encoding="utf-8"?>
<!-- Generator: Adobe Illustrator 22.0.1, SVG Export Plug-In . SVG Version: 6.00 Build 0)  -->
<svg version="1.1" id="Layer_1" xmlns="http://www.w3.org/2000/svg" xmlns:xlink="http://www.w3.org/1999/xlink" x="0px" y="0px"
	 viewBox="0 0 22.1 18.9" style="enable-background:new 0 0 22.1 18.9;" xml:space="preserve">
<style type="text/css">
	.st0{fill:none;stroke:#1C9DD8;stroke-width:0.8826;stroke-linecap:round;stroke-miterlimit:10;}
</style>
<g>
	<path class="st0" d="M5.8,3.7c-1.3,0-2.1-0.1-3.2,0.7C1.5,5.2,1.7,6.1,1.7,7.3c0,0.4,0.1,0.8,0,1.1C1.6,9.1,1.3,9.2,1,9.8
		c-0.4,0.6-0.6,1.7-0.5,2.5c0.2,1.1,1,1.9,2,2.3c0.6,0.3,1.1,0.4,1.5,0.9c0.3,0.5,0.2,0.9,0.5,1.4c0.5,0.9,1.4,1.5,2.4,1.6
		c1.3,0.1,2-0.5,3.1-0.8c2.2-0.6,4.7,0.9,6.7-0.8c1.1-0.9,1-1.8,1.4-3c0.4-1.3,1.7-1.4,2.6-2.3c0.7-0.7,1.2-2.1,0.9-3.1
		c-0.3-0.9-1.3-1.6-1.8-2.4c-0.6-1.1-1-2.5-2.3-2.9C17,3,16.4,2.9,15.9,3C15.4,3,15,3.3,14.5,3.4c-1.3,0.2-2.5-1-3.6-1.4
		C10,1.5,9,0.6,8,0.5C5.7,0.1,6.4,2.7,5.8,3.7"/>
	<path class="st0" d="M14.7,9.8c0,2.4-1.9,4.3-4.3,4.3C8,14.1,6,12.1,6,9.8C6,7.4,8,5.4,10.4,5.4C12.7,5.4,14.7,7.4,14.7,9.8z"/>
</g>
</svg>
