<?xml version="1.0" encoding="utf-8"?>
<!-- Generator: Adobe Illustrator 22.0.1, SVG Export Plug-In . SVG Version: 6.00 Build 0)  -->
<svg version="1.1" id="Layer_1" xmlns="http://www.w3.org/2000/svg" xmlns:xlink="http://www.w3.org/1999/xlink" x="0px" y="0px"
	 viewBox="0 0 19.1 24.5" style="enable-background:new 0 0 19.1 24.5;" xml:space="preserve">
<style type="text/css">
	.st0{fill:#009EE1;stroke:#009EE1;stroke-width:0.4615;stroke-miterlimit:10;}
</style>
<g>
	<path class="st0" d="M18.4,0.6c0-0.2-0.2-0.4-0.4-0.4c-1.4,0-2.2,0.9-2.6,1.4c-1-0.4-2.4-0.6-4.2-0.6C9.4,1.1,8,1.3,6.9,1.6
		C6.6,1.2,5.7,0.2,4.3,0.2C4.2,0.2,4,0.4,4,0.6C4,2,4.2,3.8,4.3,4.2C4.1,5,4,5.7,4,6.6c0,3,2.6,7.2,7.2,7.2s7.2-4.2,7.2-7.2
		c0-0.9-0.1-1.8-0.4-2.4C18,3.8,18.4,2.1,18.4,0.6L18.4,0.6z M11.2,13.1c-4.2,0-6.4-3.8-6.4-6.4c0-0.9,0.1-1.6,0.4-2.2
		c0-0.1,0-0.2,0-0.2s-0.4-1.7-0.4-3c0.6,0.1,1.1,0.6,1.4,0.9C6,2.1,5.8,2.2,5.6,2.4C5.4,2.5,5.4,2.7,5.5,2.9C5.6,3.1,5.9,3.1,6.1,3
		c1-0.7,2.6-1.1,5.1-1.1s4.1,0.4,5.1,1.1c0,0,0.1,0,0.2,0s0.3-0.1,0.3-0.2c0.1-0.2,0.1-0.5-0.1-0.6c-0.2-0.1-0.4-0.3-0.6-0.4
		c0.3-0.3,0.7-0.7,1.4-0.9c-0.1,1.5-0.4,3-0.4,3c0,0.1,0,0.2,0,0.2c0.3,0.6,0.4,1.4,0.4,2.2C17.5,9.3,15.2,13.1,11.2,13.1L11.2,13.1
		z"/>
	<path class="st0" d="M17,21.1c0.3-0.6,0.6-1.7,0.6-3.2c0-2.6-2.5-3.9-2.6-4c-0.2-0.1-0.5,0-0.6,0.2s0,0.5,0.2,0.6
		c0,0,2.2,1.1,2.2,3.2c0,2.2-0.7,3.3-0.7,3.4c-0.1,0.1-0.1,0.3,0,0.4s0.2,0.2,0.4,0.2c1.2,0,1.2,0.6,1.2,0.8c0,0.6-0.6,0.8-1.2,0.8
		h-0.4c-0.2,0-0.4,0.2-0.4,0.4c0,0.2,0.2,0.4,0.4,0.4h0.4c1.2,0,2-0.6,2-1.6C18.4,21.9,17.8,21.3,17,21.1L17,21.1z"/>
	<g>
		<path class="st0" d="M6.4,23.4H5.9c-0.6,0-1.2-0.3-1.2-0.8c0-0.2,0-0.8,1.2-0.8c0.2,0,0.3-0.1,0.4-0.2s0.1-0.3,0-0.4
			c0,0-0.7-1.1-0.7-3.4c0-2.1,2.1-3.2,2.2-3.2C7.9,14.5,8,14.2,7.9,14c-0.1-0.2-0.4-0.3-0.6-0.2c-0.1,0.1-2.6,1.4-2.6,4
			c0,1.6,0.4,2.7,0.6,3.2C4.5,21.2,4,21.8,4,22.6c0,0.9,0.8,1.6,2,1.6h0.4c0.2,0,0.4-0.2,0.4-0.4C6.7,23.6,6.6,23.4,6.4,23.4
			L6.4,23.4z"/>
		<path class="st0" d="M4.3,18.2c0-0.2-0.2-0.4-0.4-0.4c0,0-0.3,0-0.6-0.3c-0.3-0.4-0.7-1.3-0.3-3.6c0.2-1.1-0.4-1.8-0.9-1.9
			C1.7,12,1,12.2,0.7,13c-0.1,0.2,0,0.5,0.3,0.5c0.2,0.1,0.5,0,0.5-0.3c0.1-0.3,0.3-0.5,0.5-0.5c0.3,0.1,0.5,0.4,0.3,1
			c-0.4,2-0.2,3.5,0.5,4.2c0.5,0.6,1.1,0.6,1.1,0.6C4.2,18.6,4.3,18.4,4.3,18.2L4.3,18.2z"/>
	</g>
	<path class="st0" d="M13.6,21.1c0-1,0.1-4,0.4-5.5c0-0.2-0.1-0.5-0.3-0.5s-0.5,0.1-0.5,0.3c-0.4,1.7-0.4,4.6-0.4,5.7l0,0
		c-0.2,0-0.4,0.2-0.4,0.4c0,0.2,0.2,0.4,0.4,0.4h0.4c1.2,0,1.2,0.6,1.2,0.8c0,0.6-0.6,0.8-1.2,0.8h-0.5c-0.6,0-1.2-0.6-1.2-1.2V15
		c0-0.2-0.2-0.4-0.4-0.4s-0.4,0.2-0.4,0.4v7.2c0,0.6-0.6,1.2-1.2,1.2H9.1c-0.6,0-1.2-0.3-1.2-0.8c0-0.2,0-0.8,1.2-0.8h0.4
		c0.2,0,0.4-0.2,0.4-0.4c0-0.2-0.2-0.4-0.4-0.4l0,0c0-1.1-0.1-4-0.4-5.7C9,15.1,8.9,15,8.7,15s-0.4,0.3-0.3,0.5
		C8.7,17.1,8.8,20,8.8,21c-1,0.1-1.6,0.6-1.6,1.6s0.8,1.6,2,1.6h0.4c0.6,0,1.2-0.3,1.6-0.8c0.4,0.5,0.9,0.8,1.6,0.8h0.4
		c1.2,0,2-0.6,2-1.6C15.1,21.8,14.6,21.2,13.6,21.1L13.6,21.1z"/>
	<path class="st0" d="M13.8,5.4c-0.4,0-0.6,0.3-0.6,0.6c0,0.4,0.3,0.6,0.6,0.6c0.4,0,0.6-0.3,0.6-0.6C14.3,5.7,14,5.4,13.8,5.4
		L13.8,5.4z"/>
	<path class="st0" d="M9.1,6.1c0-0.4-0.3-0.6-0.6-0.6c-0.4,0-0.6,0.3-0.6,0.6c0,0.4,0.3,0.6,0.6,0.6C8.9,6.6,9.1,6.3,9.1,6.1
		L9.1,6.1z"/>
	<path class="st0" d="M13.8,10.7c-0.2-0.1-0.5,0-0.6,0.2c-0.1,0.1-0.4,0.2-0.5,0.2c-0.5,0-1-0.5-1.1-0.9c0.7-0.4,1.1-1.4,1.1-1.8
		c0-0.8-0.9-0.8-1.6-0.8c-0.7,0-1.6,0-1.6,0.8c0,0.5,0.5,1.6,1.1,1.8c-0.2,0.5-0.6,0.9-1.1,0.9c-0.1,0-0.4,0-0.5-0.2
		c-0.1-0.2-0.4-0.3-0.6-0.2c-0.2,0.1-0.3,0.4-0.2,0.6c0.4,0.6,1.1,0.6,1.1,0.6c0.6,0,1.2-0.4,1.6-0.8c0.4,0.5,1,0.8,1.6,0.8
		c0.1,0,0.8,0,1.2-0.6C14,11.1,13.9,10.8,13.8,10.7L13.8,10.7z M11.2,9.5c-0.4,0-0.7-0.8-0.8-1.1c0.2-0.1,0.6-0.1,0.8-0.1
		s0.6,0,0.8,0.1C11.9,8.7,11.4,9.5,11.2,9.5L11.2,9.5z"/>
</g>
</svg>
