<?xml version="1.0" encoding="utf-8"?>
<!-- Generator: Adobe Illustrator 22.0.1, SVG Export Plug-In . SVG Version: 6.00 Build 0)  -->
<svg version="1.1" id="Layer_1" xmlns="http://www.w3.org/2000/svg" xmlns:xlink="http://www.w3.org/1999/xlink" x="0px" y="0px"
	 viewBox="0 0 26.6 18" style="enable-background:new 0 0 26.6 18;" xml:space="preserve">
<style type="text/css">
	.st0{fill:#009EE1;}
</style>
<path class="st0" d="M26.2,11.4h-0.2V9.8c0-0.7-0.5-1.4-1.1-1.6V1.9c0-1-0.9-1.9-1.9-1.9h-4c-0.2,0-0.4,0.2-0.4,0.4s0.2,0.4,0.4,0.4
	h4c0.6,0,1,0.5,1,1v6.2h-2.5c0.6-0.5,1.2-1.1,1.5-1.8C23,6.2,23,6,22.9,5.9c-0.4-0.7-0.9-1.4-1.6-1.9c-0.2-0.1-0.5-0.1-0.6,0.1
	c-0.1,0.2-0.1,0.5,0.1,0.6c0.5,0.3,0.9,0.8,1.2,1.3c-0.7,1.2-2,2-3.4,2c-1.4,0-2.7-0.8-3.4-2c0.7-1.2,2-2,3.4-2
	c0.4,0,0.8,0.1,1.2,0.2C20,4.4,20.2,4.2,20.3,4c0.1-0.2-0.1-0.5-0.3-0.6c-0.5-0.1-0.9-0.2-1.4-0.2c-1.8,0-3.5,1-4.3,2.7
	c-0.1,0.1-0.1,0.3,0,0.4c0.4,0.7,0.9,1.3,1.5,1.8h-5c0.6-0.5,1.2-1.1,1.5-1.8c0.1-0.1,0.1-0.3,0-0.4C11.5,4.3,9.9,3.2,8,3.2
	s-3.5,1-4.3,2.7C3.6,6,3.6,6.2,3.7,6.3C4,7.1,4.6,7.7,5.2,8.1H2.7V1.9c0-0.6,0.5-1,1-1h13.7c0.2,0,0.4-0.2,0.4-0.4S17.7,0,17.4,0
	H3.7c-1,0-1.9,0.9-1.9,1.9v6.3C1.2,8.4,0.7,9.1,0.7,9.8v1.6H0.4c-0.2,0-0.4,0.2-0.4,0.4v3.3c0,0.2,0.2,0.4,0.4,0.4H2v2
	C2,17.8,2.2,18,2.4,18h2.4c0.2,0,0.4-0.2,0.4-0.4v-2h12.8c0.2,0,0.4-0.2,0.4-0.4s-0.2-0.4-0.4-0.4H0.9v-2.4H4c0.2,0,0.4-0.2,0.4-0.4
	c0-0.2-0.2-0.4-0.4-0.4H1.6V9.8C1.6,9.4,1.9,9,2.4,9h21.9C24.7,9,25,9.4,25,9.8v1.6H5.4c-0.2,0-0.4,0.2-0.4,0.4
	c0,0.2,0.2,0.4,0.4,0.4h20.3v2.4h-6.2c-0.2,0-0.4,0.2-0.4,0.4s0.2,0.4,0.4,0.4h1.8v2c0,0.2,0.2,0.4,0.4,0.4h2.4
	c0.2,0,0.4-0.2,0.4-0.4v-2h1.5c0.2,0,0.4-0.2,0.4-0.4v-3.3C26.6,11.6,26.4,11.4,26.2,11.4z M4.4,15.6v1.5H2.9v-1.5H4.4z M4.6,6.1
	c0.7-1.2,2-2,3.4-2s2.7,0.8,3.4,2c-0.7,1.2-2,2-3.4,2S5.3,7.4,4.6,6.1z M23.7,17.1h-1.5v-1.5h1.5V17.1z"/>
</svg>
