<?xml version="1.0" encoding="utf-8"?>
<!-- Generator: Adobe Illustrator 22.0.1, SVG Export Plug-In . SVG Version: 6.00 Build 0)  -->
<svg version="1.1" id="Layer_1" xmlns="http://www.w3.org/2000/svg" xmlns:xlink="http://www.w3.org/1999/xlink" x="0px" y="0px"
	 viewBox="0 0 23.8 16" style="enable-background:new 0 0 23.8 16;" xml:space="preserve">
<style type="text/css">
	.st0{fill:#009EE1;}
</style>
<g>
	<path class="st0" d="M22.2,0H1.6C0.7,0,0,0.7,0,1.6v11.5c0,0.8,0.5,1.4,1.2,1.6v0.5C1.2,15.6,1.6,16,2,16h0.8
		c0.4,0,0.8-0.4,0.8-0.8v-0.4h16.5v0.4c0,0.4,0.4,0.8,0.8,0.8h0.8c0.4,0,0.8-0.4,0.8-0.8v-0.5c0.7-0.2,1.2-0.8,1.2-1.6V1.6
		C23.8,0.7,23.1,0,22.2,0L22.2,0z M2.9,15.2C2.9,15.2,2.9,15.2,2.9,15.2l-0.8,0c0,0,0,0,0,0v-0.4h0.9V15.2z M1.6,14
		c-0.5,0-0.8-0.4-0.8-0.8V1.6c0-0.5,0.4-0.8,0.8-0.8h16.5V14c0,0,0,0,0,0H1.6z M21.8,15.2C21.8,15.2,21.8,15.2,21.8,15.2l-0.8,0
		c0,0,0,0,0,0v-0.4h0.9V15.2z M23,13.1c0,0.5-0.4,0.8-0.8,0.8h-3.3c0,0,0,0,0,0V0.8h3.3c0.5,0,0.8,0.4,0.8,0.8V13.1z M23,13.1"/>
	<path class="st0" d="M16.8,1.6H2C1.8,1.6,1.6,1.8,1.6,2v10.7c0,0.2,0.2,0.4,0.4,0.4h14.8c0.2,0,0.4-0.2,0.4-0.4V2
		C17.2,1.8,17.1,1.6,16.8,1.6L16.8,1.6z M16.5,12.3h-14V2.4h14V12.3z M16.5,12.3"/>
	<path class="st0" d="M21.4,2.5h-0.8c-0.4,0-0.8,0.4-0.8,0.8v0.8c0,0.4,0.4,0.8,0.8,0.8h0.8c0.4,0,0.8-0.4,0.8-0.8V3.3
		C22.2,2.8,21.8,2.5,21.4,2.5L21.4,2.5z M21.4,4.1C21.4,4.1,21.4,4.1,21.4,4.1l-0.8,0c0,0,0,0,0,0V3.3c0,0,0,0,0,0h0.8c0,0,0,0,0,0
		V4.1z M21.4,4.1"/>
	<path class="st0" d="M21.8,5.8h-1.6c-0.2,0-0.4,0.2-0.4,0.4c0,0.2,0.2,0.4,0.4,0.4h1.6c0.2,0,0.4-0.2,0.4-0.4
		C22.2,5.9,22,5.8,21.8,5.8L21.8,5.8z M21.8,5.8"/>
	<path class="st0" d="M21.8,9.1h-1.6c-0.2,0-0.4,0.2-0.4,0.4c0,0.2,0.2,0.4,0.4,0.4h1.6c0.2,0,0.4-0.2,0.4-0.4
		C22.2,9.2,22,9.1,21.8,9.1L21.8,9.1z M21.8,9.1"/>
	<path class="st0" d="M21.8,7.4h-1.6c-0.2,0-0.4,0.2-0.4,0.4c0,0.2,0.2,0.4,0.4,0.4h1.6c0.2,0,0.4-0.2,0.4-0.4
		C22.2,7.6,22,7.4,21.8,7.4L21.8,7.4z M21.8,7.4"/>
	<path class="st0" d="M8.6,8.5c0,0.7,0.3,1,0.5,1.3c0.2,0.3,0.3,0.4,0.3,0.9c0,0.2,0.2,0.4,0.4,0.4c0.2,0,0.4-0.2,0.4-0.4
		c0-0.7-0.3-1-0.5-1.3C9.6,9.1,9.4,8.9,9.4,8.5c0-0.4,0.1-0.6,0.3-0.9C10,7.3,10.2,7,10.2,6.3c0-0.7-0.3-1-0.5-1.3
		C9.6,4.7,9.4,4.5,9.4,4.1c0-0.2-0.2-0.4-0.4-0.4c-0.2,0-0.4,0.2-0.4,0.4c0,0.7,0.3,1,0.5,1.3c0.2,0.3,0.3,0.4,0.3,0.9
		c0,0.4-0.1,0.6-0.3,0.9C8.9,7.4,8.6,7.8,8.6,8.5L8.6,8.5z M8.6,8.5"/>
	<path class="st0" d="M10.7,8.9c0.1,0,0.2-0.1,0.3-0.2c0.3-0.4,0.8-1.1,0.8-2.4c0-0.5-0.1-1-0.3-1.5c-0.1-0.2-0.3-0.3-0.5-0.2
		c-0.2,0.1-0.3,0.3-0.2,0.5c0.1,0.4,0.2,0.8,0.2,1.2c0,1-0.4,1.6-0.7,2c-0.1,0.1-0.1,0.1-0.1,0.2C10.3,8.7,10.5,8.9,10.7,8.9
		L10.7,8.9z M10.7,8.9"/>
	<path class="st0" d="M7.6,10.2c0,0,0.1,0,0.1,0C8,10.1,8.1,9.8,8,9.6C7.8,9.3,7.8,8.9,7.8,8.5c0-1,0.4-1.6,0.7-2c0,0,0,0,0,0
		c0.1-0.1,0.1-0.3,0-0.4C8.4,5.9,8.1,5.8,8,6C7.9,6,7.9,6,7.8,6.1C7.5,6.5,7,7.2,7,8.5c0,0.5,0.1,1,0.3,1.5
		C7.3,10.1,7.5,10.2,7.6,10.2L7.6,10.2z M7.6,10.2"/>
</g>
</svg>
