<svg xmlns="http://www.w3.org/2000/svg" viewBox="0 0 19.4 13.93"><defs><style>.cls-1{fill:none;stroke:gray;stroke-miterlimit:10;stroke-width:0.67px;}</style></defs><title>cycle</title><g id="Layer_2" data-name="Layer 2"><g id="Layer_1-2" data-name="Layer 1"><path class="cls-1" d="M8.17,9.49a3.92,3.92,0,1,1-3.81-4A3.91,3.91,0,0,1,8.17,9.49Z"/><path class="cls-1" d="M19.06,9.79a3.91,3.91,0,1,1-3.8-4A3.91,3.91,0,0,1,19.06,9.79Z"/><path class="cls-1" d="M15.15,9.68s-1.67-2.44-1.66-8.61"/><line class="cls-1" x1="4.39" y1="4.28" x2="4.04" y2="9.37"/><path class="cls-1" d="M13.59,3.5l-9.7.2S6.8,3.75,8,5.8A21.3,21.3,0,0,1,9.56,9.17l3.2-5.65"/><line class="cls-1" x1="3.08" y1="2.53" x2="5.8" y2="2.6"/><polyline class="cls-1" points="11.25 0.34 13.02 0.39 14.2 2.1 12.26 2.05"/></g></g></svg>