<?xml version="1.0" encoding="utf-8"?>
<!-- Generator: Adobe Illustrator 22.0.1, SVG Export Plug-In . SVG Version: 6.00 Build 0)  -->
<svg version="1.1" id="Layer_1" xmlns="http://www.w3.org/2000/svg" xmlns:xlink="http://www.w3.org/1999/xlink" x="0px" y="0px"
	 viewBox="0 0 25.9 26" style="enable-background:new 0 0 25.9 26;" xml:space="preserve">
<style type="text/css">
	.st0{fill:#009EE1;stroke:#009EE1;stroke-width:0.4808;stroke-miterlimit:10;}
</style>
<g>
	<path class="st0" d="M10.9,12.1c0.2,0,0.4-0.2,0.4-0.4v-0.3c0,0,0,0,0,0.1c0.1,0.1,0.2,0.2,0.4,0.2c0.1,0,0.1,0,0.2,0
		c0.2-0.1,0.3-0.4,0.2-0.6c-0.1-0.2-0.5-0.7-1.2-0.7s-1.1,0.4-1.2,0.7c-0.1,0.2,0,0.5,0.2,0.6s0.5,0,0.6-0.2c0,0,0,0,0.1-0.1v0.3
		C10.5,11.9,10.7,12.1,10.9,12.1L10.9,12.1z"/>
	<path class="st0" d="M13,16.8c1,0,1.4-0.5,1.5-0.6c0.2-0.2,0.2-0.4,0-0.6c-0.2-0.2-0.4-0.2-0.6,0c0,0-0.3,0.3-1,0.3
		c-0.6,0-1-0.3-1-0.3c-0.2-0.2-0.4-0.2-0.6,0c-0.2,0.2-0.2,0.4,0,0.6C11.5,16.3,12,16.8,13,16.8L13,16.8z"/>
	<g>
		<path class="st0" d="M18.3,14.8c-2.4-3.3-3.7-6.5-3.7-9.7c0-0.2-0.2-0.4-0.4-0.4s-0.4,0.2-0.4,0.4c0,3.4,1.2,6.7,3.7,10
			c-0.7,1.1-2.5,3.7-4.5,3.7c-2.2,0-4.2-3.1-4.6-3.9C8,14,7.2,11.6,7.2,10V8.8c1,0,3.6-0.2,6-0.9c0.2-0.1,0.4-0.3,0.3-0.5
			C13.4,7.2,13.2,7,13,7.1C10,8,6.7,8,6.7,8C6.6,8,6.4,8.2,6.4,8.4V10c0,1.7,0.9,4.2,1.2,5.2c0,0,2.3,4.4,5.4,4.4s5.4-4.3,5.4-4.4
			C18.4,15.1,18.4,14.9,18.3,14.8L18.3,14.8z"/>
		<path class="st0" d="M15.9,19.6c-0.2,0-0.4,0.2-0.4,0.4v0.9l0,0l0,0c0,0.3-0.1,2.5-2.5,2.5s-2.5-2.2-2.5-2.5V20
			c0-0.2-0.2-0.4-0.4-0.4S9.7,19.8,9.7,20v0.4c-5.7,0.1-8.3,1.7-8.8,3.2l-0.5,1.3c-0.1,0.2,0,0.5,0.3,0.5h0.1c0.2,0,0.3-0.1,0.4-0.3
			l0.4-1.2c0.3-0.9,2.3-2.5,8-2.6c0.2,1.2,1,2.9,3.3,2.9c2.6,0,3.4-2.1,3.4-3.3l0,0l0,0V20C16.3,19.8,16.1,19.6,15.9,19.6L15.9,19.6
			z"/>
		<path class="st0" d="M13,13.8L13,13.8c-0.2,0-0.4,0.2-0.4,0.4s0.2,0.4,0.4,0.4s0.4-0.2,0.4-0.4S13.2,13.8,13,13.8L13,13.8z"/>
		<path class="st0" d="M25.4,24.9L25,23.7c-0.2-0.7-1.1-1.3-2.4-1.9c-0.2-0.1-0.5,0-0.6,0.2c-0.1,0.2,0,0.5,0.2,0.6
			c1.2,0.6,1.8,1.2,1.9,1.4l0.4,1.2c0.1,0.2,0.2,0.3,0.4,0.3H25C25.4,25.4,25.5,25.2,25.4,24.9L25.4,24.9z"/>
	</g>
	<path class="st0" d="M13,0.5c-5.7,0-8.8,3.1-8.8,8.8V13c0,3.2-1.2,6.9-1.2,6.9c-0.1,0.2,0,0.5,0.3,0.5c0.2,0.1,0.5,0,0.5-0.3
		C3.9,19.9,5,16.3,5,12.9V9.2c0-6.5,4.3-7.9,7.9-7.9c4.9,0,7.9,4.6,7.9,7.9V10c0,1.6-1.1,3.7-2,5.5C17.9,17.1,17,18.8,17,20
		c0,2.6,1.7,4.4,1.8,4.4c0.1,0.1,0.2,0.1,0.3,0.1s0.2,0,0.3-0.1c0.1-0.1,1.8-1.8,1.8-4.4s-0.9-3.6-1-3.7c-0.2-0.2-0.4-0.2-0.6,0
		s-0.2,0.4,0,0.6c0,0,0.7,0.8,0.7,3.1c0,1.6-0.8,2.9-1.2,3.6c-0.5-0.6-1.2-1.8-1.2-3.6c0-1.1,0.8-2.5,1.6-4.1
		c1.1-1.9,2.1-3.9,2.1-5.9V9.2C21.7,5.1,18.1,0.5,13,0.5L13,0.5z"/>
</g>
</svg>
