<?xml version="1.0" encoding="utf-8"?>
<!-- Generator: Adobe Illustrator 22.0.1, SVG Export Plug-In . SVG Version: 6.00 Build 0)  -->
<svg version="1.1" id="Layer_1" xmlns="http://www.w3.org/2000/svg" xmlns:xlink="http://www.w3.org/1999/xlink" x="0px" y="0px"
	 viewBox="0 0 23.4 21" style="enable-background:new 0 0 23.4 21;" xml:space="preserve">
<style type="text/css">
	.st0{fill:#009EE1;}
</style>
<g>
	<path class="st0" d="M1,12.1h1.3v8.4c0,0.3,0.2,0.5,0.5,0.5s0.5-0.2,0.5-0.5v-8.4h9.4c0,0,0,0,0,0.1V20c0,0.6,0.5,1,1,1h6.9
		c0.6,0,1-0.5,1-1v-7.8c0,0,0,0,0-0.1h0.9c0.6,0,1-0.5,1-1v-0.7c0-0.6-0.5-1-1-1H10.7c0,0,0,0,0-0.1V8.4c0,0,0,0,0-0.1h3.8
		c0.6,0,1-0.5,1-1V1c0-0.6-0.5-1-1-1H3.5c-0.6,0-1,0.5-1,1v6.4c0,0.6,0.5,1,1,1h3.8c0,0,0,0,0,0.1v1.1c0,0,0,0,0,0.1H1
		c-0.6,0-1,0.5-1,1v0.6C0,11.7,0.5,12.1,1,12.1z M20.5,17.1h-7v-2.2h7L20.5,17.1L20.5,17.1z M20.5,20.1h-6.9c0,0-0.1,0-0.1-0.1v-2h7
		L20.5,20.1C20.5,20,20.5,20.1,20.5,20.1z M20.5,12.2v1.7h-7v-1.7c0,0,0-0.1,0.1-0.1L20.5,12.2C20.5,12.1,20.5,12.2,20.5,12.2z
		 M3.4,7.3V1c0,0,0-0.1,0.1-0.1h11.1c0,0,0.1,0,0.1,0.1v6.4c0,0,0,0.1-0.1,0.1H9.7H8.2L3.4,7.3C3.4,7.4,3.4,7.4,3.4,7.3z M8.2,9.5
		V8.4c0,0,0-0.1,0.1-0.1h1.5c0,0,0.1,0,0.1,0.1v1.1c0,0,0,0.1-0.1,0.1L8.2,9.5C8.2,9.5,8.2,9.5,8.2,9.5z M1,10.5
		C1,10.5,1,10.4,1,10.5l7.3-0.1h1.5h12.6c0,0,0.1,0,0.1,0.1v0.6c0,0,0,0.1-0.1,0.1h-1.9h-6.8H1c0,0-0.1,0-0.1-0.1L1,10.5L1,10.5z"/>
	<path class="st0" d="M16.4,13.5h1.4c0.3,0,0.5-0.2,0.5-0.5c0-0.3-0.2-0.5-0.5-0.5h-1.4c-0.3,0-0.5,0.2-0.5,0.5
		C15.9,13.3,16.1,13.5,16.4,13.5z"/>
	<path class="st0" d="M16.4,16.5h1.4c0.3,0,0.5-0.2,0.5-0.5s-0.2-0.5-0.5-0.5h-1.4c-0.3,0-0.5,0.2-0.5,0.5
		C15.9,16.3,16.1,16.5,16.4,16.5z"/>
	<path class="st0" d="M17.7,18.6h-1.4c-0.3,0-0.5,0.2-0.5,0.5c0,0.3,0.2,0.5,0.5,0.5h1.4c0.3,0,0.5-0.2,0.5-0.5
		C18.2,18.8,18,18.6,17.7,18.6z"/>
</g>
</svg>
