<?xml version="1.0" encoding="utf-8"?>
<!-- Generator: Adobe Illustrator 22.0.1, SVG Export Plug-In . SVG Version: 6.00 Build 0)  -->
<svg version="1.1" id="Layer_1" xmlns="http://www.w3.org/2000/svg" xmlns:xlink="http://www.w3.org/1999/xlink" x="0px" y="0px"
	 viewBox="0 0 23.6 12.6" style="enable-background:new 0 0 23.6 12.6;" xml:space="preserve">
<style type="text/css">
	.st0{fill:#009EE1;}
</style>
<g>
	<path class="st0" d="M22.8,0H0.8C0.4,0,0,0.4,0,0.8v5.1c0,0.5,0.4,0.8,0.8,0.8H1L2.5,9v0.7c0,0.7,0.6,1.2,1.2,1.2h0.3
		c1.3,1,4.3,1.7,7.7,1.7s6.4-0.7,7.7-1.7h0.3c0.7,0,1.2-0.6,1.2-1.2V9l1.5-2.3h0.2c0.5,0,0.8-0.4,0.8-0.8V0.8
		C23.6,0.4,23.2,0,22.8,0z M2,6.7h1.8v1.7H3.1L2,6.7z M5.5,6.7v1.7H4.6V6.7H5.5z M7.2,6.7v1.7H6.3V6.7H7.2z M8.9,6.7v1.7H8V6.7H8.9z
		 M10.6,6.7v1.7H9.7V6.7H10.6z M12.2,6.7v1.7h-0.9V6.7H12.2z M13.9,6.7v1.7H13V6.7H13.9z M15.6,6.7v1.7h-0.9V6.7H15.6z M17.3,6.7
		v1.7h-0.9V6.7H17.3z M19,6.7v1.7h-0.9V6.7H19z M19.8,10.1h-4.2c-0.2,0-0.4,0.2-0.4,0.4c0,0.2,0.2,0.4,0.4,0.4h2.3
		c-1.5,0.5-3.7,0.9-6.1,0.9s-4.6-0.3-6.1-0.9h8.2c0.2,0,0.4-0.2,0.4-0.4c0-0.2-0.2-0.4-0.4-0.4H3.8c-0.2,0-0.4-0.2-0.4-0.4V9.2h16.9
		v0.4C20.3,9.9,20.1,10.1,19.8,10.1z M20.4,8.4h-0.7V6.7h1.8L20.4,8.4z M22.8,5.9C22.8,5.9,22.8,5.9,22.8,5.9l-22,0c0,0,0,0,0,0V0.8
		c0,0,0,0,0,0h21.9c0,0,0,0,0,0V5.9z"/>
	<path class="st0" d="M13,2.7c-0.2,0-0.4,0.2-0.3,0.5c0,0,0,0.1,0,0.1c0,0.5-0.4,0.9-0.9,0.9c-0.5,0-0.9-0.4-0.9-0.9
		s0.4-0.9,0.9-0.9c0,0,0.1,0,0.1,0c0.2,0,0.4-0.1,0.4-0.3S12.3,1.7,12,1.7c-0.1,0-0.2,0-0.2,0c-0.9,0-1.7,0.7-1.7,1.7S10.9,5,11.8,5
		c0.9,0,1.7-0.7,1.7-1.7c0-0.1,0-0.2,0-0.3C13.4,2.9,13.2,2.7,13,2.7z"/>
</g>
</svg>
