<?xml version="1.0" encoding="utf-8"?>
<!-- Generator: Adobe Illustrator 22.0.1, SVG Export Plug-In . SVG Version: 6.00 Build 0)  -->
<svg version="1.1" id="Layer_1" xmlns="http://www.w3.org/2000/svg" xmlns:xlink="http://www.w3.org/1999/xlink" x="0px" y="0px"
	 viewBox="0 0 31 18.2" style="enable-background:new 0 0 31 18.2;" xml:space="preserve">
<style type="text/css">
	.st0{fill:none;stroke:#1C9DD8;stroke-width:1.2398;stroke-linecap:round;stroke-linejoin:round;stroke-miterlimit:10;}
</style>
<g>
	<g>
		<path class="st0" d="M23.7,9.7c0,4.4-3.6,8-7.9,8c-4.4,0-8-3.6-8-8c0-4.4,3.6-8,8-8C20.2,1.7,23.7,5.3,23.7,9.7z"/>
		<path class="st0" d="M19,9.7c0,1.8-1.5,3.2-3.2,3.2c-1.8,0-3.2-1.5-3.2-3.2c0-1.8,1.4-3.2,3.2-3.2C17.6,6.4,19,7.9,19,9.7z"/>
	</g>
	<g>
		<path class="st0" d="M6.3,0.6v3.9c0,1.3-1.1,2.4-2.4,2.4H3c-1.3,0-2.4-1.1-2.4-2.4V0.6"/>
		<line class="st0" x1="3.4" y1="0.6" x2="3.4" y2="17.6"/>
	</g>
	<path class="st0" d="M30.4,17.6v-17c0,0-4.4,1.3-3.6,10.3l3.6,0.1"/>
</g>
</svg>
