<?xml version="1.0" encoding="utf-8"?>
<!-- Generator: Adobe Illustrator 22.0.1, SVG Export Plug-In . SVG Version: 6.00 Build 0)  -->
<svg version="1.1" id="Layer_1" xmlns="http://www.w3.org/2000/svg" xmlns:xlink="http://www.w3.org/1999/xlink" x="0px" y="0px"
	 viewBox="0 0 22.5 26" style="enable-background:new 0 0 22.5 26;" xml:space="preserve">
<style type="text/css">
	.st0{fill:#009EE1;stroke:#009EE1;stroke-width:0.4789;stroke-miterlimit:10;}
</style>
<g>
	<path class="st0" d="M4.4,15.5c0.2,0.1,0.5,0,0.6-0.2c0.1-0.2,0-0.5-0.2-0.6c-0.1,0-1.4-0.8-1.8-3.1c0-0.2-0.2-0.3-0.4-0.4
		c-0.2,0-0.4,0.1-0.4,0.3c-0.9,2.3,0.8,4.9,0.9,5c0.1,0.1,0.2,0.2,0.4,0.2c0.1,0,0.2,0,0.2-0.1c0.2-0.1,0.3-0.4,0.1-0.6
		c0,0-0.7-1.1-1-2.4C3.4,14.9,4.4,15.4,4.4,15.5L4.4,15.5z"/>
	<path class="st0" d="M6.4,16.4c0.2,0,0.4-0.3,0.3-0.5c0-0.2-0.3-0.4-0.5-0.3c-0.9,0.2-2.4,1.1-2.4,3.4c0,1.6,0.4,2.8,0.6,3.4
		C3.5,22.5,3,23.1,3,23.9c0,1,0.9,1.6,2.1,1.6h0.4c0.7,0,1.1-0.5,1.1-0.6c0.1-0.2,0.1-0.5-0.1-0.6c-0.2-0.1-0.5-0.1-0.6,0.1
		c0,0-0.2,0.3-0.5,0.3H5.1c-0.6,0-1.2-0.3-1.2-0.9c0-0.2,0-0.9,1.2-0.9c0.2,0,0.3-0.1,0.4-0.2s0.1-0.3,0-0.4c0,0-0.8-1.1-0.8-3.5
		C4.6,16.7,6.3,16.4,6.4,16.4L6.4,16.4z"/>
	<path class="st0" d="M18.1,22.2c0.3-0.7,0.6-1.7,0.6-3.4c0-2.2-1.5-3.2-2.4-3.4c-0.2,0-0.5,0.1-0.5,0.3c0,0.2,0.1,0.5,0.3,0.5
		c0.1,0,1.7,0.4,1.7,2.5c0,2.3-0.8,3.4-0.8,3.5c-0.1,0.1-0.1,0.3,0,0.4c0.1,0.1,0.2,0.2,0.4,0.2c1.2,0,1.2,0.7,1.2,0.9
		c0,0.6-0.7,0.9-1.2,0.9H17c-0.3,0-0.5-0.3-0.5-0.3c-0.1-0.2-0.4-0.2-0.6-0.1s-0.2,0.4-0.1,0.6c0,0.1,0.5,0.6,1.1,0.6h0.4
		c1.2,0,2.1-0.7,2.1-1.6C19.5,23,19.1,22.4,18.1,22.2L18.1,22.2z"/>
	<g>
		<path class="st0" d="M13.8,22.2l0.8-4.5c0-0.2-0.1-0.5-0.4-0.5c-0.2,0-0.5,0.1-0.5,0.4l-0.8,4.6l0,0c-0.2,0-0.4,0.2-0.4,0.4
			c0,0.2,0.2,0.4,0.4,0.4h0.4c1.2,0,1.2,0.7,1.2,0.9c0,0.6-0.7,0.9-1.2,0.9h-0.4c-0.7,0-1.2-0.6-1.2-1.2v-5.8c0-0.2-0.2-0.4-0.4-0.4
			s-0.4,0.2-0.4,0.4v5.8c0,0.7-0.6,1.2-1.2,1.2H9.2c-0.6,0-1.2-0.3-1.2-0.9c0-0.2,0-0.9,1.2-0.9h0.4c0.2,0,0.4-0.2,0.4-0.4
			c0-0.2-0.2-0.4-0.4-0.4l0,0l-0.8-4.6c0-0.2-0.3-0.4-0.5-0.4c-0.2,0-0.4,0.3-0.4,0.5l0.8,4.5c-1,0.1-1.6,0.8-1.6,1.6
			c0,1,0.9,1.6,2.1,1.6h0.4c0.7,0,1.2-0.3,1.6-0.9c0.4,0.5,1,0.9,1.6,0.9h0.4c1.2,0,2.1-0.7,2.1-1.6C15.4,22.9,14.8,22.3,13.8,22.2
			L13.8,22.2z"/>
		<path class="st0" d="M21.6,4.1c-1-1.8-3.1-3.5-4.5-3.5c-0.8,0-2.2,1.2-2.9,1.9c-0.8-0.7-1.8-1.1-3-1.1s-2.2,0.4-3,1.1
			C7.7,1.8,6.2,0.6,5.5,0.6C4,0.6,1.8,2.3,1,4.1C0.7,4.7,0.5,5.4,0.5,5.9c0,1.1,1,2.1,2.1,2.1c1.1,0,1.5-0.7,1.8-1.2
			c0-0.1,0.1-0.1,0.1-0.2l1.7-2.5c0.1-0.2,0.1-0.5-0.1-0.6C5.9,3.4,5.6,3.4,5.6,3.6L3.8,6.1c0,0.1-0.1,0.2-0.1,0.2
			C3.3,6.9,3.2,7.2,2.6,7.2c-0.7,0-1.2-0.6-1.2-1.2c0-0.5,0.2-1.1,0.4-1.4c0.9-1.6,2.8-3.1,3.7-3.1c0.4,0,1.4,0.9,2.3,1.7
			c-1.5,1.7-2.3,4.8-2.3,7.8c0,3.8,1.7,5.4,5.8,5.4s5.8-1.5,5.8-5.4c0-3.1-0.8-6-2.3-7.9c0.9-0.9,1.9-1.7,2.3-1.7c1,0,3,1.4,3.7,3.1
			c0.2,0.5,0.4,1.1,0.4,1.4c0,0.7-0.6,1.2-1.2,1.2c-0.6,0-0.9-0.3-1.2-0.9L17,3.5c-0.2-0.1-0.4-0.1-0.6,0c-0.2,0.1-0.3,0.4-0.1,0.6
			l1.7,2.7C18.5,7.4,19,8,20,8c1.1,0,2.1-1,2.1-2.1C22,5.4,21.8,4.7,21.6,4.1L21.6,4.1z M16.3,10.9c0,3.4-1.3,4.6-5,4.6
			s-5-1.1-5-4.6c0-4.3,1.5-8.7,5-8.7S16.3,6.6,16.3,10.9L16.3,10.9z"/>
	</g>
	<path class="st0" d="M13.4,12.8C13.3,12.9,13,13,12.9,13c-0.5,0-1-0.4-1.1-0.9c0.7-0.2,1.1-0.6,1.1-1.1c0-0.7-0.8-1.2-1.6-1.2
		c-1,0-1.6,0.6-1.6,1.2c0,0.6,0.5,1.1,1.1,1.1c-0.2,0.5-0.8,0.9-1.2,0.9c-0.1,0-0.4-0.1-0.5-0.2c-0.1-0.2-0.4-0.3-0.6-0.2
		S8.2,13,8.3,13.2c0.3,0.6,1.1,0.7,1.1,0.7c0.7,0,1.2-0.4,1.6-0.9c0.4,0.5,1.1,0.9,1.6,0.9c0.1,0,0.9,0,1.2-0.7
		c0.1-0.2,0-0.5-0.2-0.6C13.8,12.5,13.5,12.6,13.4,12.8L13.4,12.8z M11.3,11.4c-0.5,0-0.9-0.3-0.9-0.4c0-0.2,0.3-0.4,0.9-0.4
		c0.5,0,0.9,0.3,0.9,0.4S11.8,11.4,11.3,11.4L11.3,11.4z"/>
	<path class="st0" d="M13.1,8c0.4,0,0.6-0.3,0.6-0.6c0-0.4-0.3-0.7-0.6-0.7c-0.4,0-0.7,0.3-0.7,0.7C12.5,7.7,12.8,8,13.1,8L13.1,8z"
		/>
	<path class="st0" d="M9.4,8C9.8,8,10,7.7,10,7.4c0-0.4-0.3-0.7-0.6-0.7c-0.3,0-0.6,0.3-0.6,0.7C8.8,7.7,9.1,8,9.4,8L9.4,8z"/>
</g>
</svg>
