<?xml version="1.0" encoding="utf-8"?>
<!-- Generator: Adobe Illustrator 22.0.1, SVG Export Plug-In . SVG Version: 6.00 Build 0)  -->
<svg version="1.1" id="Layer_1" xmlns="http://www.w3.org/2000/svg" xmlns:xlink="http://www.w3.org/1999/xlink" x="0px" y="0px"
	 viewBox="0 0 20 24" style="enable-background:new 0 0 20 24;" xml:space="preserve">
<style type="text/css">
	.st0{fill:#009EE1;}
</style>
<g transform="translate(1 1)">
	<path class="st0" d="M3.8,10.6C1.2,10.6-1,8.4-1,5.8S1.2,1,3.8,1s4.8,2.2,4.8,4.8S6.4,10.6,3.8,10.6z M3.8,1.8c-2.2,0-4,1.8-4,4
		s1.8,4,4,4s4-1.8,4-4S6,1.8,3.8,1.8z"/>
	<path class="st0" d="M3.8,5.8c-0.9,0-1.6-0.7-1.6-1.6s0.7-1.6,1.6-1.6s1.6,0.7,1.6,1.6S4.7,5.8,3.8,5.8z M3.8,3.4
		C3.4,3.4,3,3.8,3,4.2C3,4.6,3.4,5,3.8,5s0.8-0.4,0.8-0.8C4.6,3.8,4.2,3.4,3.8,3.4z"/>
	<path class="st0" d="M4.2,23c0,0-0.1,0-0.1,0c-0.2,0-0.3-0.2-0.3-0.4V10.2C3.8,10,4,9.8,4.2,9.8c0.5,0,1-0.2,1.4-0.4
		c0.1-0.1,0.3,0,0.4,0c0.1,0.1,0.2,0.2,0.2,0.4v10.5c0,0.1,0,0.2-0.1,0.2l-1.6,2.4C4.5,22.9,4.3,23,4.2,23z M4.6,10.5v10.8l0.8-1.2
		v-9.8C5.2,10.4,4.9,10.5,4.6,10.5z"/>
	<path class="st0" d="M4.2,23H2.6c-0.1,0-0.2,0-0.3-0.1l-0.8-0.8c-0.2-0.2-0.2-0.4,0-0.6L2,21l-0.5-0.5c-0.2-0.2-0.2-0.4,0-0.6
		L2,19.4l-0.5-0.5c-0.1-0.1-0.1-0.2-0.1-0.3c0-0.1,0-0.2,0.1-0.3L2,17.8l-0.5-0.5c-0.2-0.2-0.2-0.4,0-0.6L2,16.2l-0.5-0.5
		c-0.2-0.2-0.2-0.4,0-0.6L2,14.6l-0.5-0.5c-0.1-0.1-0.1-0.2-0.1-0.3V9.7c0-0.1,0.1-0.3,0.2-0.4s0.3-0.1,0.4,0
		c0.7,0.4,1.4,0.5,2.2,0.4c0.1,0,0.2,0,0.3,0.1s0.1,0.2,0.1,0.3v12.4C4.6,22.8,4.4,23,4.2,23z M2.8,22.2h1V10.6
		c-0.6,0-1.1-0.1-1.6-0.3v3.3l0.7,0.7C3,14.4,3,14.5,3,14.6c0,0.1,0,0.2-0.1,0.3l-0.5,0.5l0.5,0.5c0.2,0.2,0.2,0.4,0,0.6L2.4,17
		l0.5,0.5c0.2,0.2,0.2,0.4,0,0.6l-0.5,0.5l0.5,0.5C3,19.2,3,19.3,3,19.4c0,0.1,0,0.2-0.1,0.3l-0.5,0.5l0.5,0.5
		c0.2,0.2,0.2,0.4,0,0.6l-0.5,0.5L2.8,22.2z"/>
	<path class="st0" d="M11,5.8c-0.9,0-1.6-0.7-1.6-1.6s0.7-1.6,1.6-1.6s1.6,0.7,1.6,1.6S11.9,5.8,11,5.8z M11,3.4
		c-0.4,0-0.8,0.4-0.8,0.8C10.2,4.6,10.6,5,11,5s0.8-0.4,0.8-0.8C11.8,3.8,11.4,3.4,11,3.4z"/>
	<path class="st0" d="M11,3.8c-0.2,0-0.4-0.2-0.4-0.4c0-1.7-1-3.6-3.2-3.6S4.2,1.7,4.2,3.4c0,0.2-0.2,0.4-0.4,0.4S3.4,3.6,3.4,3.4
		c0-2.2,1.4-4.4,4-4.4s4,2.2,4,4.4C11.4,3.6,11.2,3.8,11,3.8z"/>
	<path class="st0" d="M14.5,12.3c-0.3,0-0.6-0.1-0.8-0.4l-2.8-2.8c-0.2-0.2-0.4-0.5-0.4-0.8c0-0.3,0.1-0.6,0.4-0.8l1.7-1.7
		c0.4-0.4,1.2-0.4,1.7,0L17,8.6c0.2,0.2,0.4,0.5,0.4,0.8c0,0.3-0.1,0.6-0.4,0.8L15.4,12C15.1,12.2,14.8,12.3,14.5,12.3z M13.4,6.2
		c-0.1,0-0.2,0-0.3,0.1L11.4,8c-0.1,0.1-0.1,0.2-0.1,0.3c0,0.1,0,0.2,0.1,0.3l2.8,2.8c0.2,0.2,0.4,0.2,0.6,0l1.7-1.7
		c0.1-0.1,0.1-0.2,0.1-0.3c0-0.1,0-0.2-0.1-0.3l-2.8-2.8C13.6,6.2,13.5,6.2,13.4,6.2z"/>
	<path class="st0" d="M14.8,10.1c-0.1,0-0.2,0-0.3-0.1l-1.7-1.7c-0.2-0.2-0.2-0.4,0-0.6s0.4-0.2,0.6,0l1.7,1.7
		c0.2,0.2,0.2,0.4,0,0.6C15,10.1,14.9,10.1,14.8,10.1z"/>
	<path class="st0" d="M14.5,13.9c-0.7,0-1.4-0.3-2-0.8L7.4,8C7.3,7.9,7.3,7.7,7.4,7.6C7.6,7,7.8,6.4,7.8,5.8S7.6,4.5,7.4,3.9
		c-0.1-0.2,0-0.4,0.1-0.5L8.8,2c1.1-1.1,2.9-1.1,4,0l5.4,5.4l0,0c1.1,1.1,1.1,2.9,0,4l-1.7,1.7C16,13.7,15.2,13.9,14.5,13.9z
		 M8.2,7.7l4.9,4.9c0.8,0.8,2,0.8,2.8,0l1.7-1.7c0.4-0.4,0.6-0.9,0.6-1.4s-0.2-1-0.6-1.4l-5.4-5.4c-0.8-0.8-2-0.8-2.8,0L8.2,3.8
		c0.3,0.6,0.4,1.2,0.4,1.9C8.6,6.4,8.5,7.1,8.2,7.7z"/>
</g>
</svg>
