<?xml version="1.0" encoding="utf-8"?>
<!-- Generator: Adobe Illustrator 22.0.1, SVG Export Plug-In . SVG Version: 6.00 Build 0)  -->
<svg version="1.1" id="Layer_1" xmlns="http://www.w3.org/2000/svg" xmlns:xlink="http://www.w3.org/1999/xlink" x="0px" y="0px"
	 viewBox="0 0 22 22" style="enable-background:new 0 0 22 22;" xml:space="preserve">
<style type="text/css">
	.st0{fill:#009EE1;}
</style>
<g>
	<path class="st0" d="M20.5,12.1h0.4c0.6,0,1.1-0.5,1.1-1.1c0-0.6-0.5-1.1-1.1-1.1h-1.1V5.5c0-0.2-0.2-0.4-0.4-0.4h-4V4.4
		C15.4,2,13.4,0,11,0C8.6,0,6.6,2,6.6,4.4v0.7h-4c-0.2,0-0.4,0.2-0.4,0.4v4.4H1.1C0.5,9.9,0,10.4,0,11c0,0.6,0.5,1.1,1.1,1.1h0.4
		v2.2h1.3c-0.4,0.8-0.8,1.9-0.6,3.4c0.2,1.6-0.2,2.2-0.3,2.3c0,0,0,0,0,0l0,0l-1.1,1.5c-0.1,0.1-0.1,0.3,0,0.4C0.8,21.9,1,22,1.1,22
		h0.4c0.6,0,1.1-0.2,1.6-0.7c1-1,1.4-2.8,1.3-3.7c-0.1-2.3,0.9-3.1,1.1-3.2c0,0,0,0,0,0l0.1-0.1h1v1.5h8.8v-1.5h1l0,0.1c0,0,0,0,0,0
		c0.1,0.1,1.1,0.9,1.1,3.2c0,0.9,0.4,2.7,1.3,3.7c0.5,0.5,1,0.7,1.6,0.7h0.4c0.1,0,0.3-0.1,0.3-0.2c0.1-0.1,0.1-0.3,0-0.4L20.1,20h0
		c0,0,0,0,0,0c-0.1-0.1-0.5-0.7-0.3-2.3c0.2-1.4-0.1-2.5-0.6-3.4h1.3V12.1z M15.4,8.1h3.7v1.5h-3.7V8.1z M19.1,5.9v1.5h-3.7V5.9
		H19.1z M7.3,4.4c0-2,1.6-3.7,3.7-3.7s3.7,1.6,3.7,3.7v5.5H7.3V4.4z M2.9,8.1h3.7v1.5H2.9V8.1z M2.9,5.9h3.7v1.5H2.9V5.9z M1.1,11.4
		c-0.2,0-0.4-0.2-0.4-0.4c0-0.2,0.2-0.4,0.4-0.4h19.8c0.2,0,0.4,0.2,0.4,0.4c0,0.2-0.2,0.4-0.4,0.4H1.1z M3.7,17.6
		c0,0.8-0.3,2.3-1.1,3.1c-0.2,0.2-0.4,0.4-0.7,0.4l0.6-0.8c0.2-0.3,0.7-1.1,0.5-2.8c-0.2-1.4,0.2-2.5,0.7-3.2h0.9
		C4.1,14.9,3.6,15.9,3.7,17.6L3.7,17.6z M14.7,15H7.3v-1.5h7.3V15z M19.1,17.5c-0.3,1.8,0.2,2.6,0.5,2.8l0.6,0.8
		c-0.2-0.1-0.5-0.2-0.7-0.4c-0.8-0.8-1.1-2.3-1.1-3.1c0.1-1.7-0.4-2.8-0.9-3.3h0.9C18.8,15,19.3,16.1,19.1,17.5L19.1,17.5z
		 M19.8,13.6h-4.4v-0.7H6.6v0.7H2.2v-1.5h17.6V13.6z M19.8,13.6"/>
	<path class="st0" d="M12.1,13.9H9.9c-0.2,0-0.4,0.2-0.4,0.4c0,0.2,0.2,0.4,0.4,0.4h2.2c0.2,0,0.4-0.2,0.4-0.4
		C12.5,14.1,12.3,13.9,12.1,13.9L12.1,13.9z M12.1,13.9"/>
	<path class="st0" d="M5.1,6.2H4.4C4.2,6.2,4,6.4,4,6.6C4,6.8,4.2,7,4.4,7h0.7c0.2,0,0.4-0.2,0.4-0.4C5.5,6.4,5.3,6.2,5.1,6.2
		L5.1,6.2z M5.1,6.2"/>
	<path class="st0" d="M5.1,8.4H4.4C4.2,8.4,4,8.6,4,8.8C4,9,4.2,9.2,4.4,9.2h0.7c0.2,0,0.4-0.2,0.4-0.4C5.5,8.6,5.3,8.4,5.1,8.4
		L5.1,8.4z M5.1,8.4"/>
	<path class="st0" d="M16.9,7h0.7C17.8,7,18,6.8,18,6.6c0-0.2-0.2-0.4-0.4-0.4h-0.7c-0.2,0-0.4,0.2-0.4,0.4C16.5,6.8,16.7,7,16.9,7
		L16.9,7z M16.9,7"/>
	<path class="st0" d="M17.6,8.4h-0.7c-0.2,0-0.4,0.2-0.4,0.4c0,0.2,0.2,0.4,0.4,0.4h0.7C17.8,9.2,18,9,18,8.8
		C18,8.6,17.8,8.4,17.6,8.4L17.6,8.4z M17.6,8.4"/>
	<path class="st0" d="M8.8,6.6c0.1,0,0.2,0,0.3-0.1l3.7-3.7c0.1-0.1,0.1-0.4,0-0.5c-0.1-0.1-0.4-0.1-0.5,0L8.5,6
		c-0.1,0.1-0.1,0.4,0,0.5C8.6,6.6,8.7,6.6,8.8,6.6L8.8,6.6z M8.8,6.6"/>
	<path class="st0" d="M9,4.8c0.1,0,0.2,0,0.3-0.1L10.9,3c0.1-0.1,0.1-0.4,0-0.5c-0.1-0.1-0.4-0.1-0.5,0L8.7,4.1
		c-0.1,0.1-0.1,0.4,0,0.5C8.8,4.7,8.9,4.8,9,4.8L9,4.8z M9,4.8"/>
	<path class="st0" d="M11.8,4.5l-1.1,1.1c-0.1,0.1-0.1,0.4,0,0.5c0.1,0.1,0.2,0.1,0.3,0.1c0.1,0,0.2,0,0.3-0.1L12.4,5
		c0.1-0.1,0.1-0.4,0-0.5C12.2,4.4,12,4.4,11.8,4.5L11.8,4.5z M11.8,4.5"/>
	<path class="st0" d="M10,6.3C9.9,6.4,9.9,6.5,9.9,6.6c0,0.1,0,0.2,0.1,0.3C10.1,6.9,10.2,7,10.3,7c0.1,0,0.2,0,0.3-0.1
		c0.1-0.1,0.1-0.2,0.1-0.3c0-0.1,0-0.2-0.1-0.3C10.4,6.2,10.1,6.2,10,6.3L10,6.3z M10,6.3"/>
</g>
</svg>
