<?xml version="1.0" encoding="utf-8"?>
<!-- Generator: Adobe Illustrator 22.0.1, SVG Export Plug-In . SVG Version: 6.00 Build 0)  -->
<svg version="1.1" id="Layer_1" xmlns="http://www.w3.org/2000/svg" xmlns:xlink="http://www.w3.org/1999/xlink" x="0px" y="0px"
	 viewBox="0 0 24.7 19.7" style="enable-background:new 0 0 24.7 19.7;" xml:space="preserve">
<style type="text/css">
	.st0{fill:#009EE1;}
</style>
<g>
	<path class="st0" d="M18.1,1.5L6.6,0C6.4,0,6.2,0,5.9,0C2.7,0,0,2.7,0,5.9v0.1c0,2.2,1.2,4.2,3,5.2l1.6,6.4
		c0.2,0.7,0.6,1.3,1.2,1.7c0.4,0.3,0.9,0.4,1.4,0.4c0.2,0,0.4,0,0.7-0.1l0,0c0.7-0.2,1.3-0.6,1.7-1.2c0.4-0.6,0.5-1.4,0.3-2.1
		l-1.1-4.6l9.3-1.2c0.3,0,0.4-0.2,0.4-0.5V2C18.5,1.7,18.4,1.5,18.1,1.5L18.1,1.5z M9,16.6c0.1,0.4,0,0.9-0.2,1.3
		c-0.2,0.4-0.6,0.7-1.1,0.8l0,0c-0.4,0.1-0.9,0-1.3-0.2c-0.4-0.2-0.7-0.6-0.8-1.1l-1.4-5.7C4.7,11.9,5.3,12,5.9,12
		c0.2,0,0.5,0,0.7,0l1.2-0.1L9,16.6z M17.5,9.6L6.5,11c-0.2,0-0.4,0-0.6,0C3.2,11,1,8.8,1,6.1V5.9C1,3.2,3.2,1,5.9,1
		c0.2,0,0.4,0,0.6,0l11,1.4V9.6z M17.5,9.6"/>
	<g>
		<path class="st0" d="M2.8,6c0,1.9,1.5,3.4,3.4,3.4c1.9,0,3.4-1.5,3.4-3.4c0-1.9-1.5-3.4-3.4-3.4C4.4,2.6,2.8,4.1,2.8,6L2.8,6z
			 M8.6,6c0,1.3-1.1,2.4-2.4,2.4C4.9,8.4,3.9,7.3,3.9,6c0-1.3,1.1-2.4,2.4-2.4C7.5,3.6,8.6,4.7,8.6,6L8.6,6z M8.6,6"/>
		<path class="st0" d="M19.8,4.4c0.3,0,0.4,0.2,0.7,0.5c0.3,0.4,0.7,0.9,1.5,0.9c0.8,0,1.2-0.5,1.5-0.9c0.3-0.3,0.4-0.5,0.7-0.5
			c0.3,0,0.5-0.2,0.5-0.5c0-0.3-0.2-0.5-0.5-0.5c-0.8,0-1.2,0.5-1.5,0.9c-0.3,0.3-0.4,0.5-0.7,0.5c-0.3,0-0.4-0.2-0.7-0.5
			c-0.3-0.4-0.7-0.9-1.5-0.9c-0.3,0-0.5,0.2-0.5,0.5C19.3,4.2,19.5,4.4,19.8,4.4L19.8,4.4z M19.8,4.4"/>
		<path class="st0" d="M24.2,6.5c-0.8,0-1.2,0.5-1.5,0.9c-0.3,0.3-0.4,0.5-0.7,0.5c-0.3,0-0.4-0.2-0.7-0.5C21,7,20.6,6.5,19.8,6.5
			c-0.3,0-0.5,0.2-0.5,0.5c0,0.3,0.2,0.5,0.5,0.5c0.3,0,0.4,0.2,0.7,0.5c0.3,0.4,0.7,0.9,1.5,0.9c0.8,0,1.2-0.5,1.5-0.9
			c0.3-0.3,0.4-0.5,0.7-0.5c0.3,0,0.5-0.2,0.5-0.5C24.7,6.7,24.5,6.5,24.2,6.5L24.2,6.5z M24.2,6.5"/>
	</g>
</g>
</svg>
