<?xml version="1.0" encoding="UTF-8"?>
<svg width="59px" height="44px" viewBox="0 0 59 44" version="1.1" xmlns="http://www.w3.org/2000/svg" xmlns:xlink="http://www.w3.org/1999/xlink">
    <!-- Generator: Sketch 49.3 (51167) - http://www.bohemiancoding.com/sketch -->
    <title>Group</title>
    <desc>Created with Sketch.</desc>
    <defs></defs>
    <g id="End-Desing" stroke="none" stroke-width="1" fill="none" fill-rule="evenodd">
        <g id="Become-a-Host-Page-V1-Copy" transform="translate(-340.000000, -1982.000000)">
            <g id="1.-Apply-and-get-approved-Copy-3" transform="translate(340.000000, 1980.000000)">
                <g id="Group" transform="translate(0.000000, 2.000000)">
                    <path d="M47.5756937,29.7551208 L45.974682,28.1918558 C45.8075862,28.0263785 45.6195062,27.8971232 45.4236542,27.7846444 L37.807191,20.3114754 C38.8641696,21.3485682 38.8641696,23.0338441 37.807191,24.0709369 C37.3700215,24.4998816 36.8154964,24.7503853 36.2411529,24.8216854 C35.4437558,24.9212006 34.8492054,25.5038027 34.7485592,26.286579 C34.675892,26.8516421 34.4209736,27.3980223 33.9834156,27.8303985 C33.5427488,28.2597244 32.9855034,28.5102281 32.4096055,28.5815282 C31.6122085,28.6802808 31.0180466,29.2632643 30.9170119,30.0460406 C30.843956,30.6091972 30.5890377,31.153671 30.1518682,31.5826156 C29.71159,32.0146105 29.1562877,32.2666394 28.5823328,32.3387021 C27.7973707,32.4370734 27.1830019,32.9987049 27.0963452,33.770424 C27.0920707,33.8062647 27.0874075,33.8421054 27.0819672,33.8775648 L27.4705623,36.8897095 L27.5638251,36.973592 L27.5638251,36.9739732 L27.8202978,36.7223257 C28.3487871,36.2037793 29.0482582,35.9441248 29.7399575,35.9441248 C30.2606748,35.9441248 30.7813922,36.0890128 31.2321625,36.3787887 C31.2399344,36.3864144 31.2554782,36.3944214 31.2632501,36.4016658 C31.4031443,36.4935552 31.5274947,36.5999335 31.6518452,36.7223257 C31.7684237,36.8363297 31.8694584,36.9583406 31.9627212,37.0879772 C32.4270923,37.7422608 32.5522199,38.5620217 32.3431558,39.3078134 L32.3435444,39.3074321 C32.3435444,39.3074321 32.3513163,39.3074321 32.3513163,39.2998065 L32.9497527,38.4072203 L33.2050596,38.24975 C33.2171061,38.261951 33.2252666,38.2768211 33.237313,38.2886409 L34.8305528,39.8519059 C34.9549032,39.9662911 35.0796422,40.0730507 35.2191479,40.1569332 C36.2683545,40.8661217 37.729472,40.7669878 38.6621001,39.8519059 C39.1905894,39.3333595 39.4470622,38.6546737 39.4470622,37.9683623 C39.4470622,37.4662111 39.3009504,36.9724481 39.0110585,36.5370216 C40.0548248,37.2008373 41.4743626,37.0929339 42.3887268,36.1957723 C42.9168275,35.6772259 43.1736888,34.9985402 43.1736888,34.3122287 C43.1736888,33.7860566 43.0182508,33.2675102 42.6996028,32.8175949 C42.6362618,32.7165546 42.5534911,32.6273341 42.4703318,32.5365885 L42.6405364,32.4317354 L43.7441464,33.5145823 C43.8684968,33.6289676 43.9928472,33.7357271 44.1327414,33.8196096 C45.1819481,34.5287981 46.6430656,34.4296642 47.5756937,33.5145823 C48.104183,32.9960359 48.3606557,32.3173501 48.3606557,31.6310387 C48.3606557,31.1048666 48.2052177,30.5863202 47.8865698,30.1364049 C47.8010788,29.9991426 47.7000441,29.8771317 47.5756937,29.7551208" id="Fill-34" fill="#28A5F3"></path>
                    <path d="M49.6010275,13.5409836 L45.9362271,17.3130373 C43.4636814,19.8576829 39.7699119,20.4125333 36.7540984,18.996174 L47.6664824,29.9836066 C52.7090159,25.7345286 52.207509,21.8625786 55.1311475,19.7059024 L49.6010275,13.5409836" id="Fill-35" fill="#5ABFFF"></path>
                    <path d="M55.7493822,15.2125376 C56.4052321,15.6723517 57.3101007,15.5134036 57.7699147,14.8571752 C58.2297287,14.2013253 58.0707807,13.2968351 57.4145523,12.8366427 C56.7587023,12.3768287 55.8538337,12.5357767 55.3940197,13.1920051 C54.9342057,13.8482335 55.0931538,14.7527236 55.7493822,15.2125376" id="Fill-36" fill="#222B43"></path>
                    <path d="M51.8339515,23.1730972 C50.9690439,24.9059026 49.9789728,26.8543924 47.6423273,28.9248074 L47.3412372,28.6253959 C47.3392997,28.6234667 47.3365872,28.622695 47.3346496,28.6207658 L32.9199111,14.2679204 C31.8860521,13.2273111 30.1845247,13.2037749 29.1281905,14.2142887 C27.8874047,15.3961152 26.1006265,17.0922659 25.0532049,18.0861886 L24.2053475,18.8910499 C23.8868197,19.1954773 23.4578534,19.3710343 23.0234621,19.3471122 C22.5782207,19.3370804 22.1666922,19.1572792 21.860952,18.837804 L21.5125864,18.4758865 C21.4726736,18.431515 21.4300482,18.390616 21.3626226,18.2891402 C20.8654558,17.6312837 20.944119,16.6990954 21.5428117,16.1238086 L29.3324048,8.70797243 C29.6714702,8.38386721 30.0353359,8.08368404 30.4205143,7.81089547 C32.4580071,6.34084678 35.2054061,5.92105335 37.770291,6.68964574 C40.6362661,7.55392633 42.8442604,7.84523519 44.3555236,7.56048561 L54.6235884,19.290008 C53.2595764,20.3375623 52.5624578,21.7146237 51.8339515,23.1730972 Z M46.6716313,32.8522682 C45.9481625,33.5710873 44.6674638,33.5680005 43.9513576,32.8545832 L42.8779732,31.7761617 C42.8093851,31.6939778 42.7520346,31.6052348 42.6749214,31.5280668 L37.6869778,26.5626977 C37.6497775,26.5256571 37.6028896,26.5071368 37.5606517,26.4789705 C37.5176388,26.4504183 37.4788885,26.4129919 37.4323881,26.3940858 C37.3843377,26.3747938 37.3327997,26.3740221 37.2824243,26.3643761 C37.2351489,26.3555018 37.189036,26.3369815 37.1409855,26.3369815 C37.0952601,26.3369815 37.0518598,26.3543443 37.0069094,26.3624469 C36.9538214,26.3713212 36.8995709,26.3724788 36.8491955,26.3929283 C36.8050201,26.4106769 36.7685948,26.44656 36.7275194,26.472797 C36.682569,26.5013492 36.6329686,26.5214128 36.5934433,26.5603826 C36.5930557,26.5607685 36.5930557,26.5615401 36.5926682,26.561926 C36.5922807,26.5623118 36.5915057,26.5623118 36.5911182,26.5626977 C36.5581804,26.5958799 36.5426803,26.6375505 36.5167176,26.6745911 C36.4837798,26.7216636 36.4427044,26.7652634 36.4217793,26.8169659 C36.4051166,26.8574791 36.4058916,26.9010789 36.3965915,26.9435213 C36.3845789,26.9979247 36.3644288,27.0511705 36.3644288,27.1067314 C36.3644288,27.1611348 36.3838039,27.2132231 36.3950415,27.2668548 C36.4043416,27.3100689 36.4035666,27.3552121 36.4206167,27.3964969 C36.4411544,27.4474277 36.4810673,27.4902559 36.5132301,27.5369425 C36.5391928,27.5747548 36.5550804,27.617583 36.5887932,27.6515369 L41.7817261,32.8673159 C42.3157058,33.6154588 42.2513802,34.6603123 41.5786743,35.3309015 C40.8280803,36.0767293 39.6066696,36.0767293 38.855688,35.3309015 L33.7600185,30.2559538 C33.4569908,29.9546132 32.9667991,29.9546132 32.6641589,30.2559538 C32.3611313,30.5576804 32.3611313,31.0457674 32.6641589,31.3471081 L35.07908,33.7524319 C35.0794675,33.7528177 35.0794675,33.7532035 35.079855,33.7535894 L37.6765152,36.3391002 C38.0376684,36.6987027 38.2364576,37.1802304 38.2364576,37.6941687 C38.2364576,38.2088787 38.0376684,38.6904064 37.6765152,39.0496231 C36.9259212,39.7973801 35.704123,39.7973801 34.9535289,39.0496231 L31.9864155,36.0956354 C31.9507652,36.0601382 31.9058148,36.0423896 31.8651269,36.0153808 C31.7089631,35.8625884 31.5617118,35.7387339 31.4074854,35.6337855 C31.4067104,35.6337855 31.4059354,35.6330138 31.4051604,35.6322421 C31.3881103,35.6187378 31.3698976,35.6060051 31.3516849,35.5936582 C30.4325269,34.9944494 29.2576166,34.9057063 28.2400327,35.2668521 C28.1838447,34.4635341 27.8626044,33.6752639 27.2472491,33.0625507 C26.5927558,32.4104819 25.7200982,32.052037 24.7897026,32.052037 C24.3855365,32.052037 23.9968706,32.1315199 23.6279674,32.2615478 C23.5717794,31.424276 23.234264,30.6441084 22.6359588,30.048758 C21.981853,29.397075 21.1091954,29.0382442 20.1791873,29.0382442 C19.2480166,29.0382442 18.375359,29.397075 17.7216408,30.048758 L17.5542393,30.2154407 C17.4174506,29.565301 17.0989229,28.9687931 16.6180311,28.4903521 C15.9643129,27.8386691 15.0916553,27.4798383 14.1608722,27.4798383 C13.2304765,27.4798383 12.3578189,27.8386691 11.7048757,28.4895804 L11.5332117,28.6601215 L11.2898596,28.4533115 C10.249413,27.5685814 10.1874124,27.5153355 9.68792057,27.01876 C8.15960722,25.5047256 7.21138643,23.8270952 6.55456819,22.5326035 C6.31082856,22.0545483 6.08956412,21.5919267 5.87837478,21.1520696 C5.49358391,20.3475942 5.1258432,19.5886478 4.71741463,18.9361931 L14.6847768,7.55006794 C16.1111767,7.82517154 18.1568071,7.58363598 20.7596674,6.83124885 C20.9274563,6.78996402 21.0948578,6.74019072 21.2614842,6.69041742 C23.6864804,5.96272402 26.2660905,6.30997962 28.2628954,7.59096693 C28.2617329,7.59173861 28.2609579,7.59251029 28.2597954,7.59328197 L20.4690398,15.0110473 C19.3057546,16.1292104 19.1573408,17.9372545 20.087349,19.1638384 C20.1648497,19.2861496 20.2617255,19.3984289 20.3779765,19.5265276 L20.7399047,19.903107 C21.3296848,20.5204503 22.1279418,20.8707926 22.9885868,20.8904704 C23.8596944,20.8935571 24.6610515,20.5949173 25.2787319,20.0049686 L26.1227142,19.2039657 C27.1709109,18.2092714 28.958464,16.5119632 30.2004124,15.3289791 C30.6576664,14.8895079 31.3683476,14.9006972 31.8209515,15.3559879 L46.2434401,29.7165501 C46.2453776,29.7184793 46.2480901,29.7188652 46.2500277,29.7207944 L46.6716313,30.1405878 C47.4222254,30.8883449 47.4222254,32.1045111 46.6716313,32.8522682 Z M30.7960051,39.8394366 L29.2103412,41.4263947 C29.1258655,41.5101219 29.0472023,41.5733996 28.9266887,41.6482524 C28.1919823,42.1583323 27.1108479,42.0506831 26.4834799,41.427938 C25.8305367,40.7770267 25.7379234,39.7530086 26.2881782,38.9554782 C26.3346786,38.8794678 26.4102417,38.7945831 26.4722423,38.727447 L27.2472491,37.9553821 C27.2491866,37.9534529 27.2503491,37.9511378 27.2522866,37.9492087 L28.0730188,37.1327722 C28.4361095,36.7708547 28.9212637,36.5721473 29.4389682,36.5721473 C29.812909,36.5721473 30.1732871,36.6759381 30.4829023,36.8727163 C30.49724,36.8839056 30.5123526,36.8943233 30.5274652,36.9043551 C30.6251161,36.9691762 30.7107543,37.0459583 30.7960051,37.1312288 C30.8793183,37.2145701 30.952944,37.3036991 31.019207,37.3986156 C31.5431116,38.1467585 31.4485608,39.1950846 30.7960051,39.8394366 Z M22.7622849,40.2387805 C22.038816,40.9579855 20.7627674,40.9579855 20.0389111,40.2387805 C19.2902545,39.4925669 19.2894795,38.2794873 20.035811,37.5313444 L23.4284032,34.153705 C23.7899438,33.7933308 24.2727731,33.5953952 24.7897026,33.5953952 C25.3058571,33.5953952 25.7894613,33.7933308 26.1513895,34.153705 C26.9004335,34.899147 26.9012085,36.1099115 26.156427,36.8580544 L25.3686326,37.6420804 C25.3651451,37.6459388 25.3612701,37.6505688 25.357395,37.6548131 L22.7622849,40.2387805 Z M18.8597382,36.520059 C18.1362694,37.238878 16.8578957,37.2381064 16.1375269,36.520059 C15.7759863,36.1596848 15.5768095,35.6781571 15.5768095,35.1642188 C15.5768095,34.7096998 15.739561,34.2868196 16.025151,33.9449658 C16.0794014,33.8971217 16.1402395,33.8596952 16.1921649,33.8083786 L16.6180311,33.3843409 C16.7121945,33.2901961 16.7865951,33.1829327 16.8687458,33.0806852 L18.8175004,31.1399123 C19.1794285,30.779924 19.6622578,30.5816024 20.1791873,30.5816024 C20.6953418,30.5816024 21.178171,30.779924 21.5400992,31.1399123 C21.9016398,31.5002864 22.1008166,31.9810425 22.1008166,32.4957524 C22.1008166,33.0096907 21.9016398,33.4904468 21.5400992,33.8508209 L20.3934767,34.992906 L18.9430515,36.4363318 C18.941889,36.4374893 18.941114,36.4390326 18.9399514,36.4401902 L18.8597382,36.520059 Z M12.3729315,32.7172243 C11.6231125,31.9698531 11.6231125,30.753301 12.3721565,30.0067015 L12.7999603,29.5815063 C13.1615009,29.221518 13.6447177,29.0231965 14.1608722,29.0231965 C14.6778017,29.0231965 15.1606309,29.221518 15.5221716,29.5815063 C15.8840997,29.9418804 16.082889,30.4226365 16.082889,30.9373465 C16.082889,31.3212568 15.9716755,31.6866469 15.7647487,31.9972477 L15.0416674,32.7172243 C15.0017545,32.7569658 14.9734668,32.8040382 14.9358789,32.8453231 C14.196135,33.4244682 13.0475749,33.3874276 12.3729315,32.7172243 Z M58.8090124,17.5595176 C58.526135,17.2377274 58.0363307,17.2053169 57.7154779,17.4850505 L56.2290149,18.7749122 L45.3928702,6.395636 C45.3285446,6.24014266 45.2200437,6.1186032 45.0851925,6.0356477 L50.4792396,1.35348475 C50.8016424,1.07336523 50.8357427,0.58566404 50.5544153,0.264645534 C50.2719253,-0.0571446519 49.782121,-0.0895551742 49.4604932,0.189792661 L43.4778284,5.38280718 C43.2600515,5.5722544 43.1856509,5.85507479 43.2395138,6.11821736 C42.0045406,6.13982438 40.2848005,5.83578281 38.2186325,5.21188026 C35.1941685,4.30670067 31.9395276,4.80944961 29.5168564,6.55691693 C29.5168564,6.55730277 29.5160814,6.55768861 29.5160814,6.55807445 C27.0899227,4.80983545 23.8376068,4.30592899 20.8139178,5.21265194 C20.6709291,5.25548013 20.5279403,5.29792248 20.3570513,5.34152235 C18.4834725,5.88208356 16.9319089,6.14213942 15.7647487,6.11242977 C15.7732738,6.05725471 15.7903239,6.00362302 15.7864489,5.94729044 C15.7721113,5.74318132 15.6775604,5.55334826 15.5221716,5.41830442 L9.53950678,0.226061579 C9.21787897,-0.0525145773 8.72807468,-0.020104055 8.44558471,0.300914452 C8.16425726,0.622704637 8.19835755,1.10924831 8.52076037,1.38975366 L13.9101575,6.06651486 C13.8113441,6.13750934 13.7226058,6.22355156 13.6640928,6.33930343 C13.6578928,6.35203613 13.6590553,6.36554052 13.6536302,6.37827322 L2.77098511,18.8104094 L1.28452212,17.5209336 C0.963669316,17.2423575 0.472315021,17.274768 0.190987562,17.5957865 C-0.0907274003,17.9175767 -0.0566271023,18.404892 0.265775716,18.6846257 L2.33659382,20.4810947 C2.4834576,20.6084217 2.66519669,20.6713136 2.84577327,20.6713136 C3.06161265,20.6713136 3.27667703,20.5814129 3.43012838,20.4066276 L3.64558026,20.160462 C3.91760764,20.6470057 4.18498497,21.1999137 4.47910004,21.814942 C4.69571444,22.2671459 4.92279142,22.7421144 5.1715686,23.2302015 C5.87992479,24.626169 6.90952129,26.4427016 8.59322351,28.1114576 C9.13379073,28.649318 9.24267918,28.7419194 10.2835133,29.6274212 L10.5369405,29.8431055 C10.5586407,29.86124 10.5849909,29.8685709 10.6074661,29.8840045 C9.99792328,31.1684644 10.2126002,32.7477057 11.277072,33.8083786 C11.9319527,34.4596758 12.8046103,34.8185065 13.7346184,34.8185065 C13.8462194,34.8185065 13.9535579,34.7968995 14.0636088,34.7864819 C14.0500462,34.9122655 14.026796,35.0357342 14.026796,35.1642188 C14.026796,36.0902337 14.3871741,36.9591444 15.0416674,37.6112132 C15.6953856,38.2621245 16.5680432,38.6209553 17.4992139,38.6209553 C17.6546027,38.6209553 17.8053415,38.5962616 17.9572429,38.5765838 C17.8696671,39.5624038 18.1878074,40.5775477 18.9430515,41.3299348 C19.5979322,41.981232 20.4705898,42.3400627 21.400598,42.3400627 C22.3309936,42.3400627 23.2032637,41.981232 23.8581444,41.3299348 L24.4502496,40.7407578 C24.5785132,41.3955275 24.8858034,42.0194301 25.3876203,42.519864 C26.040176,43.1673027 26.9143836,43.5245902 27.8505918,43.5245902 C28.558173,43.5245902 29.2363039,43.3135359 29.7749337,42.9396574 C29.9605478,42.8258347 30.1329868,42.6888617 30.3065883,42.5179348 L31.8910897,40.9313625 C32.4037566,40.4255269 32.7149219,39.7931359 32.842023,39.1294918 L33.8576693,40.1411631 C34.5350253,40.8152248 35.4251205,41.1528344 36.3148283,41.1528344 C37.2049236,41.1528344 38.0950189,40.8152248 38.7723748,40.1411631 C39.5280064,39.388776 39.8461467,38.3747897 39.7593459,37.3897413 C39.9116348,37.409805 40.0639236,37.4333412 40.2173749,37.4333412 C41.1074702,37.4333412 41.997178,37.0965032 42.6749214,36.4220557 C43.2143261,35.8845812 43.5293664,35.211677 43.6386423,34.5121499 C44.1590594,34.7976712 44.7317894,34.9554796 45.3099444,34.9554796 C46.2000397,34.9554796 47.090135,34.61787 47.7674909,33.9434224 C48.7827498,32.9332945 49.0373395,31.4478122 48.5316476,30.1992354 C51.1941834,27.8830406 52.3222057,25.6629198 53.2219886,23.8602774 C53.9423574,22.4180092 54.5158624,21.27631 55.6589974,20.4398098 C55.784936,20.5466874 55.9341248,20.6226978 56.1011388,20.634273 C56.1185764,20.6350446 56.1367891,20.6358163 56.1542267,20.6358163 C56.3410034,20.6358163 56.5219674,20.5686802 56.6634062,20.4459833 L58.7342243,18.6483568 C59.0566271,18.3682373 59.0907274,17.8805361 58.8090124,17.5595176 Z" id="Fill-37" fill="#222B43"></path>
                    <path d="M3.25061783,15.2125376 C3.90684623,14.7527236 4.06579428,13.8478551 3.60598027,13.1920051 C3.14616625,12.5357767 2.24129769,12.3768287 1.58544774,12.8366427 C0.929219346,13.2964567 0.770271291,14.2013253 1.23008531,14.8571752 C1.68989932,15.5134036 2.59476789,15.6723517 3.25061783,15.2125376" id="Fill-38" fill="#222B43"></path>
                </g>
            </g>
        </g>
    </g>
</svg>