<svg xmlns="http://www.w3.org/2000/svg" viewBox="0 0 16.08 20.75"><defs><style>.cls-1{fill:#1ea0f2;stroke:#009ee1;stroke-width:0.75px;}</style></defs><title>female</title><g id="Layer_2" data-name="Layer 2"><g id="Layer_1-2" data-name="Layer 1"><path class="cls-1" d="M8,20.38c-2.65,0-7.66-.42-7.66-2v-.74A3,3,0,0,1,1.94,15L5,13.2,5.26,13H2.8a2.46,2.46,0,0,1-1.44-.3,1,1,0,0,1-.48-.64A1.07,1.07,0,0,1,1,11.28,14.22,14.22,0,0,0,3.06,5.39a6.37,6.37,0,0,1,.5-2.21A4.53,4.53,0,0,1,7.93.38c4.4,0,4.55,4.49,4.55,4.53a12.43,12.43,0,0,0,2.4,6.28,1.09,1.09,0,0,1,.15.91,1.06,1.06,0,0,1-.6.69,4.3,4.3,0,0,1-1.85.25H10a1,1,0,0,0,.34.37L14,15a3,3,0,0,1,1.68,2.69v.68c0,1.59-5,2-7.67,2Zm-5.25-8H5.44a.6.6,0,0,1,.37,1.08,3.15,3.15,0,0,1-.45.32L2.27,15.57A2.34,2.34,0,0,0,1,17.63v.74c0,.46,2.47,1.34,7,1.34s7-.88,7-1.34v-.68a2.32,2.32,0,0,0-1.29-2.09L10.09,14a1.61,1.61,0,0,1-.65-.71.64.64,0,0,1,0-.63.65.65,0,0,1,.56-.3h2.58a3.77,3.77,0,0,0,1.56-.2.41.41,0,0,0,.22-.26.43.43,0,0,0-.06-.35,13.18,13.18,0,0,1-2.52-6.64c0-.16-.13-3.86-3.88-3.89A3.91,3.91,0,0,0,4.17,3.46a5.51,5.51,0,0,0-.44,2,14.85,14.85,0,0,1-2.15,6.2.37.37,0,0,0-.05.31.36.36,0,0,0,.17.23,1.93,1.93,0,0,0,1,.21Z"/></g></g></svg>