<?xml version="1.0" encoding="utf-8"?>
<!-- Generator: Adobe Illustrator 22.0.1, SVG Export Plug-In . SVG Version: 6.00 Build 0)  -->
<svg version="1.1" id="Layer_1" xmlns="http://www.w3.org/2000/svg" xmlns:xlink="http://www.w3.org/1999/xlink" x="0px" y="0px"
	 viewBox="0 0 124.7 116.6" style="enable-background:new 0 0 124.7 116.6;" xml:space="preserve">
<style type="text/css">
	.st0{fill-rule:evenodd;clip-rule:evenodd;fill:#B2B2B2;}
</style>
<g>
	<polygon class="st0" points="29.7,0 41.7,0 41.7,28.8 29.7,38.4 29.7,0 	"/>
	<polygon class="st0" points="68.3,36.8 68.3,90.8 56.4,90.8 56.4,36.8 41.7,48.6 41.7,90.8 29.7,90.8 29.7,58.2 25.1,61.9 
		17.7,52.6 29.7,42.9 29.7,42.9 41.7,33.3 41.7,33.3 62.4,16.6 83.1,33.3 83.1,33.3 95,42.9 95,42.9 107.1,52.6 99.6,61.9 95,58.2 
		95,90.8 83.1,90.8 83.1,48.6 68.3,36.8 	"/>
	<polygon class="st0" points="83.1,0 95,0 95,38.5 83.1,28.8 83.1,0 	"/>
	<g>
		<polygon class="st0" points="0,113.1 0.1,101.1 2.7,101.1 2.7,105.8 7.5,105.8 7.5,101.1 10.1,101.2 10.1,113.2 7.4,113.2 
			7.5,108 2.7,108 2.7,113.1 0,113.1 		"/>
		<path class="st0" d="M11.7,108.9c0,0.7,0.1,1.3,0.3,1.9c0.2,0.6,0.5,1.1,0.9,1.5c0.4,0.4,0.9,0.7,1.4,0.9c0.6,0.2,1.2,0.3,1.8,0.3
			c0.7,0,1.3-0.1,1.8-0.3c0.6-0.2,1-0.5,1.4-0.9c0.4-0.4,0.7-0.9,0.9-1.4c0.2-0.6,0.3-1.2,0.3-1.9c0-0.7-0.1-1.3-0.3-1.9
			c-0.2-0.6-0.5-1.1-0.9-1.5c-0.4-0.4-0.9-0.7-1.4-0.9c-0.5-0.2-1.2-0.3-1.8-0.3c-0.7,0-1.3,0.1-1.8,0.3c-0.6,0.2-1,0.5-1.4,0.9
			c-0.4,0.4-0.7,0.9-0.9,1.4C11.8,107.6,11.7,108.2,11.7,108.9L11.7,108.9z M14.1,108.9c0-0.8,0.2-1.5,0.5-2
			c0.3-0.5,0.9-0.8,1.6-0.8c0.5,0,0.8,0.1,1.2,0.4c0.3,0.3,0.6,0.6,0.7,1c0.2,0.4,0.2,0.9,0.2,1.4c0,0.5-0.1,0.9-0.3,1.3
			c-0.2,0.4-0.4,0.8-0.7,1c-0.3,0.3-0.7,0.4-1.2,0.4c-0.7,0-1.3-0.3-1.6-0.8C14.3,110.3,14.1,109.7,14.1,108.9L14.1,108.9z"/>
		<path class="st0" d="M22,113.3l0.1-8.7l2.2,0l0,1.2c0.3-0.4,0.7-0.8,1.2-1c0.5-0.2,1-0.4,1.6-0.4c0.5,0,1,0.1,1.4,0.4
			c0.4,0.2,0.7,0.6,0.9,1.1c0.3-0.4,0.6-0.8,1.1-1c0.5-0.3,1-0.4,1.5-0.4c0.6,0,1.2,0.1,1.7,0.3c0.5,0.2,0.8,0.5,1.1,1
			c0.3,0.5,0.4,1.1,0.4,1.8l0,5.8l-2.4,0l0-4.9c0-0.7-0.1-1.2-0.3-1.6c-0.2-0.4-0.6-0.5-1.2-0.5c-0.6,0-1,0.2-1.2,0.6
			c-0.2,0.4-0.3,0.9-0.3,1.6l0,4.8l-2.4,0l0-4.9c0-0.5,0-0.9-0.1-1.2c-0.1-0.3-0.2-0.5-0.4-0.7c-0.2-0.2-0.5-0.3-1-0.3
			c-0.4,0-0.7,0.1-1.1,0.4c-0.4,0.3-0.5,0.8-0.5,1.5l0,5.1L22,113.3L22,113.3z"/>
		<path class="st0" d="M44.9,109.6l-6.2,0c0,0.7,0.2,1.3,0.5,1.7c0.4,0.4,0.9,0.6,1.6,0.6c0.3,0,0.6-0.1,0.9-0.2
			c0.3-0.1,0.5-0.3,0.7-0.4c0.2-0.2,0.3-0.4,0.3-0.5l2.1,0c-0.3,1-0.8,1.7-1.5,2.2c-0.7,0.5-1.5,0.7-2.5,0.7c-0.9,0-1.7-0.2-2.3-0.6
			c-0.7-0.4-1.2-0.9-1.5-1.6c-0.4-0.7-0.5-1.5-0.5-2.4c0-0.9,0.2-1.6,0.6-2.3c0.4-0.7,0.9-1.2,1.6-1.6c0.7-0.4,1.4-0.6,2.3-0.6
			c0.7,0,1.3,0.1,1.8,0.4c0.5,0.2,1,0.6,1.3,1c0.4,0.4,0.6,0.9,0.8,1.5c0.2,0.6,0.3,1.2,0.3,1.8C45,109.3,45,109.5,44.9,109.6
			L44.9,109.6z M38.7,108.1l3.9,0c-0.1-0.6-0.3-1.1-0.6-1.4c-0.3-0.3-0.7-0.5-1.3-0.5c-0.5,0-0.8,0.1-1.1,0.3
			c-0.3,0.2-0.5,0.4-0.6,0.7C38.8,107.5,38.8,107.8,38.7,108.1L38.7,108.1z"/>
		<path class="st0" d="M45.7,110.6l2.3,0c0,0.5,0.2,0.9,0.5,1.1c0.3,0.2,0.8,0.4,1.3,0.4c0.4,0,0.8-0.1,1.1-0.3
			c0.3-0.2,0.5-0.5,0.5-0.8c0-0.3-0.2-0.6-0.6-0.8c-0.4-0.2-1.1-0.4-2.1-0.6c-0.8-0.2-1.5-0.4-2-0.8c-0.5-0.3-0.7-0.8-0.7-1.5
			c0-1,0.4-1.8,1.1-2.2c0.7-0.4,1.6-0.6,2.7-0.6c1.1,0,1.9,0.2,2.5,0.6c0.7,0.5,1.2,1.2,1.2,2.2l-2.3,0c0-0.4-0.2-0.8-0.5-1
			c-0.3-0.2-0.6-0.2-1-0.2c-0.9,0-1.3,0.3-1.3,0.8c0,0.2,0.1,0.4,0.2,0.5c0.1,0.1,0.3,0.2,0.6,0.3c0.3,0.1,0.9,0.3,1.9,0.5
			c0.8,0.2,1.5,0.5,2,0.8c0.5,0.4,0.7,0.9,0.7,1.6c0,0.7-0.2,1.3-0.6,1.8c-0.4,0.5-0.8,0.8-1.4,1c-0.6,0.2-1.2,0.3-2,0.3
			c-1.1,0-2.1-0.3-2.9-0.7C46.2,112.5,45.8,111.7,45.7,110.6L45.7,110.6z"/>
		<path class="st0" d="M57.7,102.2l-2.4,0l0,2.6l-1.4,0l0,1.6l1.4,0l0,5.2c0,0.7,0.2,1.3,0.8,1.6c0.5,0.3,1.2,0.5,2,0.5
			c0.4,0,0.9,0,1.4-0.1l0-1.8c-0.3,0.1-0.5,0.1-0.7,0.1c-0.7,0-1-0.4-1-1.1l0-4.3l1.7,0l0-1.6l-1.7,0L57.7,102.2L57.7,102.2z"/>
		<path class="st0" d="M65.6,110.2l0-0.9c-0.2,0.2-0.7,0.3-1.3,0.4c-0.7,0.1-1.2,0.2-1.5,0.4c-0.3,0.1-0.5,0.5-0.5,1
			c0,0.7,0.5,1.1,1.4,1.1c0.6,0,1.1-0.2,1.4-0.5C65.4,111.4,65.6,110.9,65.6,110.2L65.6,110.2z M62.5,107.5l-2.4,0
			c0.1-0.7,0.3-1.3,0.7-1.7c0.4-0.4,0.9-0.7,1.5-0.9c0.6-0.2,1.2-0.3,1.9-0.3c1.1,0,1.9,0.2,2.5,0.4c0.9,0.4,1.3,1.1,1.3,2l0,4.6
			c0,1,0.1,1.6,0.3,1.9l-2.4,0c-0.1-0.3-0.2-0.6-0.2-0.9c-0.7,0.7-1.6,1.1-2.8,1.1c-0.5,0-1-0.1-1.5-0.3c-0.5-0.2-0.8-0.5-1.1-0.9
			c-0.3-0.4-0.4-0.9-0.4-1.5c0-0.6,0.1-1.1,0.4-1.5c0.3-0.4,0.6-0.6,1-0.8c0.4-0.2,0.8-0.3,1.3-0.4c0.5-0.1,1-0.1,1.6-0.2
			c0.4-0.1,0.8-0.1,1-0.3c0.2-0.1,0.4-0.3,0.4-0.6c0-0.4-0.1-0.7-0.4-0.9c-0.3-0.2-0.6-0.3-1-0.3c-0.4,0-0.8,0.1-1.2,0.4
			C62.7,106.8,62.5,107.1,62.5,107.5L62.5,107.5z"/>
		<path class="st0" d="M77.1,104.9l-3.2,8.6l-0.4,1.2c-0.3,0.7-0.7,1.2-1.3,1.5c-0.6,0.3-1.2,0.4-2,0.4c-0.3,0-0.7,0-1.2-0.1l0-1.9
			c0.4,0,0.9,0.1,1.3,0.1c0.3,0,0.5-0.1,0.7-0.3c0.2-0.2,0.2-0.4,0.2-0.7c0-0.2,0-0.3-0.1-0.5l-3-8.2l2.6,0l1.9,6l1.9-5.9
			L77.1,104.9L77.1,104.9z"/>
		<polygon class="st0" points="78,113.6 78.1,101.6 81.7,101.6 84.5,109.9 87.2,101.7 90.9,101.7 90.8,113.7 88.3,113.7 88.4,105.2 
			85.4,113.7 83.4,113.7 80.5,105.2 80.5,105.2 80.5,113.6 78,113.6 		"/>
		<path class="st0" d="M97.9,110.4l0-0.9c-0.2,0.2-0.7,0.3-1.3,0.4c-0.7,0.1-1.2,0.2-1.5,0.4c-0.3,0.1-0.5,0.5-0.5,1
			c0,0.7,0.5,1.1,1.4,1.1c0.6,0,1.1-0.2,1.4-0.5C97.8,111.6,97.9,111.1,97.9,110.4L97.9,110.4z M94.9,107.7l-2.4,0
			c0.1-0.7,0.3-1.3,0.7-1.7c0.4-0.4,0.9-0.7,1.5-0.9c0.6-0.2,1.2-0.3,1.9-0.3c1.1,0,1.9,0.2,2.5,0.4c0.9,0.4,1.3,1.1,1.3,2l0,4.6
			c0,1,0.1,1.6,0.3,1.9l-2.4,0c-0.1-0.3-0.2-0.6-0.2-0.9c-0.7,0.7-1.6,1.1-2.8,1.1c-0.5,0-1-0.1-1.5-0.3c-0.5-0.2-0.8-0.5-1.1-0.9
			c-0.3-0.4-0.4-0.9-0.4-1.5c0-0.6,0.1-1.1,0.4-1.5c0.3-0.4,0.6-0.6,1-0.8c0.4-0.2,0.8-0.3,1.3-0.4c0.5-0.1,1-0.1,1.6-0.2
			c0.4-0.1,0.8-0.1,1-0.3c0.2-0.1,0.4-0.3,0.4-0.6c0-0.4-0.1-0.7-0.4-0.9c-0.3-0.2-0.6-0.3-1-0.3c-0.4,0-0.8,0.1-1.2,0.4
			C95.1,107,94.9,107.3,94.9,107.7L94.9,107.7z"/>
		<path class="st0" d="M104.9,102.5l-2.4,0l0,2.6l-1.4,0l0,1.6l1.4,0l0,5.2c0,0.7,0.2,1.3,0.8,1.6c0.5,0.3,1.2,0.5,2,0.5
			c0.4,0,0.9,0,1.4-0.1l0-1.8c-0.3,0.1-0.5,0.1-0.7,0.1c-0.7,0-1-0.4-1-1.1l0-4.3l1.7,0l0-1.6l-1.7,0L104.9,102.5L104.9,102.5z"/>
		<path class="st0" d="M115.5,108.2c0-0.5-0.2-1-0.4-1.4c-0.2-0.4-0.5-0.8-0.9-1c-0.4-0.3-0.8-0.5-1.2-0.6c-0.5-0.1-1-0.2-1.5-0.2
			c-0.9,0-1.7,0.2-2.4,0.6c-0.7,0.4-1.2,0.9-1.5,1.6c-0.4,0.7-0.5,1.5-0.6,2.4c0,0.9,0.2,1.6,0.5,2.3c0.4,0.7,0.9,1.2,1.5,1.6
			c0.7,0.4,1.4,0.6,2.2,0.6c1.1,0,2.1-0.3,2.8-0.9c0.7-0.6,1.2-1.5,1.3-2.6l-2.3,0c-0.1,0.5-0.3,0.9-0.6,1.3
			c-0.3,0.3-0.8,0.5-1.3,0.5c-0.4,0-0.8-0.1-1.1-0.4c-0.3-0.3-0.5-0.6-0.7-1c-0.2-0.4-0.2-0.9-0.2-1.3c0-0.5,0.1-1,0.2-1.4
			c0.2-0.4,0.4-0.8,0.7-1.1c0.3-0.3,0.7-0.4,1.1-0.4c1,0,1.6,0.5,1.7,1.5L115.5,108.2L115.5,108.2z"/>
		<path class="st0" d="M116.6,113.9l0.1-12l2.3,0l0,4.6c0.3-0.5,0.7-0.9,1.1-1.1c0.5-0.2,0.9-0.4,1.4-0.4c0.8,0,1.4,0.2,1.9,0.4
			c0.5,0.3,0.8,0.7,0.9,1.2c0.2,0.5,0.3,1.2,0.3,1.9l0,5.4l-2.3,0l0-4.9c0-0.7-0.1-1.2-0.3-1.6c-0.2-0.3-0.6-0.5-1.1-0.5
			c-0.7,0-1.1,0.2-1.4,0.6c-0.3,0.4-0.5,1-0.5,1.9l0,4.5L116.6,113.9L116.6,113.9z"/>
	</g>
</g>
</svg>
