<?xml version="1.0" encoding="utf-8"?>
<!-- Generator: Adobe Illustrator 22.0.1, SVG Export Plug-In . SVG Version: 6.00 Build 0)  -->
<svg version="1.1" id="Layer_1" xmlns="http://www.w3.org/2000/svg" xmlns:xlink="http://www.w3.org/1999/xlink" x="0px" y="0px"
	 viewBox="0 0 25.8 14.5" style="enable-background:new 0 0 25.8 14.5;" xml:space="preserve">
<style type="text/css">
	.st0{fill:#009EE1;}
</style>
<g>
	<g>
		<path class="st0" d="M25.4,4.9c-0.3-0.3-0.6-0.5-1-0.5h-0.6V3.9c0-0.9-0.7-1.5-1.6-1.5h-0.8V1.5c0-0.4-0.2-0.8-0.5-1.1
			c-0.6-0.6-1.7-0.6-2.3,0c-0.3,0.3-0.5,0.7-0.5,1.1v4.1H7.7V1.5c0-0.4-0.2-0.8-0.5-1.1c-0.6-0.6-1.7-0.6-2.3,0
			C4.6,0.7,4.4,1.1,4.4,1.5v0.9H3.6c-0.4,0-0.8,0.1-1.1,0.4C2.2,3.1,2,3.5,2,3.9v0.6H1.4c-0.4,0-0.8,0.2-1,0.5C0.1,5.2,0,5.6,0,6.1
			v2.4c0,0.4,0.1,0.8,0.4,1.1c0.3,0.3,0.6,0.5,1,0.5H2v0.6c0,0.4,0.2,0.8,0.5,1c0.3,0.3,0.7,0.4,1.1,0.4h0.9V13
			c0,0.4,0.2,0.8,0.5,1.1c0.3,0.3,0.7,0.4,1.1,0.4c0.4,0,0.8-0.2,1.1-0.4c0.3-0.3,0.5-0.7,0.5-1.1V8.9h10.5V13
			c0,0.4,0.2,0.8,0.5,1.1c0.3,0.3,0.7,0.4,1.1,0.4c0.4,0,0.8-0.2,1.1-0.4c0.3-0.3,0.5-0.7,0.5-1.1v-0.9h0.8c0.9,0,1.6-0.7,1.6-1.5
			v-0.5h0.6c0.4,0,0.8-0.2,1-0.5c0.3-0.3,0.4-0.7,0.4-1.1V6.1C25.8,5.6,25.7,5.2,25.4,4.9L25.4,4.9z M1.4,9.3C1.3,9.3,1.1,9.2,1,9
			C0.9,8.9,0.8,8.7,0.8,8.4V6.1c0-0.2,0.1-0.5,0.2-0.6c0.1-0.1,0.3-0.2,0.4-0.2H2v4H1.4z M3.6,11.3c-0.2,0-0.4-0.1-0.5-0.2
			c-0.1-0.1-0.2-0.3-0.2-0.4V3.9c0-0.2,0.1-0.3,0.2-0.4c0.1-0.1,0.3-0.2,0.5-0.2h0.9v8.1H3.6z M6.9,13c0,0.2-0.1,0.4-0.2,0.5
			c-0.3,0.3-0.9,0.3-1.2,0c-0.1-0.1-0.2-0.3-0.2-0.5V1.5c0-0.2,0.1-0.4,0.2-0.5C5.6,0.9,5.8,0.8,6,0.8S6.5,0.9,6.6,1
			c0.1,0.1,0.2,0.3,0.2,0.5V13z M7.7,8.1V6.4h10.5v1.6H7.7z M20.6,13c0,0.2-0.1,0.4-0.2,0.5c-0.3,0.3-0.9,0.3-1.2,0
			C19,13.3,19,13.2,19,13V1.5C19,1.3,19,1.2,19.2,1c0.2-0.1,0.4-0.2,0.6-0.2c0.2,0,0.4,0.1,0.6,0.2c0.1,0.1,0.2,0.3,0.2,0.5V13z
			 M23,10.5c0,0.4-0.4,0.7-0.8,0.7h-0.8V3.2h0.8c0.5,0,0.8,0.3,0.8,0.7V10.5z M25,8.4c0,0.2-0.1,0.5-0.2,0.6
			c-0.1,0.1-0.3,0.2-0.4,0.2h-0.6v-4h0.6c0.2,0,0.3,0.1,0.4,0.2C24.9,5.6,25,5.8,25,6.1V8.4z M25,8.4"/>
	</g>
</g>
</svg>
