<?xml version="1.0" encoding="utf-8"?>
<!-- Generator: Adobe Illustrator 22.0.1, SVG Export Plug-In . SVG Version: 6.00 Build 0)  -->
<svg version="1.1" id="Layer_1" xmlns="http://www.w3.org/2000/svg" xmlns:xlink="http://www.w3.org/1999/xlink" x="0px" y="0px"
	 viewBox="0 0 21 21" style="enable-background:new 0 0 21 21;" xml:space="preserve">
<style type="text/css">
	.st0{fill:#009EE1;}
</style>
<g>
	<path class="st0" d="M20.6,4.8c-0.2,0-0.4,0.2-0.4,0.4v3.5h-0.9V7.9c0-1-0.8-1.7-1.8-1.7c-0.5,0-1,0.2-1.3,0.6
		c-0.3-0.4-0.8-0.6-1.3-0.6c-0.5,0-1,0.2-1.3,0.6c-0.3-0.4-0.8-0.6-1.3-0.6c-0.5,0-1,0.2-1.3,0.6c-0.3-0.4-0.8-0.6-1.3-0.6
		c-0.5,0-1,0.2-1.3,0.6C8,6.4,7.5,6.1,7,6.1c-0.5,0-1,0.2-1.3,0.6C5.4,6.4,4.9,6.1,4.4,6.1c-0.8,0-1.5,0.6-1.7,1.3H1.3
		c-0.2,0-0.4,0.2-0.4,0.4v0.9H0.4C0.2,8.8,0,8.9,0,9.2c0,0.2,0.2,0.4,0.4,0.4h0.4v0.9c0,0.2,0.2,0.4,0.4,0.4h1.3v8.3
		c0,1,0.8,1.7,1.7,1.7c0.5,0,1-0.2,1.3-0.6C6,20.8,6.5,21,7,21c0.5,0,1-0.2,1.3-0.6C8.6,20.8,9.1,21,9.6,21c0.5,0,1-0.2,1.3-0.6
		c0.3,0.4,0.8,0.6,1.3,0.6c0.5,0,1-0.2,1.3-0.6c0.3,0.4,0.8,0.6,1.3,0.6c0.5,0,1-0.2,1.3-0.6c0.3,0.4,0.8,0.6,1.3,0.6
		c1,0,1.8-0.8,1.8-1.7V9.6h1.3c0.2,0,0.4-0.2,0.4-0.4V5.2C21,5,20.8,4.8,20.6,4.8z M1.7,10.1V8.3h0.9v1.8H1.7z M4.4,20.1
		c-0.5,0-0.9-0.4-0.9-0.9v-8.8V7.9C3.5,7.4,3.9,7,4.4,7c0.5,0,0.9,0.4,0.9,0.9v11.4C5.3,19.7,4.9,20.1,4.4,20.1z M7,20.1
		c-0.5,0-0.9-0.4-0.9-0.9V7.9C6.1,7.4,6.5,7,7,7c0.5,0,0.9,0.4,0.9,0.9v11.4C7.9,19.7,7.5,20.1,7,20.1z M9.6,20.1
		c-0.5,0-0.9-0.4-0.9-0.9V7.9C8.8,7.4,9.1,7,9.6,7c0.5,0,0.9,0.4,0.9,0.9v11.4C10.5,19.7,10.1,20.1,9.6,20.1z M12.2,20.1
		c-0.5,0-0.9-0.4-0.9-0.9V7.9c0-0.5,0.4-0.9,0.9-0.9c0.5,0,0.9,0.4,0.9,0.9v11.4C13.1,19.7,12.7,20.1,12.2,20.1z M14.9,20.1
		c-0.5,0-0.9-0.4-0.9-0.9V7.9C14,7.4,14.4,7,14.9,7c0.5,0,0.9,0.4,0.9,0.9v11.4C15.8,19.7,15.4,20.1,14.9,20.1z M18.4,19.3
		c0,0.5-0.4,0.9-0.9,0.9c-0.5,0-0.9-0.4-0.9-0.9V7.9C16.6,7.4,17,7,17.5,7c0.5,0,0.9,0.4,0.9,0.9V19.3z"/>
	<path class="st0" d="M13.8,4.5c0.1,0.3,0.3,0.6,0.3,0.6v0c0.1,0.1,0.2,0.2,0.3,0.2c0.2,0,0.4-0.2,0.4-0.4c0-0.1,0-0.2-0.1-0.3l0,0
		c0,0-0.1-0.1-0.1-0.3c-0.1-0.2,0-0.3,0.1-0.5c0.4-0.4,0.5-0.8,0.3-1.3c-0.1-0.3-0.3-0.6-0.3-0.6c0,0,0,0,0,0v0v0
		c-0.1-0.1-0.2-0.2-0.3-0.2c-0.2,0-0.4,0.2-0.4,0.4c0,0.1,0,0.2,0.1,0.3l0,0c0,0,0.1,0.1,0.1,0.3c0.1,0.2,0,0.3-0.1,0.4
		C13.8,3.5,13.7,4,13.8,4.5z"/>
	<path class="st0" d="M10.2,4.2c0.1,0.5,0.4,0.8,0.4,0.9l0,0c0.1,0.1,0.2,0.2,0.3,0.2c0.2,0,0.4-0.2,0.4-0.4c0-0.1,0-0.2-0.1-0.3
		l0,0c0,0-0.2-0.3-0.3-0.6c-0.1-0.4,0-0.7,0.2-1c0.5-0.5,0.6-1.2,0.4-1.9c-0.1-0.5-0.4-0.8-0.4-0.9v0C11.2,0.1,11.1,0,10.9,0
		c-0.2,0-0.4,0.2-0.4,0.4c0,0.1,0,0.2,0.1,0.3h0c0,0,0.2,0.3,0.3,0.6c0.1,0.4,0,0.7-0.2,1C10.1,2.9,10,3.5,10.2,4.2z"/>
	<path class="st0" d="M6.8,4.5c0.1,0.3,0.3,0.6,0.3,0.6v0c0.1,0.1,0.2,0.2,0.3,0.2c0.2,0,0.4-0.2,0.4-0.4c0-0.1,0-0.2-0.1-0.3h0
		c0,0-0.1-0.1-0.1-0.3c-0.1-0.2,0-0.3,0.1-0.5C8.1,3.4,8.2,3,8.1,2.5C8,2.2,7.8,1.9,7.8,1.9c0,0,0,0,0,0l0,0v0
		C7.7,1.8,7.6,1.7,7.4,1.7C7.2,1.7,7,1.9,7,2.2c0,0.1,0,0.2,0.1,0.3l0,0c0,0,0.1,0.1,0.1,0.3c0.1,0.2,0,0.3-0.1,0.4
		C6.8,3.5,6.7,4,6.8,4.5z"/>
</g>
</svg>
