<?xml version="1.0" encoding="UTF-8"?>
<svg width="37px" height="37px" viewBox="0 0 37 37" version="1.1" xmlns="http://www.w3.org/2000/svg" xmlns:xlink="http://www.w3.org/1999/xlink">
    <!-- Generator: Sketch 49.3 (51167) - http://www.bohemiancoding.com/sketch -->
    <title>house</title>
    <desc>Created with Sketch.</desc>
    <defs></defs>
    <g id="Page-1" stroke="none" stroke-width="1" fill="none" fill-rule="evenodd">
        <g id="Home_Page_V1.1-Copy-7" transform="translate(-838.000000, -1758.000000)" fill="#FFFFFF" fill-rule="nonzero">
            <g id="Find-Your-Home-stay" transform="translate(128.000000, 1485.000000)">
                <g id="Right-Side" transform="translate(503.000000, 0.000000)">
                    <g id="Book-your-homestay" transform="translate(70.000000, 200.000000)">
                        <g id="Icon" transform="translate(108.000000, 44.000000)">
                            <g id="house" transform="translate(29.000000, 29.000000)">
                                <path d="M36.9902355,16.0052289 C36.9236786,15.1386782 36.5237595,14.3501952 35.8642616,13.7849277 L32.6638971,11.0409951 L32.6638971,3.24384595 C32.6638971,2.64503832 32.1785598,2.1596456 31.579982,2.1596456 L27.2441768,2.1596456 C26.6455267,2.1596456 26.1747148,2.6451106 26.1747148,3.24384595 L26.1747148,5.46501459 L20.6889435,0.788546704 C19.4625924,-0.262402622 17.6824682,-0.262258052 16.4600195,0.785438456 L1.13655642,13.7847831 C-0.218644661,14.946256 -0.394467421,16.9958927 0.784910899,18.3729189 C1.68382554,19.4185192 3.12372217,19.7518969 4.35122953,19.3203564 L4.35122953,35.9157996 C4.35122953,36.5146073 4.82211367,37 5.42069153,37 L31.5799097,37 C32.1785598,37 32.6638249,36.514535 32.6638249,35.9157996 L32.6638249,19.3205732 C33.9309339,19.7687392 35.3404789,19.3931472 36.2169188,18.3714732 C36.7820376,17.7116572 37.05672,16.8712736 36.9902355,16.0052289 Z M28.3280919,4.3280463 L30.5104477,4.3280463 L30.5104477,9.18226262 L28.3280919,7.32360246 L28.3280919,4.3280463 Z M22.9228248,34.8315993 L14.0923019,34.8315993 L14.0923019,26.1432504 L22.9228248,26.1432504 L22.9228248,34.8315993 Z M30.51052,34.8315993 L25.0762742,34.8315993 L25.0762742,25.073507 C25.0762742,24.4746993 24.5909369,23.9893066 23.992359,23.9893066 L13.0083144,23.9893066 C12.4096643,23.9893066 11.9388525,24.4747716 11.9388525,25.073507 L11.9388525,34.8315993 L6.50467895,34.8315993 L6.50467895,17.7608832 L18.5689531,7.52440976 L30.51052,17.7507633 L30.51052,34.8315993 Z M34.5711369,16.9598948 C34.1868272,17.4079163 33.503626,17.4736232 33.0421365,17.0777914 L19.2779532,5.27627887 C18.8736259,4.92952848 18.2774328,4.92808278 17.8713711,5.27266463 C17.5780441,5.52146905 4.01649421,17.0284931 3.95911515,17.0772131 C3.50514121,17.4657442 2.81861584,17.4127594 2.42989795,16.9604731 C2.04074646,16.5061629 2.09335599,15.820252 2.54328304,15.4345401 L17.8668184,2.43512313 C18.2758429,2.08468622 18.8694345,2.08461393 19.27817,2.43497856 L34.4535604,15.4314318 C34.9072452,15.8203243 34.9597825,16.5063074 34.5711369,16.9598948 Z" id="Shape"></path>
                                <path d="M21.8916449,13 L15.093576,13 C14.4814277,13 14,13.5037252 14,14.1249812 L14,20.8750188 C14,21.4963498 14.4815016,22 15.093576,22 L21.8916449,22 C22.5037933,22 23,21.4962748 23,20.8750188 L23,14.1249812 C23.0000739,13.5036502 22.5037933,13 21.8916449,13 Z M20.7980689,19.7501125 L16.2019311,19.7501125 L16.2019311,15.2500375 L20.7980689,15.2500375 L20.7980689,19.7501125 Z" id="Shape"></path>
                                <circle id="Oval" cx="20" cy="29" r="1"></circle>
                            </g>
                        </g>
                    </g>
                </g>
            </g>
        </g>
    </g>
</svg>