<?xml version="1.0" encoding="UTF-8"?>
<svg width="98px" height="95px" viewBox="0 0 98 95" version="1.1" xmlns="http://www.w3.org/2000/svg" xmlns:xlink="http://www.w3.org/1999/xlink">
    <!-- Generator: Sketch 49.3 (51167) - http://www.bohemiancoding.com/sketch -->
    <title>Hosts 2</title>
    <desc>Created with Sketch.</desc>
    <defs></defs>
    <g id="Page-1" stroke="none" stroke-width="1" fill="none" fill-rule="evenodd">
        <g id="Home_Page_V1.1-Copy-7" transform="translate(-278.000000, -1043.000000)">
            <g id="3-Blocks" transform="translate(170.000000, 1040.000000)">
                <g id="Ideal-Hosts" transform="translate(0.000000, 3.000000)">
                    <g id="Content">
                        <g id="Hosts-2" transform="translate(108.000000, 0.000000)">
                            <path d="M72,79.884007 C71.3521193,71.3848858 65.0438077,64.4964851 56.8259531,63.0456942 C56.8145868,63.0456942 56.8032205,63.0456942 56.7918541,63.0456942 C56.7009235,63.0228471 56.6213592,63.0114236 56.5304286,63 L47.9715842,67.4934534 L47.9715842,66.2785589 C44.6980819,66.2785589 41.7087379,65.0333919 39.4468387,63 C39.3672744,63.0114236 39.2763438,63.0342707 39.1854132,63.0456942 C38.1522141,63.228471 37.1491357,63.4974956 36.1835662,63.8453427 C30.8703765,65.7587873 26.6858631,70.0523286 24.9002131,75.4459578 C24.413166,76.9167399 24.1045702,78.4697715 24,80.0782074 C30.4106086,85.6414763 38.7648591,89 47.8920199,89 C47.9147525,89 47.9488515,89 47.9715842,89 C57.1783093,88.9771529 65.5893914,85.5500879 72,79.884007" id="Fill-145" fill="#28A5F3"></path>
                            <path d="M11.5,28 C12.3273333,28 13,27.3266667 13,26.5 C13,25.6726667 12.3273333,25 11.5,25 C10.6726667,25 10,25.6726667 10,26.5 C10,27.3266667 10.6726667,28 11.5,28" id="Fill-146" fill="#1F2C46"></path>
                            <path d="M71.5,84 C70.6733333,84 70,84.6733333 70,85.5 C70,86.3266667 70.6733333,87 71.5,87 C72.3266667,87 73,86.3266667 73,85.5 C73,84.6733333 72.3266667,84 71.5,84" id="Fill-147" fill="#1F2C46"></path>
                            <path d="M37,29.5 C37,28.6733333 36.3273333,28 35.5,28 C34.6726667,28 34,28.6733333 34,29.5 C34,30.3266667 34.6726667,31 35.5,31 C36.3273333,31 37,30.3266667 37,29.5" id="Fill-148" fill="#1F2C46"></path>
                            <path d="M46,48 C46,47.4475 45.4987693,47 44.8811815,47 L42.1188185,47 C41.5006713,47 41,47.4475 41,48 C41,48.552 41.5006713,49 42.1188185,49 L44.8811815,49 C45.4987693,49 46,48.552 46,48" id="Fill-149" fill="#1F2C46"></path>
                            <path d="M53.8811815,47 L51.1188185,47 C50.5006713,47 50,47.4475 50,48 C50,48.552 50.5006713,49 51.1188185,49 L53.8811815,49 C54.4993287,49 55,48.552 55,48 C55,47.4475 54.4993287,47 53.8811815,47" id="Fill-150" fill="#1F2C46"></path>
                            <path d="M51.0939768,55.201827 C49.379287,56.2853264 47.6224133,56.2853264 45.9059411,55.201827 C45.3830974,54.8708816 44.6386392,54.9575814 44.2411591,55.3930619 C43.8448673,55.8295333 43.9476537,56.4503036 44.4710915,56.7807536 C45.7336403,57.5788869 47.1269,58 48.4999589,58 C49.8742062,58 51.26806,57.5788869 52.5300146,56.7807536 C53.0522642,56.4503036 53.1550505,55.8295333 52.7587588,55.3930619 C52.362467,54.9575814 51.6180088,54.8693953 51.0939768,55.201827" id="Fill-151" fill="#1F2C46"></path>
                            <path d="M60.5364145,45.7248906 C60.2877847,46.7412044 59.9383436,46.9827599 59.5339661,47.2621627 C59.1550746,47.5243116 58.581357,47.920596 58.4131495,48.762144 C58.4114505,48.7710493 58.4120168,48.779398 58.4103178,48.7883032 C58.4091851,48.7960953 58.4057869,48.8027743 58.4046542,48.8105664 C57.3427385,55.742762 52.7575283,60.7736827 47.5011873,60.7736827 C42.2448463,60.7736827 37.6585033,55.742762 36.597154,48.8105664 C36.5954549,48.7988782 36.5903577,48.7883032 36.5880923,48.7766151 C36.5869596,48.7716059 36.5880923,48.7671532 36.5869596,48.762144 C36.5750661,48.7037032 36.5575091,48.6519413 36.5416512,48.5979531 C36.5410848,48.5957268 36.5410848,48.5935005 36.5399521,48.5918307 C36.3332325,47.8693907 35.8178494,47.5053879 35.4655766,47.2621627 C35.0617655,46.9827599 34.7128908,46.7412044 34.4636946,45.7248906 C34.0836704,44.1714776 34.352689,43.5865128 34.4263151,43.5236193 C34.4438721,43.5180535 34.4908796,43.5330811 34.5452497,43.5620233 C34.7536683,44.0323328 34.9966347,44.489841 35.2786795,44.9273124 C35.4899299,45.2534679 35.8535298,45.4432614 36.2352531,45.4432614 C36.3236045,45.4432614 36.4136549,45.433243 36.5025727,45.412093 C36.9743464,45.2991074 37.3203893,44.903936 37.3634323,44.4286173 C37.4772697,43.1657388 37.7774378,41.9329156 38.2554415,40.7646555 C38.5029386,40.1607669 38.7980096,39.5741323 39.1366899,39.0125438 C41.9140949,40.3227315 44.7283131,41.0117767 47.3324135,41.0117767 C50.0599793,41.0117767 52.4256442,40.2425841 54.1722831,38.786016 C54.7522307,38.3029051 55.2676137,37.74076 55.7133351,37.105703 C56.2723275,37.8259166 56.7327742,38.6123632 57.0901442,39.4555809 C57.7267273,40.957232 58.007073,42.6169516 57.9000319,44.2555211 C57.8654842,44.7787057 58.2086954,45.254581 58.721813,45.3976219 C59.2388952,45.5401062 59.7808969,45.3113521 60.0306595,44.8477215 C60.2492725,44.4436449 60.442966,44.0278802 60.6140052,43.6048799 C60.7204799,43.8197195 60.8518743,44.4352962 60.5364145,45.7248906 Z M34.3640161,49.1907101 C34.3634497,49.1901535 34.3634497,49.1901535 34.3634497,49.1901535 L34.3651488,49.1895969 L34.3651488,49.1901535 L34.3640161,49.1907101 Z M36.3564531,36.9932739 L36.4028942,36.8546857 C36.5728007,36.340963 37.0893165,34.776975 38.4338433,33.2881253 C39.0857179,32.5667985 40.2994168,31.2226594 42.3031808,30.7122761 C42.6475247,30.6248932 43.0043284,30.5653392 43.3639638,30.5358405 C43.7315282,30.5052286 44.0611468,30.300964 44.2474776,29.9881664 C44.5391505,29.4961503 44.6903673,28.9456933 44.6852701,28.39301 C45.0505691,28.6050668 45.3705597,28.8805735 45.6373129,29.2122948 C45.8865091,29.5217529 46.2846567,29.6781517 46.6811052,29.6247201 C47.0786864,29.5707319 47.4173667,29.3141488 47.5714153,28.950146 C47.7503835,28.5265891 47.8902732,28.0868914 47.9871199,27.6421845 C48.0652769,27.2826343 48.1162488,26.9197445 48.1400357,26.5546285 C50.2123288,27.1607434 52.7699881,28.3256639 55.0739203,30.5658958 C56.7361723,32.1816456 58.0557795,34.1870009 58.8928523,36.3671222 C59.087112,37.141324 59.1969849,37.923318 59.2224709,38.6958501 C59.208312,38.6635685 59.1952858,38.6318435 59.1816933,38.5990053 C58.5150935,37.0261121 57.5500245,35.6168532 56.3148042,34.4113024 C56.0525818,34.1558325 55.6799202,34.0428469 55.3168866,34.1051838 C54.9532867,34.1691904 54.6446232,34.4035103 54.4888756,34.7330053 C54.039756,35.6853125 53.4405524,36.4778815 52.7071227,37.088449 C51.3750556,38.1988248 49.5162784,38.7854594 47.3324135,38.7854594 C44.8070364,38.7854594 42.0200033,38.0240589 39.2714824,36.5841881 C38.765161,36.3192564 38.138206,36.4673065 37.8097201,36.9287107 C37.1436866,37.8659903 36.5863932,38.8767384 36.153698,39.9342392 C36.0964961,40.0739406 36.0415597,40.2147551 35.9883223,40.3561263 C35.8608924,39.2257137 35.979827,38.0735944 36.3564531,36.9932739 Z M61.0750182,35.7643468 C61.0653901,35.7242731 61.052364,35.6853125 61.0382051,35.6469085 C60.0878614,33.1439713 58.5762598,30.8391762 56.667077,28.9829841 C53.4071375,25.8138214 49.7082728,24.5364718 47.1794976,24.0227491 C46.8158977,23.9498372 46.441537,24.0544741 46.1725184,24.3038217 C45.9040661,24.5531692 45.7755035,24.9160589 45.8298736,25.2761658 C45.8916063,25.6852516 45.9057652,26.0937808 45.8729166,26.4967442 C45.8094848,26.4594534 45.7449203,26.4227192 45.6797895,26.3876547 C44.613343,25.8110385 43.5769133,25.6902608 42.8950218,25.6902608 C42.8179976,25.6902608 42.7477695,25.6913739 42.6860368,25.6936003 C42.2119977,25.7102976 41.7991249,26.0153031 41.6507399,26.4577837 C41.5023548,26.9002643 41.6501735,27.386158 42.0205697,27.6766924 C42.0607809,27.7078609 42.4113547,27.9950558 42.41985,28.4052548 C42.41985,28.4074811 42.41985,28.410264 42.41985,28.4124903 C42.1887771,28.4520075 41.9599697,28.5004299 41.7351267,28.5572009 C39.0636301,29.2367843 37.493694,30.9755382 36.7398754,31.8104072 C35.0815879,33.6465624 34.4546329,35.5433848 34.2484797,36.1667536 L34.2133657,36.2719471 C33.6419134,37.9105167 33.5337396,39.6765429 33.8588274,41.371327 C33.6158611,41.4331073 33.3825228,41.532735 33.1684406,41.6763325 C32.3744109,42.2084223 31.5724522,43.4323403 32.2617062,46.2458488 C32.7102594,48.0792212 33.6192592,48.7075992 34.1623937,49.0827337 C34.2326217,49.1311561 34.3232385,49.1946061 34.3730778,49.2346799 C35.6309523,57.2160275 41.1393213,63 47.5011873,63 C53.8624869,63 59.3714223,57.215471 60.6292968,49.2335667 C60.6785697,49.1929364 60.7680537,49.1311561 60.8377154,49.0827337 C61.3808499,48.7075992 62.2898497,48.0792212 62.7389692,46.2458488 C63.4270906,43.4323403 62.6251319,42.2084223 61.8316685,41.6763325 C61.653833,41.5566679 61.4607059,41.4698415 61.261349,41.4069481 C61.6170199,39.5819244 61.5586854,37.6528205 61.0750182,35.7643468 Z" id="Fill-152" fill="#1F2C46"></path>
                            <path d="M74.4890053,46.5099687 C74.492073,46.5099687 74.4951408,46.5099687 74.4982086,46.5099687 C74.7509931,46.5099687 74.9307646,46.6592996 74.9645102,46.6894168 C75.4756012,47.1461937 76.2505208,47.0922338 76.6959615,46.5714579 C77.1426294,46.049427 77.0910908,45.2569692 76.5812268,44.8008197 C76.3063543,44.5542354 75.5387974,43.9876563 74.4528055,44.0002051 C73.4441216,44.0152637 72.7452828,44.5084322 72.4188717,44.8008197 C71.9090077,45.2569692 71.8574691,46.0500545 72.3035234,46.5714579 C72.5464911,46.8550612 72.8857868,47 73.2275368,47 C73.5146804,47 73.8030511,46.8977271 74.0355883,46.6894168 C74.0816049,46.6480057 74.2503325,46.5131059 74.4890053,46.5099687" id="Fill-153" fill="#1F2C46"></path>
                            <path d="M81.5375479,44.0002414 C80.4049276,43.9859981 79.6435074,44.6058904 79.3717031,44.8734164 C78.8857685,45.3508759 78.8747245,46.1348756 79.3477745,46.6247205 C79.821438,47.1158041 80.5975835,47.1250932 81.0829046,46.6488722 C81.1006976,46.6315325 81.26513,46.4773335 81.5001211,46.4773335 C81.5019618,46.4773335 81.504416,46.4773335 81.5068702,46.4773335 C81.7387936,46.4804299 81.8989311,46.6309133 81.9167242,46.6482529 C82.1553966,46.8829574 82.4646277,47 82.7732452,47 C83.0922932,47 83.4113412,46.8749068 83.6518542,46.6253398 C84.1249042,46.1354948 84.1144738,45.3521144 83.6291528,44.8740356 C83.3665517,44.616418 82.6382634,44.0144846 81.5375479,44.0002414" id="Fill-154" fill="#1F2C46"></path>
                            <path d="M80.0799661,51.2130501 C78.6975113,52.1308577 77.3030872,52.1308577 75.9200339,51.2130501 C75.3933844,50.8631098 74.642909,50.9537381 74.2431342,51.4152611 C73.8439578,51.8762604 73.9468938,52.5337081 74.4741418,52.8831246 C75.5753179,53.6139131 76.7943917,54 78.0002992,54 C79.2056083,54 80.4252806,53.6139131 81.5258582,52.8831246 C82.0531062,52.5337081 82.1560422,51.8762604 81.7568658,51.4152611 C81.357091,50.9532142 80.6066156,50.8641575 80.0799661,51.2130501" id="Fill-155" fill="#1F2C46"></path>
                            <path d="M83.8029869,58.0002829 L83.6739826,58.0002829 C83.3542766,58.0115731 83.057006,58.1583453 82.8550864,58.406729 C82.6475579,58.6551128 82.5578158,58.9768826 82.6082957,59.2930074 C82.8663041,61.054274 81.9576658,62.5953823 81.1555961,63.5776271 C79.7814209,65.2485723 78.0258418,66.1574311 77.5883493,66.1800114 C76.7470175,66.1404958 72.517923,63.4647254 72.517923,59.925257 C72.517923,59.7163888 72.5291407,59.5075206 72.562794,59.2986525 C72.6188828,58.937367 72.4954875,58.5704365 72.2318702,58.3164077 C71.9738618,58.0623788 71.6092846,57.9551222 71.2503164,58.0172181 C68.6477967,58.4959214 66.2971157,59.6582444 64.3760747,61.3116899 C63.8106997,61.7982962 63.89932,62.707155 64.5308798,63.1040045 L64.54995,63.1164236 C64.9470586,63.3659364 65.4608319,63.3320659 65.8147521,63.0238442 C67.0475836,61.9495845 68.5423498,61.0870155 70.3024159,60.5631516 C70.7399084,64.9945435 75.614024,68.4380455 77.5827404,68.4380455 C78.9120447,68.4380455 81.1724228,67.015484 82.7260822,65.2034117 C83.6795915,64.0913299 84.722843,62.442965 84.8742827,60.4446048 C87.6282421,61.2462069 92.9342413,64.6671286 93.7026577,71.1589766 C92.3497962,72.2247687 90.8965357,73.1449176 89.3720425,73.9177298 L89.3720425,69.6291585 C89.3720425,69.0059411 88.8700478,68.5001414 88.2502667,68.5001414 C87.6310465,68.5001414 87.128491,69.0059411 87.128491,69.6291585 L87.128491,74.9298935 C84.1154014,76.1164905 80.8841264,76.7419659 77.6107848,76.7419659 C76.8580733,76.7419659 76.1059227,76.7086599 75.3582591,76.6431769 C74.6358356,76.5793874 74.058682,77.2071209 74.1624462,77.9291273 C74.163568,77.9370304 74.1646898,77.9449336 74.1658115,77.9528367 C74.238727,78.4654104 74.6655626,78.8475827 75.1782141,78.8927434 C75.9847709,78.964436 76.7963756,79 77.6107848,79 C81.3676117,79 85.0694717,78.239607 88.4987401,76.8057554 C88.6378403,76.7741429 88.7674054,76.717692 88.8818265,76.6392253 C91.2841092,75.5931911 93.5484135,74.2186128 95.5928498,72.5307323 C95.8732937,72.2992838 96.0247335,71.9379984 95.9966891,71.5710678 C95.3348414,62.6179626 87.1514874,58.0002829 83.8029869,58.0002829" id="Fill-156" fill="#1F2C46"></path>
                            <path d="M87.0382119,45.7962918 C86.1596601,51.5693605 82.3809247,55.7595542 78.0544397,55.7595542 C75.3915952,55.7595542 72.9394672,54.1688377 71.2401408,51.602407 L70.8526944,50.9706013 C70.0075628,49.5131913 69.389008,47.792529 69.0882272,45.8926309 C69.085395,45.8444614 69.0842621,45.7962918 69.0746326,45.7481222 C68.9199939,44.9650864 68.380741,44.5898117 68.0584354,44.3663272 C67.7355634,44.1411624 67.4806644,43.9641672 67.2869412,43.168809 C67.0620637,42.2451852 67.1198408,41.7814129 67.176485,41.5848138 C67.431384,41.7371641 67.7265003,41.7780522 68.0000919,41.7192405 C68.2096754,41.731563 68.4254899,41.6889945 68.6220453,41.5797728 C69.2139773,41.2498672 70.0330527,40.6320642 70.5689069,39.5594508 C70.9574862,38.781456 71.0651102,38.0236252 71.0520821,37.3884588 C71.5103337,37.3044421 72.0161666,37.1347283 72.5101041,36.8149047 C73.2119259,36.3612144 73.6673454,35.7450918 73.9516993,35.1205676 C74.2683405,35.2773988 74.6285977,35.409025 75.0336038,35.4924816 C76.2775107,35.7484525 77.3344917,35.4263884 78.0646356,35.0533542 C78.9256277,35.8884804 80.1587722,36.2883999 81.3783221,36.0559537 C81.9827159,35.941691 82.5349969,35.6812391 82.9972137,35.3132459 C83.3444427,35.8016631 83.8247857,36.2715966 84.4931874,36.6222264 C84.9350122,36.8541125 85.3734385,36.9879791 85.7824097,37.0579931 C85.6164421,37.9424091 85.6243723,39.0553505 86.2281996,40.1318847 C86.5386099,40.6841546 86.9708053,41.1608094 87.5123239,41.5472863 C87.7128445,41.6901148 87.9445193,41.7590085 88.1739284,41.7590085 C88.2651255,41.7590085 88.3557563,41.746686 88.4441212,41.7254018 C88.6299143,41.7220411 88.8157073,41.6794726 88.984507,41.5870542 C89.0405848,41.7853337 89.0966626,42.249106 88.8729179,43.168809 C88.6797612,43.9647273 88.4242958,44.1417226 88.1014238,44.3663272 C87.8408604,44.5472432 87.4403858,44.83234 87.2143754,45.3482026 C87.1265769,45.4798288 87.0637018,45.6299387 87.0382119,45.7962918 Z M98,39.3600511 C98,38.3966594 97.6318126,37.4836778 96.9973974,36.7835385 C97.3599204,36.1898203 97.5581751,35.5064844 97.5581751,34.7951428 C97.5581751,33.2156285 96.5725658,31.8321533 95.1507961,31.2384351 C95.2414268,30.9191716 95.2810778,30.5887059 95.2810778,30.252639 C95.2810778,28.2530411 93.7063686,26.5783079 91.6728414,26.3990722 C91.6501837,24.332261 89.9451929,22.61832 87.7983772,22.5679099 C87.4585119,22.573511 87.1186467,22.6295222 86.7901102,22.7247411 C86.1726883,21.4364848 84.8472137,20.517902 83.2838334,20.4842953 C82.6777404,20.5010987 82.0999694,20.6467277 81.584507,20.9155812 C80.9104409,19.8009594 79.6812615,19.0336067 78.2538273,19 C78.2141764,19 78.1745254,19 78.1405389,19.0056011 C78.0952235,19 78.0442437,19 77.9762707,19 C76.582823,19.0336067 75.3649724,19.8009594 74.6965707,20.9211823 C74.1697795,20.6523288 73.5750153,20.5010987 72.9462645,20.4842953 C71.4225352,20.517902 70.102725,21.4364848 69.4909675,22.7303422 C69.1511023,22.6295222 68.7942437,22.573511 68.4260563,22.5679099 C66.3358849,22.61832 64.6308941,24.3266599 64.6082364,26.3934711 C62.5973668,26.5503023 61,28.2418389 61,30.252639 C61,30.3926668 61.0056644,30.5326947 61.0226577,30.6727226 C61.4520208,31.3050884 61.8389008,31.9581783 62.188962,32.6325525 C62.4461268,33.127691 63.0986681,33.3354924 63.5444581,32.9955047 C63.6656767,32.9025262 63.7721678,32.7742607 63.8492039,32.599506 C64.0366963,32.1721409 64.0021433,31.6809232 63.6906001,31.3336541 C63.4980098,31.1152106 63.2657685,30.7567393 63.2657685,30.252639 C63.2657685,29.373264 63.98515,28.6451191 64.81782,28.6227147 C65.0783833,28.6283158 65.3389467,28.7011303 65.5938457,28.8467593 C66.1404623,29.1576211 66.8519137,28.9795057 67.1611911,28.3908285 C67.3469841,28.0379583 67.3090325,27.6055523 67.1068126,27.262204 C66.9533068,27.0017521 66.8740049,26.7250571 66.8740049,26.43828 C66.8740049,25.5589051 67.5933864,24.8251591 68.4260563,24.8083557 C68.9245254,24.8195579 69.281384,25.0492036 69.496632,25.2396415 C69.8308328,25.5477028 70.3179731,25.6205173 70.7314758,25.4356805 C71.1449786,25.2508438 71.4055419,24.8363613 71.3942131,24.3882721 C71.3942131,24.3602666 71.3942131,24.332261 71.3885487,24.3042554 C71.4168708,23.4472849 72.1249235,22.7471456 72.9462645,22.7247411 C73.5127067,22.7359434 74.028169,23.0440047 74.3227189,23.5369027 C74.5832823,23.9793908 75.1100735,24.1922331 75.614207,24.0466041 C76.1070116,23.9065763 76.4468769,23.4472849 76.4298836,22.9375835 C76.4298836,22.8983757 76.4242192,22.8591679 76.4185548,22.8199601 C76.4468769,21.9629896 77.160594,21.2628502 77.9762707,21.2404458 L78.061237,21.2460469 L78.2198408,21.2460469 L78.2538273,21.2404458 C79.1261482,21.2628502 79.8398653,21.9685907 79.862523,22.8255612 C79.8568585,22.864769 79.8568585,22.9095779 79.8511941,22.9375835 C79.8313686,23.5273808 80.2901868,24.0499648 80.919504,24.0880524 C81.3567973,24.1143776 81.7578383,23.8578466 81.9917789,23.4920938 C82.2902939,23.025521 82.7898959,22.7353832 83.2838334,22.7247411 C84.1561543,22.7471456 84.8698714,23.452886 84.8925291,24.3098565 C84.8925291,24.3378621 84.8925291,24.3658677 84.8868647,24.3882721 C84.8755358,24.8363613 85.1360992,25.2508438 85.549602,25.4356805 C85.9631047,25.6205173 86.4502449,25.5477028 86.7844458,25.2396415 C86.9996938,25.0492036 87.3565524,24.8195579 87.7983772,24.8083557 C88.6876914,24.8251591 89.4070729,25.5589051 89.4070729,26.43828 C89.4070729,26.7351391 89.327771,27.0207959 89.1578383,27.2896494 C88.8661206,27.7584627 88.9590171,28.3701044 89.395744,28.734737 C89.7701623,29.0478393 90.3145132,29.0411179 90.7478414,28.8137127 C90.9829149,28.689928 91.2185548,28.6277557 91.4066136,28.6227147 C92.2959277,28.6451191 93.0153092,29.373264 93.0153092,30.252639 C93.0153092,30.7567393 92.7887324,31.1152106 92.5904776,31.3336541 C92.215493,31.7514972 92.2013319,32.3961855 92.6074709,32.8386735 C92.8640692,33.1187293 93.2611451,33.2307516 93.6395285,33.1792213 L93.7403552,33.1652185 C94.6013472,33.2156285 95.2924066,33.9325712 95.2924066,34.7951428 C95.2924066,35.2824398 95.0658298,35.7473323 94.6693203,36.0609947 C94.3691059,36.2962415 94.2105021,36.6659151 94.2444887,37.0411897 C94.2841396,37.4164644 94.5107165,37.7525313 94.8449173,37.9261658 C95.3943662,38.2118227 95.7342315,38.7607319 95.7342315,39.3600511 C95.7342315,40.2002183 95.0884874,40.8947565 94.2331598,40.9731721 C93.7573484,41.017981 93.3608389,41.3540479 93.2418861,41.8133393 C93.1229333,42.2726307 93.3098592,42.7543265 93.7063686,43.0175789 C94.3838334,43.4667883 94.6511941,44.3327206 94.2637477,45.129199 C94.0111145,45.6495426 93.4639314,45.9408005 92.8827618,45.993451 C92.5111758,46.0270577 92.1792407,46.2326186 91.9957134,46.546281 C91.8031231,46.8655445 91.7917942,47.2632237 91.9560625,47.5992905 C92.0693509,47.8345373 92.1259951,48.0697841 92.1259951,48.2994298 C92.1259951,49.1250341 91.4796846,49.833015 90.6356859,49.9131109 C90.218218,49.9534389 89.9027097,50.2671014 89.7667636,50.6591794 C89.5441519,51.3049879 88.9346601,51.7441152 88.3138396,51.7609186 C88.0294856,51.7536371 87.7587263,51.6690603 87.5185548,51.5279122 C88.3223362,50.0060894 88.9108696,48.2759052 89.2263778,46.3984116 C89.2433711,46.3586437 89.2705603,46.325037 89.283022,46.2830286 C89.3204072,46.2550231 89.3623239,46.2286978 89.4048071,46.1990119 C89.8828843,45.8663057 90.6827006,45.3106751 91.0758114,43.6930733 C91.6790723,41.2128998 90.9534599,40.1178819 90.2391764,39.635626 C89.7135181,39.2821956 89.0638089,39.2009795 88.451485,39.3774146 C88.3597214,39.2726737 88.2764544,39.1628919 88.2096142,39.0447084 C87.580297,37.9233653 88.3296999,36.4967614 88.3619871,36.4362694 C88.569305,36.0486722 88.5290876,35.5764983 88.2583282,35.2292292 C87.9875689,34.8808399 87.536681,34.7212081 87.1044856,34.8214681 C86.851286,34.8791595 86.1936467,34.9777392 85.5552664,34.6427925 C84.4892223,34.0832412 84.3736681,32.7440147 84.3725352,32.7322524 C84.3334507,32.1637392 83.8684017,31.7145299 83.2928965,31.6893249 C82.7224893,31.6742018 82.2138242,32.0702006 82.1231935,32.6336728 C82.0246326,33.2503555 81.5539192,33.7415732 80.9523576,33.8552758 C80.3060472,33.9801807 79.6484078,33.6418734 79.3510257,33.0403137 C79.1946877,32.7244108 78.8967391,32.4986859 78.5472443,32.4320326 C78.1960502,32.363699 77.8363595,32.4650792 77.5723974,32.7020063 C77.5344458,32.7361731 76.6258726,33.5348921 75.496387,33.2990852 C74.7549143,33.1456146 74.297229,32.6415143 74.1352266,32.4314725 C73.8355787,32.0444355 73.3161513,31.8982464 72.8516687,32.0634793 C72.3871862,32.2292723 72.0847061,32.6784817 72.1033987,33.1663387 C72.1039651,33.1781011 72.1402174,34.3772997 71.2695958,34.9402117 C70.7365738,35.2841201 70.1491733,35.23315 69.9214636,35.1933821 C69.5272198,35.1289693 69.1307103,35.2689971 68.8712799,35.5675365 C68.6118494,35.8655158 68.5297152,36.2760775 68.654899,36.6496718 C68.7342009,36.8860389 68.9590784,37.7222853 68.5376454,38.5663732 C68.34109,38.9606917 68.0663656,39.228985 67.8267606,39.4121415 C67.181583,39.1880969 66.4808941,39.2592311 65.9212492,39.635626 C65.2063993,40.1178819 64.4807869,41.2128998 65.0840478,43.6930733 C65.477725,45.3106751 66.2775413,45.8663057 66.7550521,46.1990119 C66.7907379,46.2236568 66.824158,46.2455012 66.8558788,46.2684657 C67.1702541,48.2294159 67.7865432,50.0301742 68.6299755,51.6057677 C68.6282762,51.6068879 68.6265769,51.6085683 68.6243111,51.6096885 C68.4317208,51.7049074 68.2278016,51.7553175 68.0238824,51.7609186 C67.3498163,51.7441152 66.7437232,51.3072283 66.5171464,50.6631001 C66.3698714,50.2542188 66.0243417,49.9685619 65.5881813,49.9069497 C65.5088794,49.8957475 65.4295775,49.8789441 65.35594,49.8565397 C65.0783833,49.7781241 64.7385181,49.531675 64.7385181,49.531675 C64.2853644,49.1339959 63.6509492,49.0779847 63.2147887,49.3692427 C62.8805879,49.5876862 62.6710043,50.0133709 62.7219841,50.4054489 C62.7559706,50.6855046 62.9202388,50.8759425 63.0731782,51.0607793 C63.2940906,51.3184305 63.5206675,51.4472562 63.7982241,51.6096885 C64.0587875,51.7665197 64.3420086,51.8953453 64.6422229,51.9849632 C65.3049602,53.1780005 66.579455,53.9677577 68.0238824,54.0013644 C68.6696265,53.984561 69.2870484,53.8165276 69.8308328,53.5084663 C69.833665,53.506786 69.8364972,53.5051056 69.8393295,53.5034253 C71.938564,56.2894196 74.8676363,58 78.0544397,58 C81.266733,58 84.2173301,56.2602938 86.3199633,53.4339715 C86.9039651,53.7846012 87.5791641,53.9823206 88.3138396,54.0013644 C89.7129516,53.9677577 90.981782,53.1780005 91.6445193,51.9849632 C93.2475505,51.486464 94.3917636,50.0021686 94.3917636,48.2994298 C94.3917636,48.1706042 94.3860992,48.0361775 94.3691059,47.9073518 C95.7512247,47.3080326 96.7085119,45.9413606 96.7085119,44.3730486 C96.7085119,43.7345215 96.5499081,43.1240001 96.2610227,42.5750908 C97.314605,41.8861538 98,40.6987175 98,39.3600511 Z" id="Fill-157" fill="#1F2C46"></path>
                            <path d="M29.4702339,21.3215904 L32.9134459,21.3215904 C33.5624787,21.3215904 34.1102238,21.7400595 34.1102238,22.2343548 L34.1102238,25.8597571 C34.1102238,26.4897413 34.6166618,27 35.2419287,27 C35.8666298,27 36.3736335,26.4897413 36.3736335,25.8597571 L36.3736335,22.2343548 C36.3736335,20.4738198 34.8215003,19.0411046 32.9134459,19.0411046 L29.4702339,19.0411046 C28.8336499,19.0411046 28.4556605,18.6978915 28.3249486,18.4031387 C28.2129098,18.151145 28.2457292,17.9077031 28.4234069,17.6785143 L46.3473485,2.8080366 C47.2380002,2.09538479 47.7172772,2.09937564 48.6362216,2.7949238 L66.5765729,17.6785143 C66.7536847,17.9077031 66.7865041,18.151145 66.6744653,18.4031387 C66.5443193,18.6978915 66.165764,19.0411046 65.5303117,19.0411046 L61.2705746,19.0411046 C59.3630861,19.0411046 57.8109529,20.4738198 57.8109529,22.2343548 L57.8109529,25.8597571 C57.8109529,26.4897413 58.3179567,27 58.9426577,27 C59.5673588,27 60.0743626,26.4897413 60.0743626,25.8597571 L60.0743626,22.2343548 C60.0743626,21.7400595 60.6221077,21.3215904 61.2705746,21.3215904 L65.5303117,21.3215904 C66.944377,21.3215904 68.2039645,20.5422344 68.7403926,19.3352873 C69.2230647,18.249776 69.0233188,17.0120424 68.2192425,16.104409 C68.1801987,16.0610798 68.1388914,16.020031 68.0941891,15.9835433 L50.0361405,1.00360221 C48.2604956,-0.342454524 46.6410259,-0.33675331 44.9247955,1.03438877 L26.9057907,15.9835433 C26.8616542,16.020031 26.8197811,16.0610798 26.7813031,16.104409 C25.9772268,17.0114722 25.7769151,18.249776 26.2590214,19.3352873 C26.7954495,20.5416642 28.0556028,21.3215904 29.4702339,21.3215904" id="Fill-158" fill="#1F2C46"></path>
                            <path d="M10.9886035,32.4828465 C11.7603816,32.1189113 12.6087741,31.9344511 13.5089941,31.9344511 L13.6013821,31.935005 C13.8869964,31.9344511 14.1635971,31.8358507 14.3748502,31.6475128 C15.3347844,30.7911297 16.9476316,29.6948927 19.1801546,29.335389 C19.6651918,29.2578382 20.199803,29.2157391 20.7254008,29.2157391 C22.1489651,29.2157391 24.2288225,29.5132021 26.0546129,30.9307212 C27.9981416,32.4385317 28.6859817,34.4559622 28.9124451,35.12013 C29.334388,36.3554046 29.3828354,37.3807378 29.4115658,37.9928358 C29.4707167,39.2369733 29.3293179,40.5176705 29.0070865,41.7834115 L26.6157011,39.4319583 C26.1757313,38.9993353 25.4619774,38.9993353 25.0220076,39.4319583 C24.5820378,39.8645814 24.5820378,40.5658628 25.0220076,40.9984859 L27.1041184,43.0458289 C24.8592019,42.4481332 22.7196302,41.4870564 20.8245489,40.2030356 C18.780182,38.8187525 17.0231194,37.0910299 15.6023717,35.0680601 C15.5404041,34.9794306 15.462663,34.9057572 15.3792884,34.839839 C15.307744,34.6908305 15.2345096,34.5418221 15.1770488,34.3872743 C15.0469168,34.0360796 14.9539655,33.6693748 14.900448,33.2982385 C14.8136934,32.6933417 14.2424649,32.2706895 13.6272959,32.3565494 C13.0110001,32.4424092 12.5822971,33.0029912 12.6690517,33.6089959 C12.7445395,34.1324643 12.8757981,34.6503933 13.0600108,35.1461649 C13.1062048,35.2702463 13.1698624,35.3871266 13.2222532,35.5084383 C12.2628824,36.411352 11.3998429,37.405111 10.6590487,38.4825141 C9.79882594,39.7327449 9.10366233,41.0732671 8.57919125,42.4874626 C7.37533012,40.2711695 7.1099962,37.8853724 7.91895482,35.9172421 C8.59271145,34.2809188 9.62531671,33.1254108 10.9886035,32.4828465 Z M30.2126376,53.0726024 C29.0808842,53.5334761 27.6342229,53.9173529 25.972365,53.925108 C27.0686278,52.8366262 28.0139151,51.5033051 28.7406259,49.9689058 C28.7648496,50.0392555 28.7823132,50.111821 28.8076635,50.1816168 C29.1704556,51.1859005 29.6414092,52.1536246 30.2126376,53.0726024 Z M18.9998853,54.7842609 C14.763556,54.7842609 11.0618379,50.7643561 10.1137339,45.1917722 C10.5762374,43.2203183 11.3857594,41.3807009 12.5259629,39.723328 C13.1090215,38.8752539 13.7754547,38.0820193 14.5151223,37.3558108 C15.9426301,39.1621921 17.6304017,40.7303815 19.5463267,42.0282507 C20.0054501,42.339562 20.4820372,42.6270542 20.9653843,42.9040216 C20.941724,42.9228553 20.9163736,42.942797 20.8960933,42.959969 C20.4279564,43.3626796 20.3806357,44.0628531 20.7907484,44.5231729 C21.2002978,44.9840467 21.9117983,45.0300233 22.3804986,44.6273127 C22.4227492,44.590753 22.5776681,44.471657 22.796808,44.4683334 C23.0593253,44.4644559 23.202414,44.6001699 23.2339612,44.6273127 C23.4474677,44.811219 23.7122382,44.9015104 23.9753188,44.9015104 C24.2412161,44.9015104 24.5031699,44.8034639 24.7138597,44.6228812 C25.7295647,44.9829388 26.7694934,45.2804018 27.8285757,45.4975442 C26.7987872,50.910041 23.15791,54.7842609 18.9998853,54.7842609 Z M7.78825956,53.0714945 C8.35892466,52.1530706 8.8287516,51.1859005 9.19098029,50.1838325 C9.216894,50.1129288 9.2343576,50.0398094 9.25914463,49.9683519 C9.98529203,51.5021973 10.930016,52.8349644 12.0251522,53.9234462 C10.5965177,53.9151372 9.16055984,53.628199 7.78825956,53.0714945 Z M5.83008395,35.0868939 C4.52538467,38.2603863 5.29885276,42.1750434 7.83445357,45.4044832 C7.78938624,46.798737 7.53588249,48.1553233 7.06830892,49.4393441 C6.63059245,50.6519074 6.00753657,51.8051996 5.21773157,52.8665386 C5.02506872,53.1246723 4.95577769,53.4531556 5.02788543,53.7655748 C5.09999316,54.077994 5.30561286,54.3449906 5.59291711,54.4967687 C7.64235407,55.5808191 9.8686803,56.1436168 12.0893731,56.1436168 C12.4025911,56.1436168 12.7152457,56.1319842 13.0267736,56.1098268 C13.5856086,56.0666199 14.1275432,55.9835297 14.654831,55.8793899 C16.0029076,56.5956276 17.4698493,57 18.9998853,57 C20.5316112,57 22.0002429,56.5945197 23.3500095,55.8771742 C23.8677205,55.9824218 24.4068385,56.066066 24.9786303,56.1103807 C25.3002984,56.1330921 25.6157697,56.1441708 25.9250443,56.1441708 C28.6933052,56.1441708 30.9494885,55.2722774 32.4096701,54.4951069 C32.6952843,54.3433288 32.900904,54.0763322 32.9724484,53.7644669 C33.0439928,53.4520477 32.9747018,53.1246723 32.7820389,52.8665386 C31.9916706,51.8051996 31.3691781,50.6519074 30.9303349,49.4371284 C30.4486778,48.1143321 30.190104,46.7128771 30.1579935,45.2859411 C30.1591202,45.2776321 30.1613735,45.2693231 30.1625002,45.2604601 C30.1664436,45.2349791 30.1641903,45.2100521 30.1664436,45.1840171 C30.1895406,45.1469035 30.2126376,45.1097899 30.2306646,45.0693526 C31.2801701,42.7522434 31.7753474,40.2695077 31.6626791,37.8898039 C31.6305686,37.209572 31.570291,35.9432771 31.0486367,34.414971 C30.7697825,33.5968093 29.9208267,31.1074264 27.4505735,29.1908121 C25.1172123,27.3805532 22.5055604,27 20.7254008,27 C20.0702344,27 19.4280249,27.0504081 18.8162359,27.1490085 C16.2828884,27.5567045 14.3996373,28.7205214 13.189016,29.7236973 C12.0662761,29.7646885 10.9998704,30.0194985 10.0140225,30.4842498 C8.12908126,31.3733151 6.72129045,32.9215628 5.83008395,35.0868939 Z" id="Fill-159" fill="#1F2C46"></path>
                            <path d="M21.0802977,50.2130501 C19.6960397,51.1308577 18.3028047,51.1308577 16.9203422,50.2130501 C16.3930913,49.8631098 15.6432101,49.9537381 15.243433,50.4152611 C14.843656,50.8762604 14.9471911,51.5337081 15.4738435,51.8831246 C16.5750258,52.6139131 17.7941064,53 18.9994222,53 C20.2053365,53 21.4244172,52.6139131 22.5255995,51.8831246 C23.0528503,51.5337081 23.1563854,50.8762604 22.7566084,50.4152611 C22.3574298,49.9537381 21.6069501,49.8631098 21.0802977,50.2130501" id="Fill-160" fill="#1F2C46"></path>
                            <path d="M19.943259,76.7097889 C19.5058433,76.7318047 19.0684276,76.7419659 18.6304439,76.7419659 C15.3140378,76.7419659 12.0425095,76.117055 8.99196127,74.9327161 L8.99196127,69.6291585 C8.99196127,69.0059411 8.48296849,68.5001414 7.85581668,68.5001414 C7.22809679,68.5001414 6.71967209,69.0059411 6.71967209,69.6291585 L6.71967209,73.9216813 C5.1733793,73.1477401 3.69923169,72.2264622 2.32676903,71.1589766 C2.86075698,66.9308077 5.7863293,62.1550656 11.2284619,60.5631516 C11.6715583,64.9945435 16.6137873,68.4380455 18.6020403,68.4380455 C19.9483716,68.4380455 22.237703,67.015484 23.8112632,65.2034117 C24.7769861,64.0913299 25.8336006,62.442965 25.9869801,60.4446048 C27.1123313,60.7703262 28.6631687,61.519429 30.1623115,62.7314288 C30.512244,63.0142476 31.0036266,63.0311829 31.3927561,62.8042504 C31.4103663,62.7940893 31.4279766,62.7839281 31.4455868,62.773767 C32.0937573,62.3989333 32.201123,61.4962842 31.6211212,61.0226615 C29.1687531,59.0186563 26.4982452,58.0002829 24.9076428,58.0002829 L24.7713054,58.0002829 C24.4531849,58.0115731 24.1464259,58.1583453 23.9419199,58.406729 C23.7317331,58.6551128 23.6408415,58.9768826 23.6919681,59.2930074 C23.9532813,61.054274 23.0330042,62.5953823 22.2206608,63.5776271 C20.8288837,65.2485723 19.0508174,66.1574311 18.607721,66.1800114 C17.7556126,66.1404958 13.4723475,63.4647254 13.4723475,59.925257 C13.4723475,59.7163888 13.4837089,59.5075206 13.5177932,59.2986525 C13.5746005,58.937367 13.4496246,58.5704365 13.1883113,58.3164077 C12.9213173,58.0623788 12.5520703,57.9551222 12.1885041,58.0172181 C5.52501605,59.2252664 0.508937681,64.7969655 0.00335333844,71.5710678 C-0.0250502763,71.9379984 0.128329243,72.2992838 0.412365391,72.5307323 C2.50514373,74.2366771 4.82628713,75.62311 7.29001667,76.6730959 C7.36443414,76.7159985 7.44396426,76.749869 7.52803896,76.7747074 C11.0228197,78.2283168 14.7987963,79 18.6304439,79 C19.1047843,79 19.5774204,78.9881453 20.0477843,78.9638715 C20.5817722,78.9362105 21.0316855,78.5461351 21.1083753,78.0205777 C21.1095114,78.0126746 21.1106475,78.005336 21.1117837,77.9974329 C21.2157409,77.2934907 20.658462,76.6736604 19.943259,76.7097889" id="Fill-161" fill="#1F2C46"></path>
                            <path d="M15.9646722,45.68944 C16.1977999,45.8977195 16.4855284,45.9999772 16.77203,45.9999772 C17.113746,45.9999772 17.4536215,45.8544325 17.6965651,45.5714986 C18.142575,45.0495453 18.0910415,44.257205 17.5806148,43.8011231 C17.3057696,43.5552028 16.5407429,43.014429 15.4530185,43 C14.4438212,43.0156837 13.7456654,43.5087791 13.4192867,43.8011231 C12.9088599,44.257205 12.8573264,45.0501726 13.3039499,45.5714986 C13.7505733,46.093452 14.5254159,46.1455219 15.0352292,45.68944 C15.0812412,45.6480351 15.249952,45.5131553 15.4886011,45.5093912 C15.7744892,45.5049998 15.9309301,45.6587 15.9646722,45.68944" id="Fill-162" fill="#1F2C46"></path>
                            <path d="M2.39303611,42 C2.4658827,42 2.53985869,41.9932113 2.61383468,41.9779366 C3.2254072,41.8568708 3.62352228,41.2611594 3.5021113,40.6484761 C3.04583189,38.3420034 3.23444244,36.0581599 4.04761366,34.0441686 C5.43000473,30.6192519 7.69897832,28.9492231 9.35863819,28.1521125 C9.92108161,27.8811288 10.1582566,27.2056497 9.88889358,26.6421847 C9.61896592,26.0792855 8.94471145,25.8416798 8.38226802,26.1109662 C6.36176342,27.0817553 3.60658121,29.099141 1.95369777,33.1955767 C0.975068795,35.6185893 0.744105581,38.3482264 1.28621973,41.0880466 C1.39294845,41.6266196 1.86503952,42 2.39303611,42" id="Fill-163" fill="#1F2C46"></path>
                            <path d="M68.2912186,86.9745584 C61.9435421,90.798689 54.6313144,92.8197659 47.1466654,92.8197659 C39.1329968,92.8197659 31.3863571,90.5256146 24.7436612,86.1847686 C24.2303162,85.8495576 23.5350331,85.983097 23.1901907,86.4829156 C22.8453482,86.9827343 22.9825015,87.659697 23.4958465,87.995453 C30.5085763,92.578305 38.6868289,95 47.1466654,95 C55.0478124,95 62.7670215,92.8660959 69.4690572,88.8293925 C69.9952778,88.5127136 70.1576225,87.8401113 69.8323733,87.3288465 C69.5065644,86.8159464 68.8157598,86.6589695 68.2912186,86.9745584" id="Fill-164" fill="#1F2C46"></path>
                            <path d="M38.3315023,64.5312003 L38.8820574,70.6342133 C38.9159725,71.0085134 39.1330291,71.3415387 39.4620055,71.5230346 C39.631581,71.6163269 39.8198098,71.6632558 40.0080386,71.6632558 C40.1843971,71.6632558 40.3613209,71.621981 40.5229828,71.5394314 L47.0211156,68.2120058 L47.0211156,87.7191445 C46.8928035,87.715752 46.7639261,87.7146212 46.635614,87.7100979 C46.4078176,87.7021822 46.1800212,87.6914395 45.9522248,87.6790005 C45.6684685,87.6631691 45.3852774,87.6439452 45.1020863,87.6218943 C44.8737247,87.6038012 44.6459283,87.584012 44.4181318,87.5613956 C44.1366365,87.5336907 43.8557065,87.5014624 43.5753417,87.4664071 C43.349241,87.4387021 43.1231404,87.4104317 42.897605,87.3782035 C42.6172401,87.3380595 42.3374406,87.2928269 42.0587715,87.245898 C41.8354971,87.2085811 41.612788,87.1712642 41.3906441,87.1299894 C41.1102793,87.0774065 40.831045,87.018604 40.5518107,86.9592362 C40.3341888,86.9128728 40.1165669,86.8682055 39.8995103,86.8173188 C39.6163192,86.7517315 39.3348239,86.6787939 39.0538939,86.6058563 C38.8441855,86.5515771 38.6344771,86.500125 38.4264645,86.441888 C38.137621,86.3616 37.8510384,86.272831 37.5644558,86.1851928 C37.3666177,86.1246941 37.1682144,86.0675879 36.9720721,86.0036968 C36.6679667,85.9047504 36.3666876,85.7967575 36.0654085,85.68933 C35.8907457,85.6271351 35.713822,85.5688981 35.5397244,85.5038762 C35.2723604,85.403799 35.0078227,85.2958061 34.7438501,85.1878132 L34.7438501,77.5497176 C34.7438501,76.9255073 34.2373847,76.4189018 33.6133469,76.4189018 C32.9887438,76.4189018 32.4828436,76.9255073 32.4828436,77.5497176 L32.4828436,84.1898682 C32.113169,84.0106339 31.7457555,83.8280071 31.3828639,83.6357685 C31.230246,83.5549151 31.0815848,83.4672769 30.9300974,83.3847273 C30.637297,83.2235861 30.3439314,83.0635756 30.0550879,82.8939533 C29.8821209,82.7921798 29.7125454,82.6841869 29.5407089,82.5795865 C29.2789974,82.4201414 29.0167206,82.2612618 28.7589659,82.0944665 C28.5786506,81.9779924 28.4017268,81.8558643 28.2236726,81.7354324 C27.9800491,81.5714641 27.7358604,81.4080613 27.4956285,81.2373081 C27.3147479,81.1089605 27.1361284,80.9749588 26.9569437,80.8426533 C26.7257557,80.6713347 26.4945678,80.5000161 26.2673367,80.3236089 C26.0875866,80.1839531 25.9106629,80.0397741 25.7337391,79.8967259 C25.5890347,79.7796864 25.446026,79.6609508 25.3035826,79.5416497 C26.0208869,72.223575 31.2698136,66.2342089 38.3315023,64.5312003 Z M44.4215234,67.0025983 L40.9830977,68.7632785 L40.6801228,65.4047555 C41.8338014,66.1098192 43.0982693,66.6469567 44.4215234,67.0025983 Z M49.2821221,68.3256528 L55.5586763,71.5394314 C55.7209035,71.621981 55.897262,71.6632558 56.0741858,71.6632558 C56.2624146,71.6632558 56.4500781,71.6163269 56.6196536,71.5230346 C56.94863,71.3415387 57.1656867,71.0085134 57.200167,70.6342133 L57.7495916,64.5470317 C64.716318,66.2754837 69.9047627,72.1749499 70.6904625,79.3703311 C68.7007767,81.0637278 66.5375587,82.5117375 64.2499854,83.7098369 L64.2499854,77.5497176 C64.2499854,76.9255073 63.7440852,76.4189018 63.1194821,76.4189018 C62.4954443,76.4189018 61.9889789,76.9255073 61.9889789,77.5497176 L61.9889789,84.7982471 C58.0016938,86.5357457 53.6956069,87.5319944 49.2821221,87.7061401 L49.2821221,68.3256528 Z M55.4071888,65.343126 L55.0985615,68.7632785 L51.6929204,67.0189951 C52.9946949,66.6565686 54.2422052,66.1002072 55.4071888,65.343126 Z M23.3896406,80.89354 C26.297295,83.405082 29.5554054,85.4298078 33.033964,86.9292696 C33.1068814,86.9733714 33.1848861,87.0078613 33.2674129,87.0344355 C37.8566909,88.9760463 42.8269485,90 47.8916031,90 L48.1516189,90 C48.1719679,90 48.1906212,89.9949113 48.2104051,89.9943459 C53.5345102,89.9474171 58.7331295,88.769107 63.4885914,86.5973751 C63.5581174,86.5730626 63.6236866,86.543096 63.6864295,86.5063445 C66.9027113,85.014233 69.9155025,83.0697951 72.6157096,80.6945165 C72.8830736,80.4598722 73.0238212,80.1132771 72.9966892,79.7593318 C72.3166914,70.8784696 65.7275532,63.6011042 56.9723706,62.0631947 C56.9525868,62.0598022 56.9294115,62.0564098 56.9045404,62.0541482 C56.8101434,62.0349243 56.7202684,62.0219199 56.6202188,62.0094809 C56.5908258,62.0060885 56.5625632,62.0089155 56.5337353,62.0077847 C56.4986897,62.0049577 56.4636441,62.0055231 56.4285985,62.0060885 C56.411641,62.0066539 56.3946834,62.0060885 56.3777259,62.0077847 C56.1301457,62.0213545 55.8842612,62.110689 55.6847274,62.2887925 C53.4909858,64.2513233 50.9563975,65.2464413 48.1516189,65.2464413 C45.2281374,65.2464413 42.3464846,64.1682084 40.2460095,62.2887925 C39.9978641,62.0682834 39.6638004,61.9619867 39.3359544,62.012308 C39.281125,62.0202237 39.2217736,62.030401 39.1612917,62.04284 L39.036371,62.0637601 C30.1805737,63.6231551 23.5857829,70.9836354 23.0001822,79.9640094 C22.9990517,79.9826679 23.0035737,80.0001955 23.0030085,80.018854 C23.0024432,80.0736986 23.0047042,80.1279777 23.0114873,80.1822569 C23.015444,80.2116581 23.019966,80.2404939 23.0261838,80.2693297 C23.0369236,80.3207818 23.0521854,80.3711031 23.0702734,80.4214244 C23.0798827,80.4479986 23.0883615,80.4740074 23.1002318,80.5000161 C23.1234071,80.5525991 23.1528002,80.6017896 23.1850195,80.65098 C23.197455,80.6707693 23.2076296,80.6916894 23.2217609,80.7109133 C23.2703725,80.7759352 23.3252019,80.8375647 23.3896406,80.89354 Z" id="Fill-165" fill="#1F2C46"></path>
                        </g>
                    </g>
                </g>
            </g>
        </g>
    </g>
</svg>