<?xml version="1.0" encoding="utf-8"?>
<!-- Generator: Adobe Illustrator 22.0.1, SVG Export Plug-In . SVG Version: 6.00 Build 0)  -->
<svg version="1.1" id="Layer_1" xmlns="http://www.w3.org/2000/svg" xmlns:xlink="http://www.w3.org/1999/xlink" x="0px" y="0px"
	 viewBox="0 0 162.5 34.9" style="enable-background:new 0 0 162.5 34.9;" xml:space="preserve">
<style type="text/css">
	.st0{fill-rule:evenodd;clip-rule:evenodd;fill:#FFFFFF;}
</style>
<g>
	<g>
		<polygon class="st0" points="4.2,0 8.4,0 8.4,10.1 4.2,13.5 4.2,0 		"/>
		<polygon class="st0" points="17.8,12.9 17.8,31.9 13.6,31.9 13.6,12.9 8.4,17.1 8.4,31.9 4.2,31.9 4.2,20.5 2.6,21.8 0,18.5
			4.2,15.1 4.2,15.1 8.4,11.7 8.4,11.7 15.7,5.9 23,11.7 23,11.7 27.2,15.1 27.2,15.1 31.4,18.5 28.8,21.8 27.2,20.5 27.2,31.9
			23,31.9 23,17.1 17.8,12.9 		"/>
		<polygon class="st0" points="23,0 27.2,0 27.2,13.5 23,10.1 23,0 		"/>
	</g>
	<g>
		<polygon class="st0" points="39.7,31.5 39.8,19.7 42.4,19.7 42.3,24.2 47,24.3 47.1,19.7 49.7,19.7 49.6,31.6 47,31.6 47,26.4
			42.3,26.4 42.3,31.5 39.7,31.5 		"/>
		<path class="st0" d="M51.2,27.3c0,0.7,0.1,1.3,0.3,1.8c0.2,0.6,0.5,1,0.9,1.4c0.4,0.4,0.8,0.7,1.4,0.9c0.6,0.2,1.1,0.3,1.8,0.3
			c0.7,0,1.3-0.1,1.8-0.3c0.5-0.2,1-0.5,1.4-0.9c0.4-0.4,0.7-0.9,0.9-1.4c0.2-0.6,0.3-1.2,0.3-1.8c0-0.7-0.1-1.3-0.3-1.9
			c-0.2-0.6-0.5-1-0.9-1.4c-0.4-0.4-0.8-0.7-1.4-0.9c-0.5-0.2-1.1-0.3-1.8-0.3c-0.7,0-1.3,0.1-1.8,0.3c-0.5,0.2-1,0.5-1.4,0.9
			c-0.4,0.4-0.7,0.9-0.9,1.4C51.3,26,51.2,26.6,51.2,27.3L51.2,27.3z M53.6,27.3c0-0.8,0.2-1.4,0.5-2c0.3-0.5,0.9-0.8,1.6-0.8
			c0.4,0,0.8,0.1,1.1,0.4c0.3,0.3,0.6,0.6,0.7,1c0.2,0.4,0.2,0.9,0.2,1.4c0,0.5-0.1,0.9-0.2,1.3c-0.2,0.4-0.4,0.8-0.7,1
			c-0.3,0.3-0.7,0.4-1.2,0.4c-0.7,0-1.3-0.3-1.6-0.8C53.7,28.8,53.6,28.1,53.6,27.3L53.6,27.3z"/>
		<path class="st0" d="M61.4,31.6l0.1-8.6l2.2,0l0,1.2c0.3-0.4,0.7-0.8,1.2-1c0.5-0.2,1-0.4,1.6-0.4c0.5,0,1,0.1,1.4,0.4
			c0.4,0.2,0.7,0.6,0.9,1.1c0.3-0.4,0.6-0.8,1.1-1c0.4-0.3,1-0.4,1.5-0.4c0.6,0,1.2,0.1,1.6,0.3c0.5,0.2,0.8,0.5,1.1,1
			c0.3,0.5,0.4,1,0.4,1.7l0,5.7l-2.3,0l0-4.9c0-0.7-0.1-1.2-0.3-1.6c-0.2-0.3-0.6-0.5-1.2-0.5c-0.6,0-1,0.2-1.2,0.6
			c-0.2,0.4-0.3,0.9-0.3,1.6l0,4.8l-2.3,0l0-4.8c0-0.5,0-0.9-0.1-1.2c-0.1-0.3-0.2-0.5-0.4-0.7c-0.2-0.2-0.5-0.3-1-0.3
			c-0.3,0-0.7,0.1-1.1,0.4c-0.4,0.3-0.5,0.8-0.5,1.5l0,5L61.4,31.6L61.4,31.6z"/>
		<path class="st0" d="M83.9,28.1l-6.1,0c0,0.7,0.2,1.3,0.5,1.6c0.3,0.4,0.9,0.6,1.5,0.6c0.3,0,0.6-0.1,0.8-0.2
			c0.3-0.1,0.5-0.3,0.7-0.4c0.2-0.2,0.3-0.3,0.3-0.5l2,0c-0.3,1-0.8,1.7-1.5,2.2c-0.7,0.5-1.5,0.7-2.5,0.7c-0.9,0-1.6-0.2-2.3-0.6
			c-0.6-0.4-1.1-0.9-1.5-1.6c-0.3-0.7-0.5-1.5-0.5-2.3c0-0.8,0.2-1.6,0.6-2.3c0.4-0.7,0.9-1.2,1.5-1.6c0.7-0.4,1.4-0.6,2.2-0.6
			c0.7,0,1.3,0.1,1.8,0.4c0.5,0.2,1,0.6,1.3,1c0.3,0.4,0.6,0.9,0.8,1.5c0.2,0.6,0.3,1.2,0.3,1.8C84,27.8,84,27.9,83.9,28.1
			L83.9,28.1z M77.8,26.5l3.8,0c-0.1-0.6-0.3-1.1-0.6-1.4c-0.3-0.3-0.7-0.4-1.3-0.4c-0.4,0-0.8,0.1-1.1,0.3
			c-0.3,0.2-0.5,0.4-0.6,0.7C77.9,26,77.9,26.3,77.8,26.5L77.8,26.5z"/>
		<path class="st0" d="M84.7,29l2.2,0c0,0.5,0.2,0.9,0.5,1.1c0.3,0.2,0.8,0.4,1.3,0.4c0.4,0,0.8-0.1,1.1-0.3
			c0.3-0.2,0.4-0.5,0.5-0.8c0-0.3-0.2-0.6-0.6-0.7c-0.4-0.2-1.1-0.4-2.1-0.6c-0.8-0.2-1.5-0.4-2-0.8c-0.5-0.3-0.7-0.8-0.7-1.5
			c0-1,0.4-1.7,1.1-2.1c0.7-0.4,1.6-0.6,2.7-0.6c1,0,1.9,0.2,2.5,0.6c0.7,0.5,1.1,1.2,1.2,2.2l-2.2,0c0-0.4-0.2-0.8-0.5-1
			c-0.3-0.1-0.6-0.2-1-0.2c-0.9,0-1.3,0.3-1.3,0.8c0,0.2,0.1,0.4,0.2,0.5c0.1,0.1,0.3,0.2,0.6,0.3c0.3,0.1,0.9,0.3,1.9,0.5
			c0.8,0.2,1.5,0.5,2,0.8c0.5,0.4,0.7,0.9,0.7,1.6c0,0.7-0.2,1.3-0.5,1.7c-0.4,0.4-0.8,0.8-1.4,1c-0.6,0.2-1.2,0.3-1.9,0.3
			c-1.1,0-2.1-0.3-2.8-0.7C85.2,30.8,84.8,30.1,84.7,29L84.7,29z"/>
		<path class="st0" d="M96.6,20.7l-2.4,0l0,2.6l-1.4,0l0,1.6l1.4,0l0,5.1c0,0.7,0.2,1.3,0.8,1.6c0.5,0.3,1.1,0.5,1.9,0.5
			c0.4,0,0.9,0,1.3-0.1l0-1.8c-0.3,0.1-0.5,0.1-0.7,0.1c-0.7,0-1-0.4-1-1l0-4.3l1.7,0l0-1.6l-1.7,0L96.6,20.7L96.6,20.7z"/>
		<path class="st0" d="M104.3,28.6l0-0.9c-0.2,0.2-0.7,0.3-1.3,0.4c-0.7,0.1-1.2,0.2-1.5,0.3c-0.3,0.1-0.5,0.5-0.5,1
			c0,0.7,0.5,1.1,1.4,1.1c0.6,0,1.1-0.2,1.4-0.5C104.1,29.8,104.3,29.3,104.3,28.6L104.3,28.6z M101.2,26l-2.3,0
			c0.1-0.7,0.3-1.3,0.7-1.7c0.4-0.4,0.9-0.7,1.4-0.9c0.6-0.2,1.2-0.3,1.9-0.3c1,0,1.9,0.1,2.5,0.4c0.9,0.4,1.3,1.1,1.3,2l0,4.5
			c0,1,0.1,1.6,0.3,1.9l-2.3,0c-0.1-0.3-0.2-0.6-0.2-0.8c-0.7,0.7-1.6,1.1-2.8,1.1c-0.5,0-1-0.1-1.5-0.3c-0.5-0.2-0.8-0.5-1.1-0.9
			c-0.3-0.4-0.4-0.9-0.4-1.4c0-0.6,0.1-1.1,0.4-1.4c0.3-0.4,0.6-0.6,1-0.8c0.4-0.2,0.8-0.3,1.3-0.3c0.5-0.1,1-0.1,1.6-0.2
			c0.4-0.1,0.8-0.1,1-0.3c0.2-0.1,0.4-0.3,0.4-0.6c0-0.4-0.1-0.7-0.4-0.9c-0.3-0.2-0.6-0.3-1-0.3c-0.4,0-0.8,0.1-1.1,0.4
			C101.5,25.2,101.3,25.6,101.2,26L101.2,26z"/>
		<path class="st0" d="M115.7,23.4l-3.1,8.4l-0.4,1.2c-0.3,0.7-0.7,1.2-1.2,1.5c-0.6,0.3-1.2,0.4-2,0.4c-0.3,0-0.7,0-1.2-0.1l0-1.9
			c0.4,0,0.9,0.1,1.3,0.1c0.3,0,0.5-0.1,0.7-0.3c0.2-0.2,0.2-0.4,0.2-0.7c0-0.2,0-0.3-0.1-0.5l-2.9-8l2.5,0l1.9,5.9l1.9-5.9
			L115.7,23.4L115.7,23.4z"/>
		<polygon class="st0" points="116.5,32 116.6,20.1 120.2,20.2 122.9,28.3 125.5,20.2 129.2,20.2 129.1,32.1 126.7,32.1 126.7,23.7
			123.8,32 121.8,32 119,23.7 119,23.7 118.9,32 116.5,32 		"/>
		<path class="st0" d="M136.2,28.8l0-0.9c-0.2,0.2-0.7,0.3-1.3,0.4c-0.7,0.1-1.2,0.2-1.5,0.3c-0.3,0.1-0.5,0.5-0.5,1
			c0,0.7,0.5,1.1,1.4,1.1c0.6,0,1.1-0.2,1.4-0.5C136,30,136.2,29.5,136.2,28.8L136.2,28.8z M133.1,26.2l-2.3,0
			c0.1-0.7,0.3-1.3,0.7-1.7c0.4-0.4,0.9-0.7,1.4-0.9c0.6-0.2,1.2-0.3,1.9-0.3c1,0,1.9,0.1,2.5,0.4c0.9,0.4,1.3,1.1,1.3,2l0,4.5
			c0,1,0.1,1.6,0.3,1.9l-2.3,0c-0.1-0.3-0.2-0.6-0.2-0.8c-0.7,0.7-1.6,1.1-2.8,1.1c-0.5,0-1-0.1-1.5-0.3c-0.5-0.2-0.8-0.5-1.1-0.9
			c-0.3-0.4-0.4-0.9-0.4-1.4c0-0.6,0.1-1.1,0.4-1.4c0.3-0.4,0.6-0.6,1-0.8c0.4-0.2,0.8-0.3,1.3-0.3c0.5-0.1,1-0.1,1.6-0.2
			c0.4-0.1,0.8-0.1,1-0.3c0.2-0.1,0.4-0.3,0.4-0.6c0-0.4-0.1-0.7-0.4-0.9c-0.3-0.2-0.6-0.3-1-0.3c-0.4,0-0.8,0.1-1.1,0.4
			S133.2,25.8,133.1,26.2L133.1,26.2z"/>
		<path class="st0" d="M143,21l-2.4,0l0,2.6l-1.4,0l0,1.6l1.4,0l0,5.1c0,0.7,0.2,1.3,0.8,1.6c0.5,0.3,1.1,0.5,1.9,0.5
			c0.4,0,0.9,0,1.3-0.1l0-1.8c-0.3,0.1-0.5,0.1-0.7,0.1c-0.7,0-1-0.4-1-1l0-4.3l1.7,0l0-1.6l-1.7,0L143,21L143,21z"/>
		<path class="st0" d="M153.4,26.7c0-0.5-0.2-1-0.4-1.4c-0.2-0.4-0.5-0.8-0.9-1c-0.4-0.3-0.8-0.5-1.2-0.6c-0.5-0.1-0.9-0.2-1.4-0.2
			c-0.9,0-1.7,0.2-2.3,0.6c-0.7,0.4-1.2,0.9-1.5,1.6c-0.4,0.7-0.5,1.5-0.5,2.4c0,0.8,0.2,1.6,0.5,2.3c0.4,0.7,0.9,1.2,1.5,1.6
			c0.6,0.4,1.4,0.6,2.2,0.6c1.1,0,2.1-0.3,2.8-0.9c0.7-0.6,1.2-1.5,1.3-2.6l-2.2,0c-0.1,0.5-0.3,0.9-0.6,1.3
			c-0.3,0.3-0.8,0.5-1.3,0.5c-0.4,0-0.8-0.1-1.1-0.4c-0.3-0.3-0.5-0.6-0.7-1c-0.1-0.4-0.2-0.8-0.2-1.3c0-0.5,0.1-0.9,0.2-1.4
			c0.2-0.4,0.4-0.8,0.7-1.1c0.3-0.3,0.7-0.4,1.1-0.4c1,0,1.6,0.5,1.7,1.5L153.4,26.7L153.4,26.7z"/>
		<path class="st0" d="M154.6,32.2l0.1-11.8l2.3,0l0,4.5c0.3-0.5,0.7-0.9,1.1-1.1c0.4-0.2,0.9-0.4,1.4-0.4c0.8,0,1.4,0.1,1.9,0.4
			c0.5,0.3,0.8,0.7,0.9,1.2c0.2,0.5,0.3,1.1,0.3,1.9l0,5.3l-2.3,0l0-4.9c0-0.7-0.1-1.2-0.3-1.6c-0.2-0.3-0.6-0.5-1.1-0.5
			c-0.6,0-1.1,0.2-1.4,0.6c-0.3,0.4-0.4,1-0.4,1.9l0,4.5L154.6,32.2L154.6,32.2z"/>
	</g>
</g>
</svg>
