<svg xmlns="http://www.w3.org/2000/svg" viewBox="0 0 16.08 20.75"><defs><style>.cls-1{fill:#1ea0f2;stroke:#009ee1;stroke-width:0.75px;}</style></defs><title>male</title><g id="Layer_2" data-name="Layer 2"><g id="Layer_1-2" data-name="Layer 1"><path class="cls-1" d="M14.05,14.67l-3.19-1.59a.88.88,0,0,1-.49-.79V11.16c.08-.09.16-.2.24-.31a7.4,7.4,0,0,0,1-1.94,1.32,1.32,0,0,0,.78-1.2V6.37A1.34,1.34,0,0,0,12,5.5V3.73a3,3,0,0,0-.7-2.18A4.18,4.18,0,0,0,8,.38a4.18,4.18,0,0,0-3.3,1.17A3,3,0,0,0,4,3.73V5.5a1.33,1.33,0,0,0-.33.87V7.71a1.3,1.3,0,0,0,.5,1,7,7,0,0,0,1.16,2.42v1.1a.87.87,0,0,1-.45.77l-3,1.63A3,3,0,0,0,.38,17.3v1.07c0,1.59,5,2,7.66,2s7.67-.42,7.67-2v-1a3,3,0,0,0-1.66-2.69Zm1,3.7c0,.46-2.47,1.34-7,1.34s-7-.88-7-1.34V17.3a2.35,2.35,0,0,1,1.22-2.06l3-1.62A1.54,1.54,0,0,0,6,12.26V10.92L6,10.83A6.47,6.47,0,0,1,4.83,8.47l0-.13-.12-.07a.68.68,0,0,1-.3-.56V6.37a.64.64,0,0,1,.22-.49l.11-.1V3.66A2.25,2.25,0,0,1,5.24,2,3.58,3.58,0,0,1,8,1a3.63,3.63,0,0,1,2.8.94,2.35,2.35,0,0,1,.54,1.68V5.78l.11.1a.65.65,0,0,1,.23.49V7.71a.66.66,0,0,1-.48.63l-.16.05L11,8.56a7,7,0,0,1-.94,1.9,3,3,0,0,1-.28.36l-.08.1v1.37a1.56,1.56,0,0,0,.85,1.39l3.19,1.59A2.32,2.32,0,0,1,15,17.36Z"/></g></g></svg>