<?xml version="1.0" encoding="UTF-8"?>
<svg width="59px" height="58px" viewBox="0 0 59 58" version="1.1" xmlns="http://www.w3.org/2000/svg" xmlns:xlink="http://www.w3.org/1999/xlink">
    <!-- Generator: Sketch 49.3 (51167) - http://www.bohemiancoding.com/sketch -->
    <title>Accept</title>
    <desc>Created with Sketch.</desc>
    <defs></defs>
    <g id="End-Desing" stroke="none" stroke-width="1" fill="none" fill-rule="evenodd">
        <g id="Become-a-Host-Page-V1-Copy" transform="translate(-340.000000, -1831.000000)">
            <g id="1.-Apply-and-get-approved-Copy-2" transform="translate(340.000000, 1831.000000)">
                <g id="Accept">
                    <path d="M15.5546181,37.3083951 C15.1285069,38.051358 15.4052971,42.337963 14.829865,43.2630247 C14.4219637,43.9185802 11.2643711,48.9954938 11.1004823,49.257716 C11.0968403,49.265 11.0931983,49.268642 11.0931983,49.268642 L9.76387732,50.3575926 L12.8012847,51.337284 C12.8777662,51.0568519 12.9688156,50.7837037 13.0671489,50.5506173 C13.1399884,50.3830864 13.2346798,50.1937037 13.347581,49.9824691 C14.2690008,48.2598148 16.3886304,45.3316667 16.9749884,44.0533333 C17.0478279,43.9040123 17.0951736,43.7729012 17.1170255,43.6782099 C17.3683218,42.6111111 17.3209761,35.3745062 17.5686304,34.5550617 C18.4099267,31.7543827 18.3807909,29.9807407 17.9546798,28.8845062 C17.9146181,31.2554321 17.2663465,34.3292593 15.5546181,37.3083951" id="Fill-151" fill="#5ABFFF"></path>
                    <path d="M47.8538403,49.268642 C47.8538403,49.268642 47.8501983,49.265 47.8465563,49.257716 C47.6826674,48.9954938 44.5250748,43.9185802 44.1171736,43.2630247 C43.5417415,42.337963 43.8185316,38.051358 43.3924205,37.3083951 C41.6806921,34.3292593 41.0324205,31.2554321 40.9923588,28.8845062 C40.5662477,29.9807407 40.5371119,31.7543827 41.3784082,34.5550617 C41.6260625,35.3745062 41.5787168,42.6111111 41.8300131,43.6782099 C41.851865,43.7729012 41.8992107,43.9040123 41.9720502,44.0533333 C42.5584082,45.3316667 44.6780378,48.2598148 45.5994576,49.9824691 C45.7123588,50.1937037 45.8070502,50.3830864 45.8798897,50.5506173 C45.978223,50.7837037 46.0692724,51.0568519 46.1457539,51.337284 L49.1831613,50.3575926 L47.8538403,49.268642" id="Fill-152" fill="#5ABFFF"></path>
                    <path d="M34.9404884,25.2862346 C34.3796242,24.922037 33.7969082,24.6962346 33.2797477,24.5578395 C32.1507353,25.3809259 30.9415995,25.810679 29.7615995,25.810679 C29.7178958,25.810679 29.6741921,25.810679 29.6304884,25.810679 C28.4286366,25.8398148 27.1757971,25.4100617 26.003081,24.5432716 C26.003081,24.5432716 26.003081,24.5432716 25.9957971,24.5432716 C25.4713526,24.6816667 24.8740687,24.9001852 24.2913526,25.2862346 C22.2478403,26.5878765 21.721939,28.767963 21.5824514,30.0146111 C21.5857292,30.0160679 21.581723,30.0208025 21.581723,30.0208025 C23.5848094,32.2205556 26.4692539,33.5972222 29.6669082,33.5972222 C32.8208588,33.5972222 35.6688835,32.2569753 37.657402,30.1082099 C37.5335748,28.8699383 37.0309823,26.6264815 34.9404884,25.2862346" id="Fill-154" fill="#5ABFFF"></path>
                    <path d="M47.9674699,49.257716 L46.4647909,49.7431914 C46.0160995,48.885142 45.2811489,47.7517593 44.5669576,46.6500617 C43.8422045,45.5319753 43.0919576,44.3774691 42.8042415,43.7474074 C42.7459699,43.6308642 42.7168341,43.5507407 42.7059082,43.507037 C42.6002909,43.0517901 42.5456613,40.8156173 42.4983156,39.0164815 C42.4291181,36.1174691 42.3817724,34.802716 42.2470193,34.3438272 C41.7662786,32.748642 41.5951057,31.565 41.5951057,30.687284 C41.5951057,29.4235185 41.9483773,28.7898148 42.2433773,28.4838889 C42.7059082,28.0031481 43.3687477,27.9594444 43.7985008,28.0723457 C45.0841181,28.4037654 45.3572662,29.8314198 45.6522662,32.1404321 C45.7943032,33.2439506 45.9363403,34.3838889 46.3187477,35.3453704 C46.4454884,35.6662284 47.2143094,36.6386358 47.866223,37.0439877 C47.9947847,37.2515802 48.2224082,37.3910679 48.4842662,37.3910679 C48.8867045,37.3910679 49.2126613,37.0647469 49.2126613,36.6626728 L49.2126613,24.8164198 C49.3190069,24.9158457 49.426081,25.0156358 49.5382539,25.1223457 C51.9783773,27.4095062 56.0646736,31.2372222 56.7566489,33.0509259 C56.8258465,33.2439506 56.8841181,33.4260494 56.88776,33.4333333 C57.2082539,34.507716 57.0115872,35.7423457 56.6218958,38.200679 C56.4798588,39.085679 56.2358465,40.415 55.9809082,41.8244444 C55.6385625,43.7000617 55.2852909,45.6339506 55.1432539,46.6901235 C55.1330563,46.7789877 55.1228588,46.8642099 55.1126613,46.9468827 L55.0620378,46.9632716 L47.9674699,49.257716 Z M43.8046921,50.6016049 C43.4222847,50.7254321 43.2146921,51.1369753 43.3385193,51.5193827 L44.1361119,53.992284 L14.8109267,53.992284 L15.6085193,51.5193827 C15.7323465,51.1369753 15.5247539,50.7254321 15.1423465,50.6016049 L13.9332107,50.2119136 L13.8920563,50.1984383 C14.3076057,49.4350802 14.9624329,48.4291667 15.6037847,47.4440123 C16.3900872,46.2275926 17.1370563,45.0803704 17.4575502,44.3774691 C17.5485995,44.1917284 17.6177971,44.0096296 17.6574946,43.8420988 C17.7889699,43.2775926 17.8395934,41.6569136 17.9018711,39.0529012 C17.9455748,37.3994444 18.0002045,35.1377778 18.0985378,34.7590123 C19.1474267,31.2554321 19.0341613,28.8043827 17.752186,27.4750617 C16.8566242,26.5390741 15.6329205,26.4443827 14.7879823,26.6592593 C12.4461921,27.2638272 12.1293403,29.7549383 11.8489082,31.9546914 C11.721439,32.9598765 11.5903279,34.0014815 11.2876798,34.7735802 L11.2876798,23.0209259 C11.2876798,22.9644753 11.2756613,22.9105741 11.2632786,22.857037 L11.2632786,4.89080864 L47.7558711,4.89080864 L47.7558711,22.6709321 C47.6975995,22.7765494 47.6589946,22.8945494 47.6589946,23.0209259 L47.6589946,34.7735802 C47.3567107,34.0014815 47.2255995,32.9598765 47.0981304,31.9546914 C46.8176983,29.7549383 46.5008465,27.2638272 44.1590563,26.6592593 C43.3141181,26.4443827 42.0904144,26.5390741 41.1944884,27.4750617 C39.9125131,28.8043827 39.7996119,31.2554321 40.8485008,34.7590123 C40.9468341,35.1377778 41.0014637,37.3994444 41.0451674,39.0529012 C41.107081,41.6569136 41.1580687,43.2775926 41.2891798,43.8420988 C41.3292415,44.0096296 41.398439,44.1917284 41.4894884,44.3774691 C41.8099823,45.0803704 42.5565872,46.2275926 43.3432539,47.4440123 C43.9842415,48.4291667 44.6394329,49.4350802 45.0549823,50.1984383 L45.0138279,50.2119136 L43.8046921,50.6016049 Z M3.88500077,46.9632716 L3.83437732,46.9468827 C3.82417979,46.8642099 3.81398226,46.7789877 3.80378473,46.6901235 C3.66174769,45.6339506 3.30847608,43.7000617 2.9661304,41.8244444 C2.71119213,40.415 2.46717979,39.085679 2.32514275,38.200679 C1.93545139,35.7423457 1.73878473,34.507716 2.05927855,33.4333333 C2.06292053,33.4260494 2.12119213,33.2439506 2.19002547,33.0509259 C2.88236497,31.2372222 6.96866127,27.4095062 9.40878473,25.1223457 C9.545723,24.991963 9.6786551,24.8688642 9.80648843,24.7483148 L9.80648843,36.6626728 C9.80648843,37.0647469 10.1324452,37.3910679 10.5348835,37.3910679 C10.8276983,37.3910679 11.0786304,37.2169815 11.1944452,36.9678704 C11.819044,36.5279198 12.5088341,35.6476543 12.6282909,35.3453704 C13.0103341,34.3838889 13.1527353,33.2439506 13.2944082,32.1404321 C13.5897724,29.8314198 13.8629205,28.4037654 15.1485378,28.0723457 C15.5782909,27.9594444 16.2411304,28.0031481 16.7036613,28.4838889 C16.9986613,28.7898148 17.3519329,29.4235185 17.3519329,30.687284 C17.3519329,31.565 17.18076,32.748642 16.7000193,34.3438272 C16.564902,34.802716 16.5179205,36.1174691 16.448723,39.0164815 C16.4013773,40.8156173 16.3467477,43.0517901 16.2411304,43.507037 C16.2302045,43.5507407 16.2007045,43.6308642 16.1427971,43.7474074 C15.855081,44.3774691 15.1044699,45.5319753 14.3797168,46.6500617 C13.6658897,47.7517593 12.930939,48.885142 12.4822477,49.7431914 L10.9795687,49.257716 L3.88500077,46.9632716 Z M58.9116057,49.6474074 L57.986544,46.7848148 C57.8627168,46.4024074 57.4548156,46.1948148 57.0687662,46.315 L56.6503032,46.4512099 C56.8145563,45.376463 57.1150193,43.7066173 57.4122045,42.0866667 C57.6707847,40.6699383 57.918439,39.3296914 58.0604761,38.4301235 C58.4829452,35.7532716 58.6978218,34.4057407 58.2789946,33.0108642 C58.2789946,33.0035802 58.2061551,32.7741358 58.1151057,32.5337654 C57.3685008,30.5670988 54.1016489,27.4022222 50.5361551,24.0588889 C50.0280995,23.5814259 49.5746736,23.1560432 49.2126613,22.8075062 L49.2126613,4.16241358 C49.2126613,3.75997531 48.8867045,3.43401852 48.4842662,3.43401852 L10.5348835,3.43401852 C10.1324452,3.43401852 9.80648843,3.75997531 9.80648843,4.16241358 L9.80648843,22.737216 C9.43318596,23.0985 8.9553588,23.5468272 8.41088349,24.0588889 C4.84538966,27.4022222 1.57853781,30.5670988 0.831932874,32.5337654 C0.740883491,32.7741358 0.668043985,33.0035802 0.668043985,33.0108642 C0.249216824,34.4057407 0.464093368,35.7532716 0.886562503,38.4301235 C1.02859954,39.3296914 1.27588966,40.6699383 1.53446991,42.0866667 C1.8316551,43.7066173 2.13248226,45.376463 2.29673534,46.4512099 L1.87827238,46.315 C1.492223,46.1948148 1.08432176,46.4024074 0.960494602,46.7848148 L0.0354328737,49.6474074 C-0.0883942868,50.0298148 0.122840281,50.441358 0.505247688,50.5615432 C0.891297071,50.6853704 1.29919831,50.4777778 1.42302547,50.0953704 L2.12228473,47.9283951 L2.40963658,48.0219938 C2.40927238,48.0270926 2.40927238,48.0325556 2.40890818,48.0376543 L3.82527238,48.4965432 C3.82636497,48.4910802 3.82672917,48.4863457 3.82745757,48.4816111 L3.87407485,48.4965432 L9.64296374,50.3575926 L11.9443279,51.1009198 C11.9428711,51.1060185 11.9410502,51.1100247 11.9399576,51.1151235 L12.6319329,51.337284 L13.3239082,51.5630864 C13.325365,51.5579877 13.3268218,51.5539815 13.3282786,51.5485185 L13.3723465,51.5630864 L13.9987662,51.7633951 L12.410865,56.6800617 C12.2870378,57.0661111 12.4982724,57.4740123 12.8806798,57.5978395 C12.9535193,57.6233333 13.0300008,57.6342593 13.1028403,57.6342593 C13.4124082,57.6342593 13.6964823,57.4375926 13.7984576,57.1316667 L14.3411119,55.4490741 L44.6059267,55.4490741 L45.148581,57.1316667 C45.2505563,57.4375926 45.5346304,57.6342593 45.8441983,57.6342593 C45.9170378,57.6342593 45.9935193,57.6233333 46.0663588,57.5978395 C46.4487662,57.4740123 46.6600008,57.0661111 46.5361736,56.6800617 L44.9482724,51.7633951 L45.5746921,51.5630864 L45.61876,51.5485185 C45.6202168,51.5539815 45.6216736,51.5579877 45.6231304,51.5630864 L46.3151057,51.337284 L47.007081,51.1151235 C47.0059884,51.1100247 47.0041674,51.1060185 47.0027107,51.1009198 L49.3040748,50.3575926 L55.0729637,48.4965432 L55.1192168,48.4816111 C55.1203094,48.4863457 55.1203094,48.4910802 55.121402,48.4965432 L56.5381304,48.0376543 C56.5377662,48.0325556 56.537402,48.0270926 56.5370378,48.0219938 L56.8247539,47.9283951 L57.5240131,50.0953704 C57.6478403,50.4777778 58.0557415,50.6853704 58.4417909,50.5615432 C58.8241983,50.441358 59.0354329,50.0298148 58.9116057,49.6474074 Z" id="Fill-155" fill="#2A2F45"></path>
                    <path d="M11.4147847,52.7317963 C10.9212971,52.4513642 10.2941489,52.6236296 10.0137168,53.1171173 C9.73328473,53.6102407 9.90555016,54.2377531 10.3990378,54.5181852 C10.8925255,54.7986173 11.5196736,54.6259877 11.8001057,54.1328642 C12.0805378,53.6393765 11.9079082,53.0122284 11.4147847,52.7317963" id="Fill-156" fill="#2A2F45"></path>
                    <path d="M47.5322539,52.7317963 C47.0387662,53.0122284 46.8665008,53.6393765 47.1469329,54.1328642 C47.427365,54.6259877 48.0545131,54.7986173 48.5480008,54.5181852 C49.0411242,54.2377531 49.2137539,53.6102407 48.9333218,53.1171173 C48.6528897,52.6236296 48.0257415,52.4513642 47.5322539,52.7317963" id="Fill-157" fill="#2A2F45"></path>
                    <path d="M22.9175995,44.5231481 L28.74476,44.5231481 C29.1468341,44.5231481 29.4731551,44.1968272 29.4731551,43.7947531 C29.4731551,43.392679 29.1468341,43.066358 28.74476,43.066358 L22.9175995,43.066358 C22.5151613,43.066358 22.1892045,43.392679 22.1892045,43.7947531 C22.1892045,44.1968272 22.5151613,44.5231481 22.9175995,44.5231481" id="Fill-158" fill="#2A2F45"></path>
                    <path d="M35.3003156,44.5231481 C35.7023897,44.5231481 36.0287107,44.1968272 36.0287107,43.7947531 C36.0287107,43.392679 35.7023897,43.066358 35.3003156,43.066358 L30.9299452,43.066358 C30.5275069,43.066358 30.2015502,43.392679 30.2015502,43.7947531 C30.2015502,44.1968272 30.5275069,44.5231481 30.9299452,44.5231481 L35.3003156,44.5231481" id="Fill-159" fill="#2A2F45"></path>
                    <path d="M36.0287107,39.4243827 L22.9175995,39.4243827 C22.5151613,39.4243827 22.1892045,39.7507037 22.1892045,40.1527778 C22.1892045,40.5548519 22.5151613,40.8811728 22.9175995,40.8811728 L36.0287107,40.8811728 C36.4307847,40.8811728 36.7571057,40.5548519 36.7571057,40.1527778 C36.7571057,39.7507037 36.4307847,39.4243827 36.0287107,39.4243827" id="Fill-160" fill="#2A2F45"></path>
                    <path d="M36.0287107,46.7083333 L22.9175995,46.7083333 C22.5151613,46.7083333 22.1892045,47.0346543 22.1892045,47.4367284 C22.1892045,47.8388025 22.5151613,48.1651235 22.9175995,48.1651235 L36.0287107,48.1651235 C36.4307847,48.1651235 36.7571057,47.8388025 36.7571057,47.4367284 C36.7571057,47.0346543 36.4307847,46.7083333 36.0287107,46.7083333" id="Fill-161" fill="#2A2F45"></path>
                    <path d="M34.64476,31.4928889 L34.64476,28.8921543 C34.64476,28.4900802 34.3188032,28.1637593 33.916365,28.1637593 C33.5142909,28.1637593 33.1879699,28.4900802 33.1879699,28.8921543 L33.1879699,32.1888704 C32.0356489,32.6313704 30.8017477,32.8688272 29.5459946,32.8688272 C28.2902415,32.8688272 27.0570687,32.632463 25.9040193,32.1906914 L25.9040193,28.8921543 C25.9040193,28.4900802 25.5780625,28.1637593 25.1756242,28.1637593 C24.7735502,28.1637593 24.4472292,28.4900802 24.4472292,28.8921543 L24.4472292,31.4958025 C23.6383465,31.0292654 22.8888279,30.4531049 22.2278094,29.7735123 C22.4244761,28.4966358 23.0006366,26.8948951 24.5721489,25.893716 C24.9199576,25.663179 25.3067353,25.480716 25.746686,25.3390432 C26.9565502,26.1555741 28.245081,26.5707593 29.5095748,26.5390741 L29.640686,26.5390741 C30.866939,26.5390741 32.1208711,26.1311728 33.2870316,25.3561605 C33.698939,25.4927346 34.0802539,25.6744691 34.4266057,25.899179 C36.0181489,26.9200247 36.5870255,28.5538148 36.7720378,29.8536358 C36.1361489,30.4968086 35.4183156,31.0449259 34.64476,31.4928889 Z M35.216186,24.6751111 C34.6636983,24.3167407 34.0420131,24.0421358 33.3675193,23.8596728 C33.3015995,23.8400062 33.2313094,23.8294444 33.1588341,23.8294444 C33.1584699,23.8294444 33.1581057,23.8294444 33.1577415,23.8294444 C33.1577415,23.8294444 33.1577415,23.8294444 33.1573773,23.8294444 L33.1570131,23.8294444 C33.1566489,23.8294444 33.1566489,23.8294444 33.1562847,23.8294444 L33.1559205,23.8294444 C33.1555563,23.8294444 33.1555563,23.8294444 33.1551921,23.8294444 C32.9960378,23.8301728 32.8474452,23.8822531 32.72726,23.9711173 C31.7289946,24.6980556 30.6618958,25.082284 29.640686,25.082284 L29.4917292,25.0826481 C28.4555872,25.1088704 27.3451489,24.7188148 26.3148341,23.9572778 C26.213223,23.8818889 26.0890316,23.8349074 25.9622909,23.8199753 C25.9346119,23.8163333 25.9065687,23.8148765 25.8777971,23.8148765 C25.8777971,23.8148765 25.8777971,23.8148765 25.8774329,23.8148765 L25.8770687,23.8148765 C25.8767045,23.8148765 25.8767045,23.8148765 25.8763403,23.8148765 L25.8759761,23.8148765 C25.8752477,23.8148765 25.8741551,23.8148765 25.8734267,23.8148765 C25.8734267,23.8148765 25.8726983,23.8148765 25.8719699,23.8148765 C25.8719699,23.8148765 25.8719699,23.8148765 25.8716057,23.8148765 C25.8042292,23.8152407 25.7383094,23.8247099 25.6760316,23.8421914 C24.9523711,24.0344877 24.3281366,24.308 23.7789267,24.6718333 C21.4852107,26.1329938 20.8893835,28.5869568 20.7382415,29.9282963 C20.7349637,29.9552469 20.7327786,29.9825617 20.7324144,30.0102407 C20.7324144,30.0229877 20.7324144,30.0360988 20.7327786,30.0488457 C20.7331428,30.0488457 20.7331428,30.0492099 20.7331428,30.0492099 L20.7331428,30.0495741 C20.7360563,30.1278765 20.7513526,30.2029012 20.7772107,30.2728272 C20.807439,30.3544074 20.8522353,30.4316173 20.9123279,30.5000864 C20.9126921,30.5004506 20.9126921,30.5004506 20.9126921,30.5004506 C20.9130563,30.5008148 20.9130563,30.5008148 20.9130563,30.5008148 C20.9163341,30.5044568 20.9196119,30.5080988 20.9221613,30.5113765 C23.1299267,32.9354753 26.2733156,34.3256173 29.5459946,34.3256173 C32.7742415,34.3256173 35.881939,32.9686173 38.0707662,30.6027901 C38.212439,30.4498272 38.2816366,30.2433272 38.2612415,30.0357346 C38.1253958,28.675821 37.5485069,26.1705062 35.216186,24.6751111 Z" id="Fill-162" fill="#2A2F45"></path>
                    <path d="M25.6210378,14.8148272 C25.7251983,14.4597346 25.9939761,13.7870617 26.6218526,13.2717222 C27.5764144,12.4883333 28.8562045,12.4785 29.4057786,12.4741296 L29.4556736,12.4737654 L29.54126,12.4741296 L29.6064514,12.4737654 L29.6599884,12.4741296 C30.2062847,12.4785 31.4860748,12.4883333 32.4402724,13.2717222 C33.0692415,13.7877901 33.3372909,14.4597346 33.4410872,14.8148272 C33.4501921,14.8450556 33.4582045,14.8749198 33.4662168,14.904784 C33.3005069,14.781321 33.1235069,14.6840802 32.9352168,14.6137901 C32.1973526,14.3377284 31.5778526,14.5387654 30.9787477,14.7332469 C30.5894205,14.8596235 30.1869823,14.9903704 29.68876,15.017321 C29.5831428,15.0231481 29.4800748,15.0231481 29.3740934,15.017321 C28.8751428,14.9903704 28.4727045,14.8596235 28.0837415,14.7332469 C27.6951428,14.6072346 27.2981674,14.4786728 26.8665934,14.4786728 C26.631686,14.4786728 26.386581,14.5165494 26.1272724,14.6137901 C25.9389823,14.6840802 25.7623465,14.7809568 25.5962724,14.9036914 C25.6039205,14.8741914 25.6119329,14.8446914 25.6210378,14.8148272 Z M33.8063773,18.6487346 C33.7022168,18.992537 33.4913465,19.2165185 33.3751674,19.3192222 C33.2644514,19.416463 33.1857847,19.5453889 33.1500934,19.6885185 C33.02226,20.1991235 32.6733588,21.1708025 31.7705131,21.9458148 C31.0290069,22.5773333 30.2627353,22.9058395 29.5882415,22.897463 C29.5747662,22.8967346 29.4917292,22.8967346 29.4782539,22.897463 C28.801939,22.9123951 28.0323897,22.5773333 27.2894267,21.944358 C26.3869452,21.1697099 26.0387724,20.1987593 25.9116674,19.6888827 C25.8756119,19.5453889 25.7969452,19.416463 25.6862292,19.3184938 C25.569686,19.2165185 25.3591798,18.9932654 25.2502847,18.6338025 C25.1730748,18.3959815 25.1395687,18.055821 25.1727107,17.910142 C25.1821798,17.9079568 25.1905563,17.9039506 25.1996613,17.9014012 C25.236081,17.8919321 25.2714082,17.882463 25.3056428,17.8678951 C25.350439,17.8485926 25.392686,17.8249198 25.4320193,17.7979691 C25.4575131,17.7801235 25.4797292,17.7604568 25.5026736,17.7396975 C25.531081,17.7142037 25.5573032,17.6861605 25.5813403,17.6566605 C25.5999144,17.633716 25.6173958,17.6115 25.6330563,17.5860062 C25.6618279,17.5404815 25.6847724,17.491679 25.7029823,17.4406914 C25.7066242,17.4304938 25.713544,17.4224815 25.7168218,17.412284 C25.9528218,16.6216111 26.2798711,16.1120988 26.6386057,15.9780741 C26.8866242,15.8844753 27.1371921,15.957679 27.6335934,16.1190185 C28.0673526,16.2592346 28.606365,16.4344136 29.2957909,16.4719259 C29.3737292,16.4762963 29.4505748,16.4788457 29.5270563,16.4792099 C29.5281489,16.4792099 29.5296057,16.4792099 29.5310625,16.4792099 C29.6071798,16.4784815 29.6876674,16.4762963 29.7677909,16.4719259 C30.4561242,16.4344136 30.9955008,16.2592346 31.4285316,16.1190185 C31.9245687,15.957679 32.1747724,15.8844753 32.4242477,15.9780741 C32.7778835,16.1102778 33.1027477,16.6197901 33.3387477,17.4119198 C33.4141366,17.6635802 33.619544,17.8434938 33.8679267,17.9035864 C33.8752107,17.9057716 33.881402,17.9090494 33.888686,17.9108704 C33.9221921,18.0572778 33.8875934,18.3981667 33.8063773,18.6487346 Z M23.8608711,19.0712037 C24.0254884,19.6149506 24.3219452,20.0075556 24.5543032,20.2501111 C24.7615316,20.9621173 25.2466428,22.1104321 26.3461551,23.0547963 C27.3764699,23.9332407 28.4869082,24.3870309 29.548544,24.3535247 C29.5795008,24.3546173 29.6104576,24.3549815 29.6417786,24.3549815 C30.6549761,24.3549815 31.7158835,23.9066543 32.7210687,23.0496975 C33.8143897,22.1111605 34.2991366,20.9621173 34.5067292,20.2501111 C34.7390872,20.008284 35.0348156,19.6178642 35.1961551,19.0861358 C35.2496921,18.9226111 35.6666983,17.548858 34.9018835,16.8357593 C35.0377292,16.2373827 35.1225872,15.3698642 34.8388773,14.4051049 C34.6880995,13.8894012 34.2958588,12.9100741 33.3649699,12.1459877 C32.0123403,11.0359136 30.3115378,11.0224383 29.6749205,11.0173395 L29.6064514,11.0169753 L29.54126,11.0173395 L29.4556736,11.0169753 L29.3908465,11.0173395 C28.7509514,11.0224383 27.0505131,11.0359136 25.6975193,12.1459877 C24.767723,12.9089815 24.3747539,13.8883086 24.2232477,14.4043765 C23.9388094,15.3720494 24.0276736,16.2570494 24.1569637,16.842679 C23.4008897,17.5670679 23.8120687,18.9226111 23.8608711,19.0712037 Z" id="Fill-163" fill="#2A2F45"></path>
                    <path d="M41.1274761,1.63888889 C41.579081,1.63888889 41.9469205,1.27104938 41.9469205,0.819444444 C41.9469205,0.367839506 41.579081,0 41.1274761,0 C40.6758711,0 40.3080316,0.367839506 40.3080316,0.819444444 C40.3080316,1.27104938 40.6758711,1.63888889 41.1274761,1.63888889" id="Fill-164" fill="#2A2F45"></path>
                    <path d="M20.0040193,1.54783951 L38.9422909,1.54783951 C39.344365,1.54783951 39.670686,1.22151852 39.670686,0.819444444 C39.670686,0.41737037 39.344365,0.0910493827 38.9422909,0.0910493827 L20.0040193,0.0910493827 C19.601581,0.0910493827 19.2756242,0.41737037 19.2756242,0.819444444 C19.2756242,1.22151852 19.601581,1.54783951 20.0040193,1.54783951" id="Fill-165" fill="#2A2F45"></path>
                </g>
            </g>
        </g>
    </g>
</svg>