<?xml version="1.0" encoding="UTF-8"?>
<svg width="69px" height="79px" viewBox="0 0 69 79" version="1.1" xmlns="http://www.w3.org/2000/svg" xmlns:xlink="http://www.w3.org/1999/xlink">
    <!-- Generator: Sketch 49.3 (51167) - http://www.bohemiancoding.com/sketch -->
    <title>Verif</title>
    <desc>Created with Sketch.</desc>
    <defs></defs>
    <g id="Page-1" stroke="none" stroke-width="1" fill="none" fill-rule="evenodd">
        <g id="Home_Page_V1.1-Copy-7" transform="translate(-1086.000000, -1059.000000)">
            <g id="3-Blocks" transform="translate(170.000000, 1040.000000)">
                <g id="Met-Verif" transform="translate(800.000000, 19.000000)">
                    <g id="Content">
                        <g id="Verif" transform="translate(116.000000, 0.000000)">
                            <path d="M37.3335,5 L35,5 L35,2.6665 C35,1.746 34.254,1 33.3335,1 L25.6665,1 C24.746,1 24,1.746 24,2.6665 L24,5 L21.6665,5 C20.194,5 19,6.194 19,7.6665 L19,13 L40,13 L40,7.6665 C40,6.194 38.806,5 37.3335,5" id="Fill-97" fill="#28A5F3"></path>
                            <path d="M45.7816937,58.7638529 C44.9714294,57.4923183 45.3638215,51.6002071 44.7675893,50.5789746 C44.054149,49.3575004 43.4732047,48.1260142 43.0043725,46.909546 C41.908732,44.0510962 41.4449958,41.2877611 41.4042278,39 C40.8130915,40.5068186 40.7723235,42.9447609 41.9495,46.794407 C42.2909322,47.9207664 42.2297802,57.8677714 42.5763083,59.3345417 C42.6119803,59.4646988 42.6731323,59.6449163 42.7801484,59.850164 C43.6006048,61.6072847 46.5613821,65.6321422 47.8506706,68 L48.8392951,67.6896254 L51,67.0037977 C50.7706799,66.6433627 46.352446,59.6649404 45.7816937,58.7638529" id="Fill-98" fill="#5ABFFF"></path>
                            <path d="M23,39.5 C23,40.327 22.327,41 21.5,41 L16.5,41 C15.673,41 15,40.327 15,39.5 L15,34.5 C15,33.673 15.673,33 16.5,33 L21.5,33 C21.7665,33 22.0135,33.0755 22.2305,33.198 L23.463,31.719 C23.483,31.6945 23.5085,31.677 23.53,31.6545 C22.9565,31.244 22.257,31 21.5,31 L16.5,31 C14.5705,31 13,32.5705 13,34.5 L13,39.5 C13,41.4295 14.5705,43 16.5,43 L21.5,43 C23.4295,43 25,41.4295 25,39.5 L25,36.125 L23,38.5255 L23,39.5" id="Fill-99" fill="#28A5F3"></path>
                            <path d="M23,54.5 C23,55.327 22.327,56 21.5,56 L16.5,56 C15.673,56 15,55.327 15,54.5 L15,49.5 C15,48.673 15.673,48 16.5,48 L21.5,48 C21.7665,48 22.0135,48.0755 22.2305,48.198 L23.463,46.7185 C23.483,46.6945 23.5085,46.677 23.53,46.6545 C22.9565,46.244 22.257,46 21.5,46 L16.5,46 C14.5705,46 13,47.5705 13,49.5 L13,54.5 C13,56.4295 14.5705,58 16.5,58 L21.5,58 C23.4295,58 25,56.4295 25,54.5 L25,51.125 L23,53.5255 L23,54.5" id="Fill-100" fill="#28A5F3"></path>
                            <path d="M23,24.5 C23,25.327 22.327,26 21.5,26 L16.5,26 C15.673,26 15,25.327 15,24.5 L15,19.5 C15,18.673 15.673,18 16.5,18 L21.5,18 C21.764,18 22.0085,18.0745 22.224,18.1945 L23.463,16.708 C23.481,16.686 23.504,16.6705 23.5235,16.6495 C22.9515,16.242 22.254,16 21.5,16 L16.5,16 C14.5705,16 13,17.5705 13,19.5 L13,24.5 C13,26.4295 14.5705,28 16.5,28 L21.5,28 C23.4295,28 25,26.4295 25,24.5 L25,21.114 L23,23.5145 L23,24.5" id="Fill-101" fill="#28A5F3"></path>
                            <path d="M11,4 C11.5511111,4 12,3.55111111 12,3 C12,2.44888889 11.5511111,2 11,2 C10.4488889,2 10,2.44888889 10,3 C10,3.55111111 10.4488889,4 11,4" id="Fill-102" fill="#2A2F45"></path>
                            <path d="M67,55 C66.4484444,55 66,55.4488889 66,56 C66,56.5511111 66.4484444,57 67,57 C67.5511111,57 68,56.5511111 68,56 C68,55.4488889 67.5511111,55 67,55" id="Fill-103" fill="#2A2F45"></path>
                            <path d="M9,3 C9,2.448 8.5438914,2 7.98190045,2 C3.58065611,2 0,5.517 0,9.84 L0,14 C0,14.552 0.456108597,15 1.01809955,15 C1.5800905,15 2.0361991,14.552 2.0361991,14 L2.0361991,9.84 C2.0361991,6.6195 4.70311086,4 7.98190045,4 C8.5438914,4 9,3.552 9,3" id="Fill-104" fill="#2A2F45"></path>
                            <path d="M29,20 L45,20 C45.552,20 46,19.552 46,19 C46,18.448 45.552,18 45,18 L29,18 C28.448,18 28,18.448 28,19 C28,19.552 28.448,20 29,20" id="Fill-105" fill="#2A2F45"></path>
                            <path d="M29,25 L38,25 C38.552,25 39,24.552 39,24 C39,23.448 38.552,23 38,23 L29,23 C28.448,23 28,23.448 28,24 C28,24.552 28.448,25 29,25" id="Fill-106" fill="#2A2F45"></path>
                            <path d="M45,34 C45,33.448 44.552,33 44,33 L29,33 C28.448,33 28,33.448 28,34 C28,34.552 28.448,35 29,35 L44,35 C44.552,35 45,34.552 45,34" id="Fill-107" fill="#2A2F45"></path>
                            <path d="M29,40 L35,40 C35.552,40 36,39.552 36,39 C36,38.448 35.552,38 35,38 L29,38 C28.448,38 28,38.448 28,39 C28,39.552 28.448,40 29,40" id="Fill-108" fill="#2A2F45"></path>
                            <path d="M37,48 L29,48 C28.448,48 28,48.448 28,49 C28,49.552 28.448,50 29,50 L37,50 C37.552,50 38,49.552 38,49 C38,48.448 37.552,48 37,48" id="Fill-109" fill="#2A2F45"></path>
                            <path d="M35,53 L29,53 C28.448,53 28,53.448 28,54 C28,54.552 28.448,55 29,55 L35,55 C35.552,55 36,54.552 36,54 C36,53.448 35.552,53 35,53" id="Fill-110" fill="#2A2F45"></path>
                            <path d="M24.2313114,32.3592982 L19.9323446,37.5184344 L17.7068618,35.2928756 C17.3163648,34.9023653 16.6833697,34.9023653 16.2928727,35.2928756 C15.9023758,35.683386 15.9023758,36.3164027 16.2928727,36.706913 L19.2928496,39.7069923 C19.4803481,39.8954972 19.7353461,40 19.9998441,40 C20.014344,40 20.0298439,40 20.0448438,39.999 C20.3258416,39.9864996 20.5878396,39.8564962 20.7683382,39.6404905 L25.7682995,33.640332 C26.1217968,33.2158208 26.0642973,32.5848041 25.6403005,32.2312948 C25.2138038,31.8787855 24.5858087,31.935287 24.2313114,32.3592982" id="Fill-111" fill="#2A2F45"></path>
                            <path d="M24.2313114,47.3592982 L19.9323446,52.5184344 L17.7068618,50.2928756 C17.3163648,49.9023653 16.6833697,49.9023653 16.2928727,50.2928756 C15.9023758,50.683386 15.9023758,51.3164027 16.2928727,51.706913 L19.2928496,54.7069923 C19.4803481,54.8954972 19.7353461,55 19.9998441,55 C20.014344,55 20.0298439,55 20.0448438,54.999 C20.3258416,54.9864996 20.5878396,54.8564962 20.7683382,54.6404905 L25.7682995,48.640332 C26.1217968,48.2158208 26.0642973,47.5848041 25.6403005,47.2312948 C25.2138038,46.8787855 24.5858087,46.935287 24.2313114,47.3592982" id="Fill-112" fill="#2A2F45"></path>
                            <path d="M24.2313114,17.3592982 L19.9323446,22.5184344 L17.7068618,20.2928756 C17.3163648,19.9023653 16.6833697,19.9023653 16.2928727,20.2928756 C15.9023758,20.683386 15.9023758,21.3164027 16.2928727,21.706913 L19.2928496,24.7069923 C19.4803481,24.8954972 19.7353461,25 19.9998441,25 C20.014344,25 20.0298439,25 20.0448438,24.999 C20.3258416,24.9864996 20.5878396,24.8564962 20.7683382,24.6404905 L25.7682995,18.640332 C26.1217968,18.2158208 26.0642973,17.5848041 25.6403005,17.2312948 C25.2138038,16.8787855 24.5858087,16.935287 24.2313114,17.3592982" id="Fill-113" fill="#2A2F45"></path>
                            <path d="M50.8512403,67.4846948 L48.7200391,68.1706065 C48.3179257,67.3995817 47.7449141,66.468344 47.1166119,65.4920464 C46.7848683,64.9713543 46.433019,64.4356423 46.0861962,63.8999303 C45.0859391,62.3628874 44.050497,60.7757779 43.6383307,59.8795868 C43.5729873,59.7444071 43.532776,59.6392674 43.5227231,59.5841942 C43.3719306,58.9533557 43.2965343,55.8742633 43.2362173,53.400976 C43.1507682,50.0665441 43.0954776,48.2591419 42.9647908,47.387984 C42.9446851,47.2177578 42.9145266,47.0825781 42.8843681,46.982445 C41.3714163,41.9657773 42.1203526,39.9180556 42.6983906,39.1420242 C43.2261645,38.4360859 43.9399158,38.290893 44.447584,38.290893 C44.6486407,38.290893 44.8496974,38.3159262 45.025622,38.3609861 C46.8049739,38.8165917 47.1653681,40.7812029 47.5840687,43.9534191 C48.2219211,48.7838393 49.3146644,49.5318334 49.9615643,50.0365042 C50.3737306,50.3519234 50.836161,50.6423094 51.3086443,50.8676088 C52.0575805,51.2230813 52.761279,51.503454 53.2588944,51.5635338 C53.5403738,51.5985804 53.711272,51.5084606 53.9223815,51.3182077 C54.1385175,51.1279549 54.264178,50.8525889 54.264178,50.5672096 L54.264178,34.4758223 C58.1093876,38.4160593 62.024967,42.8920084 62.9096166,45.2050827 C63.0101449,45.4704354 63.0905676,45.7207681 63.0905676,45.7207681 C63.5328924,47.2077445 63.2614658,48.9050003 62.7236391,52.2894987 C62.5326352,53.5011091 62.1958652,55.3285379 61.844016,57.2661132 C61.3715327,59.8395336 60.8789438,62.5030737 60.6879399,63.9550035 C60.6678342,64.0851765 60.652755,64.2103429 60.6427021,64.3305026 L50.8512403,67.4846948 Z M6.01056712,64.2453894 L6.01056712,9.85309589 C6.01056712,8.83674504 6.83992605,8.01064706 7.86028887,8.01064706 L18.0739698,8.01064706 L18.0739698,10.0133088 L9.0264178,10.0133088 C8.47351184,10.0133088 8.02113424,10.4639077 8.02113424,11.0146397 L8.02113424,63.0838456 C8.02113424,63.6345776 8.47351184,64.0851765 9.0264178,64.0851765 L43.8132501,64.0851765 C44.0057619,64.3825718 44.2022948,64.684473 44.4023462,64.9913809 C44.6411011,65.3563661 44.8798559,65.7238545 45.1135844,66.0878383 L7.86028887,66.0878383 C6.83992605,66.0878383 6.01056712,65.2617403 6.01056712,64.2453894 Z M23.1908631,6.0079853 L37.5111274,6.0079853 C38.4309619,6.0079853 39.1849246,6.75898346 39.1849246,7.67520122 L39.1849246,12.0159706 L20.0845369,12.0159706 L20.0845369,7.67520122 C20.0845369,6.75898346 20.8384996,6.0079853 21.7583341,6.0079853 L23.1908631,6.0079853 Z M25.1109547,2.6685468 C25.1109547,2.30306103 25.4125398,2.00266177 25.7794683,2.00266177 L33.4899932,2.00266177 C33.8569217,2.00266177 34.1585068,2.30306103 34.1585068,2.6685468 L34.1585068,4.00532353 L25.1109547,4.00532353 L25.1109547,2.6685468 Z M40.9592501,47.5532036 C41.0949633,48.0638824 41.1703596,51.1780214 41.2256502,53.4510425 C41.3161257,57.0358071 41.3814691,59.268775 41.5674466,60.0448064 C41.6177108,60.2701058 41.7132127,60.5204386 41.8288203,60.745738 C41.9997185,61.1187338 42.2505368,61.5728373 42.5546351,62.0825147 L10.0317014,62.0825147 L10.0317014,12.0159706 L18.0739698,12.0159706 L18.0739698,13.0173015 C18.0739698,13.5680335 18.5263474,14.0186324 19.0792534,14.0186324 L40.1902081,14.0186324 C40.7431141,14.0186324 41.1954917,13.5680335 41.1954917,13.0173015 L41.1954917,12.0159706 L48.2324766,12.0159706 L48.2324766,38.4731352 C47.6589623,37.5023449 46.8190479,36.7508461 45.5282638,36.4184042 C45.181441,36.3332911 44.8195389,36.2882312 44.447584,36.2882312 C43.0803984,36.2882312 41.8841109,36.8790164 41.0849105,37.9454338 C39.6574078,39.8629824 39.6121701,43.0972812 40.9592501,47.5532036 Z M52.2536108,9.85309589 L52.2536108,32.132708 C52.2536108,32.2068065 52.263161,32.2789023 52.2787429,32.3484948 L52.2787429,49.1102731 C52.243558,49.0952532 52.2083731,49.0752266 52.1782146,49.0652133 C51.2181688,48.6046011 50.2430437,47.9076748 50.2430437,47.2452944 L50.2430437,11.0146397 C50.2430437,10.4639077 49.7906661,10.0133088 49.2377602,10.0133088 L41.1954917,10.0133088 L41.1954917,8.01064706 L50.4038891,8.01064706 C51.4242519,8.01064706 52.2536108,8.83674504 52.2536108,9.85309589 Z M64.6789156,64.0851765 C64.5934665,63.8348438 64.4175419,63.6245643 64.1762738,63.5044046 C63.9400322,63.3842449 63.6635792,63.3592116 63.4122583,63.4393181 L62.7638504,63.6495976 C62.9900393,62.1726345 63.4072319,59.8645668 63.8193982,57.6265923 C64.1762738,55.6790037 64.5130438,53.8365549 64.7090741,52.5999113 C65.297165,48.9200203 65.5886973,47.0675581 65.0156856,45.1399962 C65.0156856,45.1399962 64.9151573,44.824577 64.7894968,44.4941378 C63.2891111,40.5739274 57.5167729,34.8122695 54.264178,31.6 L54.264178,9.85309589 C54.264178,7.73528107 52.5300638,6.0079853 50.4038891,6.0079853 L40.7883518,6.0079853 C40.1801553,4.8214082 38.9386301,4.00532353 37.5111274,4.00532353 L36.1690739,4.00532353 L36.1690739,2.6685468 C36.1690739,1.1965904 34.96776,0 33.4899932,0 L25.7794683,0 C24.3017015,0 23.1003876,1.1965904 23.1003876,2.6685468 L23.1003876,4.00532353 L21.7583341,4.00532353 C20.3308314,4.00532353 19.0893062,4.8214082 18.4811097,6.0079853 L7.86028887,6.0079853 C5.73411414,6.0079853 4,7.73528107 4,9.85309589 L4,64.2453894 C4,66.3632043 5.73411414,68.0905 7.86028887,68.0905 L46.3681782,68.0905 C46.5154523,68.3373281 46.6536788,68.5751442 46.7748154,68.7964383 L45.1060447,69.3321503 C44.8547238,69.4172635 44.6436143,69.5924964 44.5229803,69.8278091 C44.3973198,70.0681285 44.3772142,70.3434945 44.4576368,70.5938272 L46.9607929,78.3090817 C47.0965062,78.7296407 47.4935932,79 47.9158123,79 C48.0213671,79 48.1218954,78.98498 48.2274502,78.9499335 C48.7552241,78.7797072 49.0467563,78.2189619 48.8758581,77.6882565 L46.6793135,70.9292731 L47.5438574,70.6539071 L48.4988767,70.3434945 L52.6959356,68.9967045 L60.6577814,66.4332974 L62.6130579,65.8074656 L63.0754884,65.657266 L64.0405606,68.6362254 C64.2114588,69.1619241 64.7744176,69.4473034 65.3072179,69.2820838 C65.8349917,69.1118575 66.1214975,68.5461056 65.9505993,68.0204069 L64.6789156,64.0851765 Z" id="Fill-114" fill="#2A2F45"></path>
                            <path d="M48.5059429,72.1314429 C48.0257669,72.4044482 47.8577939,73.0142784 48.1310158,73.4964697 C48.4038833,73.9751154 49.0141144,74.1417551 49.4942904,73.8687497 C49.974112,73.5957443 50.142085,72.9859142 49.8692174,72.5072684 C49.5963499,72.0250771 48.9857645,71.8577284 48.5059429,72.1314429" id="Fill-115" fill="#2A2F45"></path>
                            <path d="M68.512138,43.9014715 C68.512138,43.9014715 68.3748292,43.4582068 68.1963278,42.999433 C67.534703,41.2934145 66.0568539,39.0620825 63.8024474,36.3649724 C63.4454446,35.9377173 62.8041618,35.8771812 62.3708764,36.2278905 C61.937591,36.5791002 61.8745306,37.2089762 62.2315334,37.6362313 C64.3455798,40.165241 65.7125649,42.2099617 66.2958728,43.7133592 C66.4469125,44.1015909 66.5638792,44.4768149 66.5654049,44.4808173 C67.2885643,46.8652407 66.9259675,49.1150838 66.3243517,52.8423089 C66.2368809,53.3881347 66.6152429,53.9009409 67.1695634,53.9874925 C67.2239784,53.9959976 67.2773762,54 67.3307741,54 C67.8220343,54 68.2543027,53.6487903 68.3341452,53.1559962 C68.9576287,49.286186 69.370572,46.7296598 68.512138,43.9014715" id="Fill-116" fill="#2A2F45"></path>
                        </g>
                    </g>
                </g>
            </g>
        </g>
    </g>
</svg>