<?xml version="1.0" encoding="UTF-8"?>
<svg width="43px" height="32px" viewBox="0 0 43 32" version="1.1" xmlns="http://www.w3.org/2000/svg" xmlns:xlink="http://www.w3.org/1999/xlink">
    <!-- Generator: Sketch 49.3 (51167) - http://www.bohemiancoding.com/sketch -->
    <title>paper-airplane-outline</title>
    <desc>Created with Sketch.</desc>
    <defs></defs>
    <g id="Page-1" stroke="none" stroke-width="1" fill="none" fill-rule="evenodd">
        <g id="Home_Page_V1.1-Copy-7" transform="translate(-895.000000, -1960.000000)" fill="#FFFFFF" fill-rule="nonzero">
            <g id="Find-Your-Home-stay" transform="translate(128.000000, 1485.000000)">
                <g id="Right-Side" transform="translate(503.000000, 0.000000)">
                    <g id="Movein" transform="translate(130.000000, 400.000000)">
                        <g id="Icon" transform="translate(108.000000, 44.000000)">
                            <g id="paper-airplane-outline" transform="translate(26.000000, 31.000000)">
                                <path d="M42.6666667,1.01731466 C42.6617168,0.846923453 42.6135432,0.699855496 42.5320454,0.550226827 C42.507366,0.502403788 42.5270956,0.443576605 42.4912617,0.39824507 C42.4739721,0.379835622 42.4505476,0.382327126 42.4332581,0.367585726 C42.4135285,0.343085935 42.4135285,0.312426592 42.3974241,0.292771392 C42.2381235,0.137052379 42.0429889,0.0426520525 41.8355146,0.00590236539 C41.8132753,0.00341086118 41.8021207,0.0144842132 41.7823911,0.0108161654 C41.5947161,-0.0124378739 41.3983267,-0.00143373034 41.2229914,0.0758029001 L0.629139558,17.7511566 C0.216700736,17.9313754 -0.0364374249,18.3554848 0.00427661703,18.8029867 C0.0401105512,19.2504193 0.36359198,19.6243526 0.806984628,19.7310028 L9.98974397,21.9400673 L14.4539271,31.3956026 C14.4848112,31.4569213 14.5428148,31.4875806 14.5847837,31.5403175 C14.604583,31.5733991 14.5921736,31.6150626 14.6206177,31.6444762 C14.6613317,31.6959673 14.7267949,31.7205363 14.7799183,31.7597083 C14.8206324,31.7940357 14.8564663,31.828363 14.9107749,31.8541086 C15.0700756,31.9411728 15.2343261,32 15.4121711,32 C15.4528852,32 15.4887191,31.9975085 15.5307578,31.9926639 C15.7307725,31.9705864 15.8999728,31.8761861 16.0493738,31.760954 C16.0666633,31.7462126 16.0950376,31.7536179 16.1148369,31.7376308 L23.15007,25.5761409 L30.1112649,27.8429252 C30.6298809,28.0034888 31.1967403,27.7582833 31.4141142,27.2618511 L42.622188,1.45125164 C42.6444273,1.38875641 42.6271378,1.32010163 42.6394775,1.25386914 C42.6617866,1.17054217 42.6666667,1.10313314 42.6666667,1.01731466 Z M16.5631794,21.7672538 C16.5434498,21.7806802 16.5508397,21.8064258 16.5322953,21.8211672 C16.3927939,21.9633905 16.2742073,22.1276914 16.2309835,22.3286727 L15.0467208,27.7019476 L12.0854017,21.4203118 L30.3607778,9.59500998 L16.5631794,21.7672538 Z M30.317554,7.11506358 L10.5405687,19.910045 L4.34624792,18.4217865 L30.317554,7.11506358 Z M17.1349886,28.0464673 L18.0438738,23.9126465 L20.819958,24.8162321 L17.1349886,28.0464673 Z M29.8569415,25.5505337 L19.3405184,22.1240234 L38.7989024,4.95617519 L29.8569415,25.5505337 Z" id="Shape"></path>
                            </g>
                        </g>
                    </g>
                </g>
            </g>
        </g>
    </g>
</svg>