<?xml version="1.0" encoding="utf-8"?>
<!-- Generator: Adobe Illustrator 22.0.1, SVG Export Plug-In . SVG Version: 6.00 Build 0)  -->
<svg version="1.1" id="Layer_1" xmlns="http://www.w3.org/2000/svg" xmlns:xlink="http://www.w3.org/1999/xlink" x="0px" y="0px"
	 viewBox="0 0 24.1 24.1" style="enable-background:new 0 0 24.1 24.1;" xml:space="preserve">
<style type="text/css">
	.st0{fill:#009EE1;}
</style>
<g>
	<path class="st0" d="M4.7,24.1H0.4c-0.2,0-0.4-0.2-0.4-0.4v-3.2c0-0.2,0.2-0.4,0.4-0.4s0.4,0.2,0.4,0.4v2.8h3.6v-1
		c0-0.2,0.2-0.4,0.4-0.4s0.4,0.2,0.4,0.4v1.4C5.1,23.9,5,24.1,4.7,24.1z"/>
	<path class="st0" d="M23.3,24.1H19c-0.2,0-0.4-0.2-0.4-0.4v-1.4c0-0.2,0.2-0.4,0.4-0.4c0.2,0,0.4,0.2,0.4,0.4v1h3.6v-2.8
		c0-0.2,0.2-0.4,0.4-0.4c0.2,0,0.4,0.2,0.4,0.4v3.2C23.7,23.9,23.5,24.1,23.3,24.1z"/>
	<path class="st0" d="M8.1,22.5H2.2c-1.2,0-2.2-1-2.2-2.2V17c0-0.2,0.2-0.4,0.4-0.4s0.4,0.2,0.4,0.4v3.3c0,0.8,0.6,1.4,1.4,1.4h5.9
		c0.2,0,0.4,0.2,0.4,0.4C8.5,22.3,8.3,22.5,8.1,22.5z"/>
	<path class="st0" d="M21.5,22.5h-6.3c-0.2,0-0.4-0.2-0.4-0.4c0-0.2,0.2-0.4,0.4-0.4h6.3c0.8,0,1.4-0.6,1.4-1.4V17
		c0-0.2,0.2-0.4,0.4-0.4c0.2,0,0.4,0.2,0.4,0.4v3.3C23.7,21.5,22.7,22.5,21.5,22.5z"/>
	<path class="st0" d="M20.8,12.8c-0.2,0-0.4-0.1-0.4-0.3l-0.2-1.2c0-0.1,0-0.2-0.1-0.3c0-0.2,0.1-0.4,0.3-0.5
		c0.2-0.1,0.4,0.1,0.5,0.3c0,0.1,0.1,0.2,0.1,0.4l0.2,1.2C21.2,12.5,21.1,12.7,20.8,12.8C20.8,12.8,20.8,12.8,20.8,12.8z"/>
	<path class="st0" d="M2.9,12.9C2.9,12.9,2.9,12.9,2.9,12.9c-0.3,0-0.4-0.2-0.4-0.5l0.2-1.3C3,9,4.8,7.5,6.8,7.5h6.6
		c0.2,0,0.4,0.2,0.4,0.4c0,0.2-0.2,0.4-0.4,0.4H6.8c-1.7,0-3.1,1.2-3.3,2.9l-0.2,1.3C3.3,12.7,3.1,12.9,2.9,12.9z"/>
	<path class="st0" d="M20.7,20.5H3c-1.6,0-3-1.3-3-2.9c0-1.6,0.6-3.1,1.7-4.2c0.4-0.4,0.6-0.8,0.8-1.3c0-0.1,0.2-0.2,0.3-0.2
		c0.1,0,0.3,0,0.4,0.1c0.7,0.6,1.6,1,2.5,1h12.4c0.9,0,1.8-0.3,2.5-1c0.1-0.1,0.2-0.1,0.4-0.1c0.1,0,0.2,0.1,0.3,0.2
		c0.2,0.5,0.5,0.9,0.8,1.3l0,0c1.1,1.1,1.7,2.6,1.7,4.2C23.7,19.2,22.3,20.5,20.7,20.5z M3,13c-0.2,0.4-0.5,0.7-0.8,1.1
		c-1,1-1.5,2.2-1.5,3.6c0,1.2,1,2.1,2.2,2.1h17.7c1.2,0,2.2-1,2.2-2.1c0-1.4-0.5-2.6-1.5-3.6l0,0c-0.3-0.3-0.6-0.7-0.8-1.1
		c-0.8,0.5-1.7,0.8-2.6,0.8H5.6C4.7,13.8,3.8,13.5,3,13z"/>
	<path class="st0" d="M5.1,11.1c-0.1,0-0.2,0-0.3-0.1c-0.2-0.2-0.2-0.4,0-0.6L6,9.2c0.2-0.2,0.4-0.2,0.6,0c0.2,0.2,0.2,0.4,0,0.6
		l-1.2,1.2C5.3,11,5.2,11.1,5.1,11.1z"/>
	<path class="st0" d="M5.3,12.4c-0.1,0-0.2,0-0.3-0.1c-0.2-0.2-0.2-0.4,0-0.6l3-3c0.2-0.2,0.4-0.2,0.6,0c0.2,0.2,0.2,0.4,0,0.6l-3,3
		C5.5,12.4,5.4,12.4,5.3,12.4z"/>
	<path class="st0" d="M18.6,13.8c-0.2,0-0.4-0.2-0.4-0.4c0-1.1-0.9-2-2-2s-2,0.9-2,2c0,0.2-0.2,0.4-0.4,0.4s-0.4-0.2-0.4-0.4
		c0-1.5,1.2-2.8,2.8-2.8s2.8,1.2,2.8,2.8C19,13.7,18.8,13.8,18.6,13.8z"/>
	<path class="st0" d="M4.7,19H2.4c-0.7,0-1.2-0.5-1.2-1.2V17c0-0.2,0.2-0.4,0.4-0.4h3.2c0.7,0,1.2,0.5,1.2,1.2S5.4,19,4.7,19z
		 M2,17.4v0.4c0,0.2,0.2,0.4,0.4,0.4h2.4c0.2,0,0.4-0.2,0.4-0.4S5,17.4,4.7,17.4H2z"/>
	<path class="st0" d="M21.3,19H19c-0.7,0-1.2-0.5-1.2-1.2s0.5-1.2,1.2-1.2h3.2c0.2,0,0.4,0.2,0.4,0.4v0.8C22.5,18.4,22,19,21.3,19z
		 M19,17.4c-0.2,0-0.4,0.2-0.4,0.4s0.2,0.4,0.4,0.4h2.4c0.2,0,0.4-0.2,0.4-0.4v-0.4H19z"/>
	<path class="st0" d="M15,22.9H8.3c-0.2,0-0.4-0.2-0.4-0.4v-2.4c0-0.2,0.2-0.4,0.4-0.4H15c0.2,0,0.4,0.2,0.4,0.4v2.4
		C15.4,22.7,15.2,22.9,15,22.9z M8.7,22.1h5.9v-1.6H8.7V22.1z"/>
	<path class="st0" d="M15.6,19H8.1c-0.8,0-1.4-0.6-1.4-1.4s0.6-1.4,1.4-1.4h7.5c0.8,0,1.4,0.6,1.4,1.4S16.4,19,15.6,19z M8.1,17
		c-0.3,0-0.6,0.3-0.6,0.6s0.3,0.6,0.6,0.6h7.5c0.3,0,0.6-0.3,0.6-0.6S15.9,17,15.6,17H8.1z"/>
	<path class="st0" d="M9.5,19c-0.2,0-0.4-0.2-0.4-0.4v-2c0-0.2,0.2-0.4,0.4-0.4s0.4,0.2,0.4,0.4v2C9.9,18.8,9.7,19,9.5,19z"/>
	<path class="st0" d="M11.9,19c-0.2,0-0.4-0.2-0.4-0.4v-2c0-0.2,0.2-0.4,0.4-0.4s0.4,0.2,0.4,0.4v2C12.3,18.8,12.1,19,11.9,19z"/>
	<path class="st0" d="M14.2,19c-0.2,0-0.4-0.2-0.4-0.4v-2c0-0.2,0.2-0.4,0.4-0.4s0.4,0.2,0.4,0.4v2C14.6,18.8,14.4,19,14.2,19z"/>
	<path class="st0" d="M18.4,11.5c-3.2,0-5.7-2.6-5.7-5.7S15.2,0,18.4,0s5.7,2.6,5.7,5.7S21.5,11.5,18.4,11.5z M18.4,0.8
		c-2.7,0-4.9,2.2-4.9,4.9s2.2,4.9,4.9,4.9s4.9-2.2,4.9-4.9S21.1,0.8,18.4,0.8z"/>
	<path class="st0" d="M17.1,3.2c0.3-0.1,0.8-0.1,1.4-0.1c0.7,0,1.2,0.2,1.6,0.5c0.3,0.3,0.5,0.7,0.5,1.2c0,0.5-0.1,0.9-0.4,1.2
		c-0.4,0.4-1,0.6-1.7,0.6c-0.2,0-0.4,0-0.6,0v2.2h-0.7L17.1,3.2L17.1,3.2z M17.8,5.9C17.9,6,18.1,6,18.4,6c0.9,0,1.4-0.4,1.4-1.2
		c0-0.7-0.5-1.1-1.3-1.1c-0.3,0-0.6,0-0.7,0.1V5.9z"/>
</g>
</svg>
