<?xml version="1.0" encoding="UTF-8"?>
<svg width="31px" height="38px" viewBox="0 0 31 38" version="1.1" xmlns="http://www.w3.org/2000/svg" xmlns:xlink="http://www.w3.org/1999/xlink">
    <!-- Generator: Sketch 49.3 (51167) - http://www.bohemiancoding.com/sketch -->
    <title>placeholder (2)</title>
    <desc>Created with Sketch.</desc>
    <defs></defs>
    <g id="Page-1" stroke="none" stroke-width="1" fill="none" fill-rule="evenodd">
        <g id="Home_Page_V1.1-Copy-7" transform="translate(-771.000000, -1557.000000)" fill="#FFFFFF" fill-rule="nonzero">
            <g id="Find-Your-Home-stay" transform="translate(128.000000, 1485.000000)">
                <g id="Right-Side" transform="translate(503.000000, 0.000000)">
                    <g id="Find-Amazing-Hosts">
                        <g id="Icon" transform="translate(108.000000, 44.000000)">
                            <g id="placeholder-(2)" transform="translate(32.000000, 28.000000)">
                                <path d="M15.2746199,0 C6.85440578,0 0,6.83522013 0,15.2318658 C0,16.1878407 0.0878769972,17.151782 0.27161981,18.0918239 C0.279608627,18.1475891 0.311563899,18.3148847 0.375474443,18.6016771 C0.607150163,19.6293501 0.950669333,20.6410901 1.39804314,21.6050314 C3.04373963,25.4687631 6.66267415,31.4037736 14.6035592,37.7610063 C14.8032796,37.9203354 15.0429442,38 15.2826087,38 C15.5222732,38 15.7619378,37.9203354 15.9616582,37.7610063 C23.8945544,31.4037736 27.5214778,25.4687631 29.1671743,21.6050314 C29.6145481,20.6410901 29.9580672,19.6373166 30.1897429,18.6016771 C30.2536535,18.3148847 30.2856088,18.1475891 30.2935976,18.0918239 C30.4693516,17.151782 30.5652174,16.1878407 30.5652174,15.2318658 C30.5492398,6.83522013 23.694834,0 15.2746199,0 Z M28.1525944,17.7174004 C28.1525944,17.7333333 28.1446056,17.7492662 28.1446056,17.7651992 C28.1366167,17.8050314 28.1126503,17.9245283 28.0727062,18.1077568 C28.0727062,18.1157233 28.0727062,18.1157233 28.0727062,18.1236897 C27.8729857,19.0159329 27.5773995,19.8842767 27.1859474,20.7207547 C27.1779586,20.7287212 27.1779586,20.7446541 27.1699698,20.7526205 C25.6760608,24.281761 22.4006455,29.667086 15.2746199,35.5383648 C8.14859429,29.667086 4.87317894,24.281761 3.37926998,20.7526205 C3.37128117,20.7446541 3.37128117,20.7287212 3.36329235,20.7207547 C2.97982909,19.8922432 2.68424282,19.0159329 2.47653356,18.1236897 C2.47653356,18.1157233 2.47653356,18.1157233 2.47653356,18.1077568 C2.42860065,17.9245283 2.41262301,17.8050314 2.4046342,17.7651992 C2.4046342,17.7492662 2.39664538,17.7333333 2.39664538,17.709434 C2.23686902,16.8888889 2.15698084,16.0603774 2.15698084,15.2238994 C2.15698084,8.01425577 8.04473965,2.14297694 15.2746199,2.14297694 C22.5045001,2.14297694 28.3922589,8.01425577 28.3922589,15.2238994 C28.3922589,16.0683438 28.3123707,16.9048218 28.1525944,17.7174004 Z" id="Shape"></path>
                                <path d="M15.2826087,5.7826087 C10.0474357,5.7826087 5.7826087,10.0474357 5.7826087,15.2826087 C5.7826087,20.5177817 10.0474357,24.7826087 15.2826087,24.7826087 C20.5177817,24.7826087 24.7826087,20.5177817 24.7826087,15.2826087 C24.7826087,10.0474357 20.5177817,5.7826087 15.2826087,5.7826087 Z M15.2826087,22.6697586 C11.2055906,22.6697586 7.89545878,19.3518014 7.89545878,15.2826087 C7.89545878,11.2134159 11.2134159,7.89545878 15.2826087,7.89545878 C19.3518014,7.89545878 22.6697586,11.2134159 22.6697586,15.2826087 C22.6697586,19.3518014 19.3596268,22.6697586 15.2826087,22.6697586 Z" id="Shape"></path>
                            </g>
                        </g>
                    </g>
                </g>
            </g>
        </g>
    </g>
</svg>