<?xml version="1.0" encoding="utf-8"?>
<!-- Generator: Adobe Illustrator 22.0.1, SVG Export Plug-In . SVG Version: 6.00 Build 0)  -->
<svg version="1.1" id="Layer_1" xmlns="http://www.w3.org/2000/svg" xmlns:xlink="http://www.w3.org/1999/xlink" x="0px" y="0px"
	 viewBox="0 0 23.7 20" style="enable-background:new 0 0 23.7 20;" xml:space="preserve">
<style type="text/css">
	.st0{fill:#009EE1;}
</style>
<g>
	<path class="st0" d="M23.3,15.1c-0.8,0-1.3,0.2-1.6,0.5c-0.3,0.2-0.6,0.4-1.2,0.4c-0.6,0-0.9-0.2-1.2-0.4c-0.4-0.2-0.8-0.5-1.6-0.5
		c-0.8,0-1.3,0.2-1.6,0.5c-0.3,0.2-0.6,0.4-1.2,0.4s-0.9-0.2-1.2-0.4c-0.4-0.2-0.8-0.5-1.6-0.5c-0.8,0-1.3,0.2-1.6,0.5
		c-0.3,0.2-0.6,0.4-1.2,0.4c-0.6,0-0.9-0.2-1.2-0.4c-0.4-0.2-0.8-0.5-1.6-0.5c-0.2,0-0.3,0-0.4,0v-2.1h3.7v1.2
		c0,0.2,0.2,0.4,0.4,0.4c0.2,0,0.4-0.2,0.4-0.4V4.9c0-1.4,0.7-2.7,1.8-3.4c1.2,0.8,1.8,2,1.8,3.4c0,0.2,0.2,0.4,0.4,0.4
		c0.2,0,0.4-0.2,0.4-0.4c0-1.5-0.7-2.9-1.8-3.8c0.4-0.2,0.9-0.3,1.4-0.3c2.3,0,4.1,1.8,4.1,4.1c0,0.2,0.2,0.4,0.4,0.4
		c0.2,0,0.4-0.2,0.4-0.4C19.2,2.2,17,0,14.3,0c-2.7,0-4.9,2.2-4.9,4.9v0.8H5.7V4.9c0-2.3,1.8-4.1,4.1-4.1c0.1,0,0.2,0,0.3,0
		c0.2,0,0.4-0.2,0.4-0.4c0-0.2-0.2-0.4-0.4-0.4C10,0,9.9,0,9.8,0C7.1,0,4.9,2.2,4.9,4.9v10.4c-0.1,0.1-0.3,0.1-0.4,0.2
		c-0.3,0.2-0.6,0.4-1.2,0.4c-0.6,0-0.9-0.2-1.2-0.4c-0.4-0.2-0.8-0.5-1.6-0.5c-0.2,0-0.4,0.2-0.4,0.4c0,0.2,0.2,0.4,0.4,0.4
		c0.6,0,0.9,0.2,1.2,0.4c0.4,0.2,0.8,0.5,1.6,0.5c0.8,0,1.3-0.2,1.6-0.5c0.3-0.2,0.6-0.4,1.2-0.4c0.6,0,0.9,0.2,1.2,0.4
		c0.4,0.2,0.8,0.5,1.6,0.5c0.8,0,1.3-0.2,1.6-0.5c0.3-0.2,0.6-0.4,1.2-0.4c0.6,0,0.9,0.2,1.2,0.4c0.4,0.2,0.8,0.5,1.6,0.5
		c0.8,0,1.3-0.2,1.6-0.5c0.3-0.2,0.6-0.4,1.2-0.4c0.6,0,0.9,0.2,1.2,0.4c0.4,0.2,0.8,0.5,1.6,0.5c0.8,0,1.3-0.2,1.6-0.5
		c0.3-0.2,0.6-0.4,1.2-0.4c0.2,0,0.4-0.2,0.4-0.4C23.7,15.3,23.5,15.1,23.3,15.1L23.3,15.1z M5.7,12.3V9.8h3.7v2.5H5.7z M9.4,6.5V9
		H5.7V6.5H9.4z M9.4,6.5"/>
	<path class="st0" d="M20.4,17.6c-0.6,0-0.9-0.2-1.2-0.4c-0.4-0.2-0.8-0.5-1.6-0.5c-0.8,0-1.3,0.2-1.6,0.5c-0.3,0.2-0.6,0.4-1.2,0.4
		s-0.9-0.2-1.2-0.4c-0.4-0.2-0.8-0.5-1.6-0.5c-0.8,0-1.3,0.2-1.6,0.5c-0.3,0.2-0.6,0.4-1.2,0.4c-0.6,0-0.9-0.2-1.2-0.4
		c-0.4-0.2-0.8-0.5-1.6-0.5c-0.8,0-1.3,0.2-1.6,0.5c-0.3,0.2-0.6,0.4-1.2,0.4c-0.2,0-0.4,0.2-0.4,0.4c0,0.2,0.2,0.4,0.4,0.4
		c0.8,0,1.3-0.2,1.6-0.5c0.3-0.2,0.6-0.4,1.2-0.4c0.6,0,0.9,0.2,1.2,0.4c0.4,0.2,0.8,0.5,1.6,0.5c0.8,0,1.3-0.2,1.6-0.5
		c0.3-0.2,0.6-0.4,1.2-0.4c0.6,0,0.9,0.2,1.2,0.4c0.4,0.2,0.8,0.5,1.6,0.5c0.8,0,1.3-0.2,1.6-0.5c0.3-0.2,0.6-0.4,1.2-0.4
		c0.6,0,0.9,0.2,1.2,0.4c0.4,0.2,0.8,0.5,1.6,0.5c0.2,0,0.4-0.2,0.4-0.4C20.8,17.7,20.6,17.6,20.4,17.6L20.4,17.6z M20.4,17.6"/>
	<path class="st0" d="M17.6,18.4c-0.8,0-1.3,0.2-1.6,0.5c-0.3,0.2-0.6,0.4-1.2,0.4s-0.9-0.2-1.2-0.4c-0.4-0.2-0.8-0.5-1.6-0.5
		c-0.8,0-1.3,0.2-1.6,0.5C9.9,19,9.6,19.2,9,19.2c-0.6,0-0.9-0.2-1.2-0.4c-0.4-0.2-0.8-0.5-1.6-0.5c-0.2,0-0.4,0.2-0.4,0.4
		c0,0.2,0.2,0.4,0.4,0.4c0.6,0,0.9,0.2,1.2,0.4C7.7,19.8,8.2,20,9,20c0.8,0,1.3-0.2,1.6-0.5c0.3-0.2,0.6-0.4,1.2-0.4
		c0.6,0,0.9,0.2,1.2,0.4c0.4,0.2,0.8,0.5,1.6,0.5c0.8,0,1.3-0.2,1.6-0.5c0.3-0.2,0.6-0.4,1.2-0.4c0.2,0,0.4-0.2,0.4-0.4
		C18,18.6,17.8,18.4,17.6,18.4L17.6,18.4z M17.6,18.4"/>
</g>
</svg>
