<?xml version="1.0" encoding="UTF-8"?>
<svg width="59px" height="67px" viewBox="0 0 59 67" version="1.1" xmlns="http://www.w3.org/2000/svg" xmlns:xlink="http://www.w3.org/1999/xlink">
    <!-- Generator: Sketch 49.3 (51167) - http://www.bohemiancoding.com/sketch -->
    <title>Profile</title>
    <desc>Created with Sketch.</desc>
    <defs></defs>
    <g id="End-Desing" stroke="none" stroke-width="1" fill="none" fill-rule="evenodd">
        <g id="Become-a-Host-Page-V1-Copy" transform="translate(-340.000000, -1677.000000)">
            <g id="1.-Apply-and-get-approved-Copy" transform="translate(340.000000, 1677.000000)">
                <g id="Profile">
                    <path d="M26.3591176,31.2925588 C24.9904044,32.6204926 23.0199779,33.4547353 20.8278676,33.4547353 C18.6357574,33.4547353 16.6653309,32.6204926 15.2966176,31.2925588 C15.0471691,31.0504853 14.9764559,30.6795662 15.0736324,30.3459559 C15.5512721,28.7117426 16.8622868,27.3829412 18.5728529,26.7512941 C19.2049338,27.3443309 19.9845147,27.6957279 20.8278676,27.6957279 C21.6716544,27.6957279 22.4508015,27.3443309 23.0828824,26.7512941 C24.7934485,27.3829412 26.1044632,28.7117426 26.5821029,30.3459559 C26.6797132,30.6795662 26.6085662,31.0504853 26.3591176,31.2925588 Z M20.8278676,18.3290441 C23.4841691,18.3290441 23.8099706,20.0396103 23.8099706,22.1501618 C23.8099706,24.2602794 22.4750956,25.9708456 20.8278676,25.9708456 C19.1810735,25.9708456 17.8457647,24.2602794 17.8457647,22.1501618 C17.8457647,20.0396103 18.172,18.3290441 20.8278676,18.3290441 Z M29.5,34.8685662 L29.5,16.5395221 C29.5,16.0900809 29.1355882,15.7261029 28.6865809,15.7261029 L12.9604779,15.7261029 C12.5114706,15.7261029 12.1470588,16.0900809 12.1470588,16.5395221 L12.1470588,34.8685662 C12.1470588,35.3180074 12.5114706,35.6819853 12.9604779,35.6819853 L28.6865809,35.6819853 C29.1355882,35.6819853 29.5,35.3180074 29.5,34.8685662 Z" id="Fill-199" fill="#5ABFFF"></path>
                    <path d="M33.8382353,22.6672794 L46.8945882,22.6672794 C47.3735294,22.6672794 47.7622353,22.2785735 47.7622353,21.7996324 C47.7622353,21.3206912 47.3735294,20.9319853 46.8945882,20.9319853 L33.8382353,20.9319853 C33.3592941,20.9319853 32.9705882,21.3206912 32.9705882,21.7996324 C32.9705882,22.2785735 33.3592941,22.6672794 33.8382353,22.6672794" id="Fill-200" fill="#1F2C46"></path>
                    <path d="M33.8382353,27.0055147 L42.5147059,27.0055147 C42.9936471,27.0055147 43.3823529,26.6168088 43.3823529,26.1378676 C43.3823529,25.6589265 42.9936471,25.2702206 42.5147059,25.2702206 L33.8382353,25.2702206 C33.3592941,25.2702206 32.9705882,25.6589265 32.9705882,26.1378676 C32.9705882,26.6168088 33.3592941,27.0055147 33.8382353,27.0055147" id="Fill-201" fill="#1F2C46"></path>
                    <path d="M33.8382353,18.3290441 L45.1176471,18.3290441 C45.5965882,18.3290441 45.9852941,17.9403382 45.9852941,17.4613971 C45.9852941,16.9824559 45.5965882,16.59375 45.1176471,16.59375 L33.8382353,16.59375 C33.3592941,16.59375 32.9705882,16.9824559 32.9705882,17.4613971 C32.9705882,17.9403382 33.3592941,18.3290441 33.8382353,18.3290441" id="Fill-202" fill="#1F2C46"></path>
                    <path d="M47.7205882,29.6084559 L33.8382353,29.6084559 C33.3592941,29.6084559 32.9705882,29.9971618 32.9705882,30.4761029 C32.9705882,30.9550441 33.3592941,31.34375 33.8382353,31.34375 L47.7205882,31.34375 C48.1995294,31.34375 48.5882353,30.9550441 48.5882353,30.4761029 C48.5882353,29.9971618 48.1995294,29.6084559 47.7205882,29.6084559" id="Fill-203" fill="#1F2C46"></path>
                    <path d="M13.0147059,40.0202206 L31.2352941,40.0202206 C31.7142353,40.0202206 32.1029412,39.6315147 32.1029412,39.1525735 C32.1029412,38.6736324 31.7142353,38.2849265 31.2352941,38.2849265 L13.0147059,38.2849265 C12.5357647,38.2849265 12.1470588,38.6736324 12.1470588,39.1525735 C12.1470588,39.6315147 12.5357647,40.0202206 13.0147059,40.0202206" id="Fill-204" fill="#1F2C46"></path>
                    <path d="M45.1176471,42.6231618 L13.0147059,42.6231618 C12.5357647,42.6231618 12.1470588,43.0118676 12.1470588,43.4908088 C12.1470588,43.96975 12.5357647,44.3584559 13.0147059,44.3584559 L45.1176471,44.3584559 C45.5965882,44.3584559 45.9852941,43.96975 45.9852941,43.4908088 C45.9852941,43.0118676 45.5965882,42.6231618 45.1176471,42.6231618" id="Fill-205" fill="#1F2C46"></path>
                    <path d="M47.7205882,38.2849265 L33.6729485,38.2849265 C33.1940074,38.2849265 32.8053015,38.6736324 32.8053015,39.1525735 C32.8053015,39.6315147 33.1940074,40.0202206 33.6729485,40.0202206 L47.7205882,40.0202206 C48.1995294,40.0202206 48.5882353,39.6315147 48.5882353,39.1525735 C48.5882353,38.6736324 48.1995294,38.2849265 47.7205882,38.2849265" id="Fill-206" fill="#1F2C46"></path>
                    <path d="M33.8382353,35.6819853 L39.9117647,35.6819853 C40.3907059,35.6819853 40.7794118,35.2932794 40.7794118,34.8143382 C40.7794118,34.3353971 40.3907059,33.9466912 39.9117647,33.9466912 L33.8382353,33.9466912 C33.3592941,33.9466912 32.9705882,34.3353971 32.9705882,34.8143382 C32.9705882,35.2932794 33.3592941,35.6819853 33.8382353,35.6819853" id="Fill-207" fill="#1F2C46"></path>
                    <path d="M45.9852941,35.6819853 C46.4642353,35.6819853 46.8529412,35.2932794 46.8529412,34.8143382 C46.8529412,34.3353971 46.4642353,33.9466912 45.9852941,33.9466912 L42.5147059,33.9466912 C42.0357647,33.9466912 41.6470588,34.3353971 41.6470588,34.8143382 C41.6470588,35.2932794 42.0357647,35.6819853 42.5147059,35.6819853 L45.9852941,35.6819853" id="Fill-208" fill="#1F2C46"></path>
                    <path d="M57.2647059,52.8700735 C57.2647059,52.9481618 57.1605882,53.0349265 57.0174265,53.0349265 L3.59639706,53.0349265 C3.51830882,53.0349265 3.47492647,52.9958824 3.47058824,52.9828676 L3.47058824,16.6458088 C3.47492647,16.6327941 3.51830882,16.59375 3.59639706,16.59375 L5.20588235,16.59375 L5.20588235,48.6966912 C5.20588235,49.1738971 5.59632353,49.5643382 6.07352941,49.5643382 L54.6617647,49.5643382 C55.1389706,49.5643382 55.5294118,49.1738971 55.5294118,48.6966912 L55.5294118,16.59375 L57.1388971,16.59375 C57.2169853,16.59375 57.2603676,16.6327941 57.2647059,16.6458088 L57.2647059,52.8700735 Z M31.5129412,54.7702206 L31.5129412,56.3215735 C31.5129412,57.4529853 30.8908382,57.8069853 30.3329412,57.8069853 C29.7746103,57.8069853 29.1529412,57.4529853 29.1529412,56.3215735 L29.1529412,54.7702206 L31.5129412,54.7702206 Z M37.5521985,60.84375 L23.1136838,60.84375 C23.6950074,59.6004118 23.9991176,58.240375 23.9991176,56.8438971 L23.9991176,54.7702206 L27.4176471,54.7702206 L27.4176471,56.3215735 C27.4176471,58.3366838 28.725625,59.5422794 30.3329412,59.5422794 C31.9402574,59.5422794 33.2482353,58.3366838 33.2482353,56.3215735 L33.2482353,54.7702206 L36.6663309,54.7702206 L36.6663309,56.8438971 C36.6663309,58.240375 36.970875,59.5999779 37.5521985,60.84375 Z M17.3529412,64.3143382 L43.3823529,64.3143382 L43.3823529,62.5790441 L17.3529412,62.5790441 L17.3529412,64.3143382 Z M6.94117647,16.59375 L6.94117647,12.2555147 L53.7941176,12.2555147 L53.7941176,47.8290441 L6.94117647,47.8290441 L6.94117647,16.59375 Z M6.94117647,8.25566176 C6.94117647,7.59191176 7.48345588,7.04963235 8.14720588,7.04963235 L52.5880882,7.04963235 C53.2518382,7.04963235 53.7941176,7.59191176 53.7941176,8.25566176 L53.7941176,10.5202206 L6.94117647,10.5202206 L6.94117647,8.25566176 Z M57.1388971,14.8584559 L55.5294118,14.8584559 L55.5294118,8.25566176 C55.5294118,6.63316176 54.2105882,5.31433824 52.5880882,5.31433824 L8.14720588,5.31433824 C6.52470588,5.31433824 5.20588235,6.63316176 5.20588235,8.25566176 L5.20588235,14.8584559 L3.59639706,14.8584559 C2.56823529,14.8584559 1.73529412,15.6610294 1.73529412,16.6458088 L1.73529412,52.9828676 C1.73529412,53.9676471 2.56823529,54.7702206 3.59639706,54.7702206 L22.2638235,54.7702206 L22.2638235,56.8438971 C22.2638235,58.2681397 21.87425,59.6424926 21.1432574,60.84375 L16.4852941,60.84375 C16.0063529,60.84375 15.6176471,61.2324559 15.6176471,61.7113971 L15.6176471,64.3143382 L6.07352941,64.3143382 C5.59458824,64.3143382 5.20588235,64.7047794 5.20588235,65.1819853 C5.20588235,65.6591912 5.59458824,66.0496324 6.07352941,66.0496324 L50.3235294,66.0496324 C50.8024706,66.0496324 51.1911765,65.6591912 51.1911765,65.1819853 C51.1911765,64.7047794 50.8024706,64.3143382 50.3235294,64.3143382 L45.1176471,64.3143382 L45.1176471,61.7113971 C45.1176471,61.2324559 44.7289412,60.84375 44.25,60.84375 L39.5221912,60.84375 C38.7911985,59.641625 38.401625,58.2672721 38.401625,56.8438971 L38.401625,54.7702206 L57.0174265,54.7702206 C58.1106618,54.7702206 59,53.9199265 59,52.8700735 L59,16.6458088 C59,15.6610294 58.1670588,14.8584559 57.1388971,14.8584559 Z" id="Fill-209" fill="#1F2C46"></path>
                    <path d="M8.31466176,1.84375 L22.5588235,1.84375 C23.0377647,1.84375 23.4264706,1.45504412 23.4264706,0.976102941 C23.4264706,0.497161765 23.0377647,0.108455882 22.5588235,0.108455882 L8.31466176,0.108455882 C3.73001471,0.108455882 0,3.83890441 0,8.42355147 C0,8.90249265 0.388705882,9.29119853 0.867647059,9.29119853 C1.34658824,9.29119853 1.73529412,8.90249265 1.73529412,8.42355147 C1.73529412,4.79548529 4.68659559,1.84375 8.31466176,1.84375" id="Fill-210" fill="#1F2C46"></path>
                    <path d="M52.9264706,64.2058824 C52.3885294,64.2058824 51.9503676,64.6440441 51.9503676,65.1819853 C51.9503676,65.7199265 52.3885294,66.1580882 52.9264706,66.1580882 C53.4644118,66.1580882 53.9025735,65.7199265 53.9025735,65.1819853 C53.9025735,64.6440441 53.4644118,64.2058824 52.9264706,64.2058824" id="Fill-211" fill="#1F2C46"></path>
                    <path d="M25.1617647,1.95220588 C25.7001397,1.95220588 26.1378676,1.51404412 26.1378676,0.976102941 C26.1378676,0.438161765 25.7001397,0 25.1617647,0 C24.6233897,0 24.1856618,0.438161765 24.1856618,0.976102941 C24.1856618,1.51404412 24.6233897,1.95220588 25.1617647,1.95220588" id="Fill-212" fill="#1F2C46"></path>
                    <path d="M54.6617647,50.3235294 C54.1238235,50.3235294 53.6856618,50.7616912 53.6856618,51.2996324 C53.6856618,51.8375735 54.1238235,52.2757353 54.6617647,52.2757353 C55.1997059,52.2757353 55.6378676,51.8375735 55.6378676,51.2996324 C55.6378676,50.7616912 55.1997059,50.3235294 54.6617647,50.3235294" id="Fill-213" fill="#1F2C46"></path>
                    <path d="M51.1911765,50.3235294 C50.6532353,50.3235294 50.2150735,50.7616912 50.2150735,51.2996324 C50.2150735,51.8375735 50.6532353,52.2757353 51.1911765,52.2757353 C51.7291176,52.2757353 52.1672794,51.8375735 52.1672794,51.2996324 C52.1672794,50.7616912 51.7291176,50.3235294 51.1911765,50.3235294" id="Fill-214" fill="#1F2C46"></path>
                    <path d="M47.7205882,50.3235294 C47.1826471,50.3235294 46.7444853,50.7616912 46.7444853,51.2996324 C46.7444853,51.8375735 47.1826471,52.2757353 47.7205882,52.2757353 C48.2585294,52.2757353 48.6966912,51.8375735 48.6966912,51.2996324 C48.6966912,50.7616912 48.2585294,50.3235294 47.7205882,50.3235294" id="Fill-215" fill="#1F2C46"></path>
                </g>
            </g>
        </g>
    </g>
</svg>