<svg xmlns="http://www.w3.org/2000/svg" viewBox="0 0 25.83 17.14"><defs><style>.cls-1{fill:#1ea0f2;}</style></defs><title>smoke</title><g id="Layer_2" data-name="Layer 2"><g id="Layer_1-2" data-name="Layer 1"><path class="cls-1" d="M25.19,5.11l-.42-.93H16L15.56,5A6.85,6.85,0,0,0,15,7.36c-.2-.26-.4-.54-.61-.83A17.22,17.22,0,0,0,9.77,1.74,12.84,12.84,0,0,0,6.14.32,12.82,12.82,0,0,0,3.32,0h-.9a2.42,2.42,0,0,0,0,4.84h1a4.23,4.23,0,0,1,3.4,1.47A18.37,18.37,0,0,1,9.21,9.74c1.3,2.16,2.78,4.6,5.42,6.14A8.61,8.61,0,0,0,19,17.14a8.05,8.05,0,0,0,3.07-.62A5.8,5.8,0,0,0,25,13.89a7.16,7.16,0,0,0,.84-3.42c0-3.68-.49-5-.64-5.36ZM8.34,5.67c-.14-.17-.29-.32-.44-.48A5.83,5.83,0,0,0,3.38,3.26h-1a.84.84,0,0,1,0-1.68h.9a11.53,11.53,0,0,1,2.47.28A11.08,11.08,0,0,1,9,3.09a8.06,8.06,0,0,1,1.13.84Zm13.15,9.39a6.35,6.35,0,0,1-2.47.51,7.14,7.14,0,0,1-3.6-1.05c-3-1.77-4.35-5-6.12-7.59l1.89-1.88c2.11,2.38,3.59,5.45,5.17,5.45,0-3.69.58-4.74.58-4.74h6.82s.49,1.08.49,4.71a4.75,4.75,0,0,1-2.76,4.59Z"/></g></g></svg>