<?xml version="1.0" encoding="utf-8"?>
<!-- Generator: Adobe Illustrator 22.0.1, SVG Export Plug-In . SVG Version: 6.00 Build 0)  -->
<svg version="1.1" id="Layer_1" xmlns="http://www.w3.org/2000/svg" xmlns:xlink="http://www.w3.org/1999/xlink" x="0px" y="0px"
	 viewBox="0 0 23 23" style="enable-background:new 0 0 23 23;" xml:space="preserve">
<style type="text/css">
	.st0{fill:#009EE1;}
</style>
<g>
	<path class="st0" d="M14.5,3.9c-0.1-0.1-0.4-0.1-0.5,0l-1.7,1.7c-0.1-0.6-0.6-1.1-1.3-1c-0.2,0-0.5,0.1-0.6,0.3
		C9.9,4.5,9.2,4.5,8.7,5C8.5,5.2,8.4,5.5,8.4,5.8v5.1c-0.1,0-0.3-0.1-0.4-0.1H7.3c-0.2,0-0.4,0.2-0.4,0.4v5c0,0.1,0,0.2,0.1,0.3
		l1.4,1.4v1h0.8v-1.1c0-0.1,0-0.2-0.1-0.3l-1.4-1.4v-4.4h0.4c0.2,0,0.4,0.2,0.4,0.4v1.9h0.8V5.8c0-0.2,0.2-0.4,0.4-0.4
		S10,5.5,10,5.8v6.5h0.8v-1.8l0.8-0.8v2.5c0,0.2,0.2,0.4,0.4,0.4s0.4-0.2,0.4-0.4v-1.9c0-0.2,0.2-0.4,0.4-0.4s0.4,0.2,0.4,0.4v1.9
		h0.8v-1.9c0-0.2,0.2-0.4,0.4-0.4s0.4,0.2,0.4,0.4v8.4h0.8v-8.4c0-0.6-0.5-1.1-1.1-1.2c-0.3,0-0.6,0.1-0.8,0.3
		c-0.3-0.3-0.8-0.4-1.2-0.2V9l3.3-3.3c0.1-0.1,0.1-0.4,0-0.5L14.5,3.9z M11.1,5.4c0.2,0,0.4,0.2,0.4,0.4v0.6l-0.8,0.8V5.8
		C10.7,5.5,10.9,5.4,11.1,5.4z M10.7,8.2L13,5.9l0.6,0.6l-2.9,2.9V8.2z M14.2,6l-0.6-0.6l0.6-0.6l0.6,0.6L14.2,6z"/>
	<path class="st0" d="M11.5,0C5.1,0,0,5.1,0,11.5S5.1,23,11.5,23S23,17.9,23,11.5C23,5.2,17.8,0,11.5,0z M11.5,22.2
		c-5.9,0-10.7-4.8-10.7-10.7S5.6,0.8,11.5,0.8s10.7,4.8,10.7,10.7C22.2,17.4,17.4,22.2,11.5,22.2z"/>
	<path class="st0" d="M11.5,1.5c-2.4,0-4.6,0.8-6.4,2.3C4.9,4,4.9,4.3,5,4.4c0,0,0,0,0,0l1.8,1.8v1.2L4.4,5.1C4.4,5,4.3,4.9,4.2,4.9
		C4.1,4.9,4,5,3.9,5.1c-3.5,4.2-3,10.5,1.2,14c3.7,3.1,9.1,3.1,12.9,0c0.2-0.1,0.2-0.4,0-0.5c0,0,0,0,0,0l-1.1-1.1v-1.2l1.7,1.7
		c0.1,0.1,0.2,0.1,0.3,0.1c0.1,0,0.2-0.1,0.3-0.1c3.5-4.2,3-10.5-1.2-14C16.1,2.4,13.9,1.5,11.5,1.5z M18.8,17.1l-2-2
		c-0.1-0.1-0.4-0.1-0.5,0c-0.1,0.1-0.1,0.2-0.1,0.3v2.3c0,0.1,0,0.2,0.1,0.3l0.9,0.9c-4,3.1-9.8,2.3-12.9-1.7
		c-2.5-3.3-2.5-7.9,0-11.2L7,8.7c0.1,0.1,0.4,0.1,0.5,0c0.1-0.1,0.1-0.2,0.1-0.3V6.1c0-0.1,0-0.2-0.1-0.3L5.9,4.2
		c4-3.1,9.8-2.3,12.9,1.7C21.3,9.2,21.3,13.8,18.8,17.1z"/>
</g>
</svg>
