<?xml version="1.0" encoding="utf-8"?>
<!-- Generator: Adobe Illustrator 22.0.1, SVG Export Plug-In . SVG Version: 6.00 Build 0)  -->
<svg version="1.1" id="Layer_1" xmlns="http://www.w3.org/2000/svg" xmlns:xlink="http://www.w3.org/1999/xlink" x="0px" y="0px"
	 viewBox="0 0 26 26" style="enable-background:new 0 0 26 26;" xml:space="preserve">
<style type="text/css">
	.st0{fill:#009EE1;stroke:#009EE1;stroke-width:0.4803;stroke-miterlimit:10;}
</style>
<g>
	<path class="st0" d="M12.1,10.9c0-0.2-0.2-0.4-0.4-0.4h-1.6c-0.2,0-0.4,0.2-0.4,0.4s0.2,0.4,0.4,0.4h0.4c0,0.2,0.2,0.4,0.4,0.4
		s0.4-0.2,0.4-0.4h0.4C11.9,11.4,12.1,11.2,12.1,10.9L12.1,10.9z"/>
	<path class="st0" d="M6.5,13c0.2,0.7,0.9,2.4,1.2,3.2c0.7,1.3,2.5,3.6,5.4,3.6c2.8,0,4.7-2.2,5.4-3.6c0.4-0.7,1-2.5,1.2-3.2
		c0.6-0.1,1-0.7,1-1.2v-1.6c0-0.6-0.4-1-0.9-1.2V6.8c0-1.6-0.9-4.7-4-5c0-0.2-0.1-0.4-0.2-0.5C15,0.6,13.9,0.5,13,0.5
		c-7.4,0-7.5,7-7.5,7.1C5.5,7.8,5.7,8,5.9,8l0,0c0.2,0,0.4-0.2,0.4-0.4c0-0.3,0.1-6.2,6.6-6.2c1.2,0,1.6,0.3,1.7,0.4
		c0,0,0.1,0.1,0,0.3c-0.1,0.1-0.1,0.3,0,0.4c0.1,0.1,0.2,0.2,0.4,0.2c3.7,0,3.7,4,3.7,4.1v2.5c0,0.2,0.2,0.4,0.4,0.4
		c0.2,0,0.4,0.2,0.4,0.4v1.6c0,0.2-0.2,0.4-0.4,0.4c-0.2,0-0.4,0.1-0.4,0.3c0,0-0.9,2.5-1.2,3.3c-0.1,0.1-1.6,3.1-4.6,3.1
		s-4.4-2.8-4.5-3c-0.4-0.8-1.2-3.3-1.2-3.3c-0.1-0.2-0.2-0.3-0.4-0.3c-0.2,0-0.4-0.2-0.4-0.4v-1.6c0-0.1,0-0.2,0.1-0.3
		c0.2,0.4,0.5,0.7,1.2,0.7c0.2,0,0.3-0.1,0.4-0.2C8.4,9.5,8.8,8.8,8.9,8c2.1-0.1,5.3-0.9,6.8-2c0.4,1.4,1.6,2.7,1.6,2.7
		c0.2,0.2,0.4,0.2,0.6,0s0.2-0.4,0-0.6c0,0-1.5-1.5-1.5-3.1c0-0.2-0.1-0.4-0.3-0.4c-0.2-0.1-0.4,0-0.5,0.2C14.9,6,11,7.1,8.5,7.1
		C8.2,7.1,8,7.3,8,7.6c0,0.7-0.3,1.3-0.7,2C7.2,9.5,7.1,9.4,7.1,9.3c0-0.2-0.2-0.4-0.4-0.4c-0.7,0-1.2,0.6-1.2,1.2v1.6
		C5.5,12.3,5.9,12.8,6.5,13L6.5,13z"/>
	<path class="st0" d="M13,16.7c1,0,1.4-0.5,1.5-0.6c0.2-0.2,0.2-0.4,0-0.6c-0.2-0.2-0.4-0.2-0.6,0c0,0-0.3,0.3-1,0.3
		c-0.6,0-1-0.3-1-0.3c-0.2-0.2-0.4-0.2-0.6,0c-0.2,0.2-0.2,0.4,0,0.6C11.6,16.3,12,16.7,13,16.7L13,16.7z"/>
	<g>
		<path class="st0" d="M13.4,14.2c0-0.2-0.2-0.4-0.4-0.4l0,0c-0.2,0-0.4,0.2-0.4,0.4s0.2,0.4,0.4,0.4C13.3,14.6,13.4,14.4,13.4,14.2
			L13.4,14.2z"/>
		<path class="st0" d="M25.5,25l-0.4-1.7c-0.2-0.7-1.4-2.7-8.7-2.8V20c0-0.2-0.2-0.4-0.4-0.4s-0.4,0.2-0.4,0.4v0.9l0,0l0,0
			c0,0.3-0.1,2.5-2.5,2.5s-2.5-2.2-2.5-2.5V20c0-0.2-0.2-0.4-0.4-0.4S9.8,19.8,9.8,20v0.4c-5.4,0-8.1,0.9-8.7,2.8L0.5,25
			c0,0.2,0.1,0.4,0.3,0.5s0.5-0.1,0.5-0.3l0.5-1.6c0.5-1.4,3.1-2.2,8-2.2c0.2,1.2,1,2.9,3.3,2.9s3.2-1.7,3.3-2.9
			c5.7,0,7.7,1.3,8,2.2l0.4,1.6c0,0.2,0.2,0.3,0.4,0.3h0.1C25.4,25.4,25.5,25.2,25.5,25L25.5,25z"/>
	</g>
	<path class="st0" d="M15.1,11.8c0.2,0,0.4-0.2,0.4-0.4h0.4c0.2,0,0.4-0.2,0.4-0.4s-0.2-0.4-0.4-0.4h-1.6c-0.2,0-0.4,0.2-0.4,0.4
		s0.2,0.4,0.4,0.4h0.4C14.6,11.6,14.8,11.8,15.1,11.8L15.1,11.8z"/>
</g>
</svg>
