<?xml version="1.0" encoding="utf-8"?>
<!-- Generator: Adobe Illustrator 22.0.1, SVG Export Plug-In . SVG Version: 6.00 Build 0)  -->
<svg version="1.1" id="Layer_1" xmlns="http://www.w3.org/2000/svg" xmlns:xlink="http://www.w3.org/1999/xlink" x="0px" y="0px"
	 viewBox="0 0 23.9 26" style="enable-background:new 0 0 23.9 26;" xml:space="preserve">
<style type="text/css">
	.st0{fill:#009EE1;}
</style>
<g>
	<path class="st0" d="M23.4,10.2h-1.7l-2.9-4.8c-0.1-0.2-0.3-0.2-0.4-0.2h-3.1V0.5C15.3,0.2,15,0,14.8,0h-4.6C9.9,0,9.7,0.2,9.7,0.5
		v4.6H6.1c-0.2,0-0.3,0.1-0.4,0.2l-2.9,4.8H0.5c-0.3,0-0.5,0.2-0.5,0.5v4.1c0,0.3,0.2,0.5,0.5,0.5h22.9c0.3,0,0.5-0.2,0.5-0.5v-4.1
		C23.9,10.4,23.7,10.2,23.4,10.2L23.4,10.2z M10.7,1h3.6v4.1h-3.6V1z M6.4,6.1H18l2.4,4.1H4L6.4,6.1z M22.9,14.2H1v-3.1h21.9V14.2z
		 M22.9,14.2"/>
	<path class="st0" d="M19.8,11.7h-0.5c-0.3,0-0.5,0.2-0.5,0.5v0.5c0,0.3,0.2,0.5,0.5,0.5h0.5c0.3,0,0.5-0.2,0.5-0.5v-0.5
		C20.4,11.9,20.1,11.7,19.8,11.7L19.8,11.7z M19.8,11.7"/>
	<path class="st0" d="M17.8,11.7h-0.5c-0.3,0-0.5,0.2-0.5,0.5v0.5c0,0.3,0.2,0.5,0.5,0.5h0.5c0.3,0,0.5-0.2,0.5-0.5v-0.5
		C18.3,11.9,18.1,11.7,17.8,11.7L17.8,11.7z M17.8,11.7"/>
	<path class="st0" d="M15.8,11.7h-0.5c-0.3,0-0.5,0.2-0.5,0.5v0.5c0,0.3,0.2,0.5,0.5,0.5h0.5c0.3,0,0.5-0.2,0.5-0.5v-0.5
		C16.3,11.9,16.1,11.7,15.8,11.7L15.8,11.7z M15.8,11.7"/>
	<path class="st0" d="M9.8,16.3c0,0-1.1,0.5-1.5,1.7c-0.3,1-0.2,2.1,0.4,3.3c1.4,2.7,0.1,3.6,0,3.7c-0.2,0.1-0.3,0.5-0.2,0.7
		C8.7,25.9,8.8,26,9,26c0.1,0,0.2,0,0.3-0.1c0.1-0.1,2.2-1.4,0.4-5c-0.5-1-0.6-1.8-0.4-2.5c0.3-0.8,1-1.2,1-1.2
		c0.3-0.1,0.4-0.4,0.2-0.7C10.4,16.3,10.1,16.2,9.8,16.3L9.8,16.3z M9.8,16.3"/>
	<path class="st0" d="M12.4,16.3c0,0-1.1,0.5-1.5,1.7c-0.3,1-0.2,2.1,0.4,3.3c1.4,2.7,0.1,3.6,0,3.7c-0.2,0.1-0.3,0.5-0.2,0.7
		c0.1,0.2,0.3,0.2,0.4,0.2c0.1,0,0.2,0,0.3-0.1c0.1-0.1,2.2-1.4,0.4-5c-0.5-1-0.6-1.8-0.4-2.5c0.3-0.8,1-1.2,1-1.2
		c0.3-0.1,0.4-0.4,0.2-0.7C12.9,16.3,12.6,16.2,12.4,16.3L12.4,16.3z M12.4,16.3"/>
	<path class="st0" d="M14.9,16.3c0,0-1.1,0.5-1.5,1.7c-0.3,1-0.2,2.1,0.4,3.3c1.4,2.7,0.1,3.6,0,3.7c-0.2,0.1-0.3,0.5-0.2,0.7
		c0.1,0.2,0.3,0.2,0.4,0.2c0.1,0,0.2,0,0.3-0.1c0.1-0.1,2.2-1.4,0.4-5c-0.5-1-0.6-1.8-0.4-2.5c0.3-0.8,1-1.2,1-1.2
		c0.3-0.1,0.4-0.4,0.2-0.7C15.5,16.3,15.2,16.2,14.9,16.3L14.9,16.3z M14.9,16.3"/>
</g>
</svg>
