<?xml version="1.0" encoding="utf-8"?>
<!-- Generator: Adobe Illustrator 22.0.1, SVG Export Plug-In . SVG Version: 6.00 Build 0)  -->
<svg version="1.1" id="Layer_1" xmlns="http://www.w3.org/2000/svg" xmlns:xlink="http://www.w3.org/1999/xlink" x="0px" y="0px"
	 viewBox="0 0 18.3 25" style="enable-background:new 0 0 18.3 25;" xml:space="preserve">
<style type="text/css">
	.st0{fill:#009EE1;}
</style>
<g>
	<path class="st0" d="M18.3,7.1l-2.5-2.5H9.3V4.1c1-0.2,1.7-1,1.7-2C11,0.9,10.1,0,8.9,0C7.8,0,6.8,0.9,6.8,2.1c0,1,0.7,1.8,1.7,2
		v0.5H5.2c-0.7,0-1.3,0.6-1.3,1.3v1.2H2.5L0,9.6l2.5,2.5h6v8.8H6.4v1.7H5.2V25h7.5v-2.5h-1.3v-1.7H9.3v-8.8H13
		c0.7,0,1.3-0.6,1.3-1.3V9.6h1.4L18.3,7.1z M7.7,2.1c0-0.7,0.6-1.2,1.3-1.2c0.7,0,1.2,0.6,1.2,1.2c0,0.7-0.6,1.2-1.2,1.2
		C8.2,3.3,7.7,2.8,7.7,2.1L7.7,2.1z M11.8,23.3v0.8H6v-0.8H11.8z M10.6,22.5H7.3v-0.8h3.3V22.5z M13.5,10.8c0,0.3-0.2,0.5-0.5,0.5
		H2.8L1.2,9.6l1.7-1.7H13c0.3,0,0.5,0.2,0.5,0.5V10.8z M14.3,8.8V8.4c0-0.7-0.6-1.3-1.3-1.3H4.8V5.9c0-0.3,0.2-0.5,0.5-0.5h10.2
		l1.7,1.7l-1.7,1.7H14.3z M14.3,8.8"/>
</g>
</svg>
