<?xml version="1.0" encoding="utf-8"?>
<!-- Generator: Adobe Illustrator 22.0.1, SVG Export Plug-In . SVG Version: 6.00 Build 0)  -->
<svg version="1.1" id="Layer_1" xmlns="http://www.w3.org/2000/svg" xmlns:xlink="http://www.w3.org/1999/xlink" x="0px" y="0px"
	 viewBox="0 0 20.8 16.7" style="enable-background:new 0 0 20.8 16.7;" xml:space="preserve">
<style type="text/css">
	.st0{fill:none;stroke:#009EE1;stroke-width:0.8316;stroke-linecap:round;stroke-linejoin:round;stroke-miterlimit:10;}
	.st1{fill:#009EE1;}
	.st2{fill:none;stroke:#009EE1;stroke-width:0.8316;stroke-linecap:round;stroke-miterlimit:10;}
</style>
<g>
	<g>
		<path class="st0" d="M20.4,13.3c0,0.5-0.4,0.8-0.8,0.8H1.2c-0.5,0-0.8-0.4-0.8-0.8V1.2c0-0.5,0.4-0.8,0.8-0.8h18.3
			c0.5,0,0.8,0.4,0.8,0.8V13.3z"/>
	</g>
	<g>
		<path class="st0" d="M14.6,11.2c0,0.2-0.2,0.4-0.4,0.4H3.6c-0.2,0-0.4-0.2-0.4-0.4V3.4C3.2,3.2,3.4,3,3.6,3h10.5
			c0.2,0,0.4,0.2,0.4,0.4V11.2z"/>
	</g>
	<path class="st1" d="M18.2,4.5c0,0.4-0.3,0.7-0.7,0.7c-0.4,0-0.7-0.3-0.7-0.7s0.3-0.7,0.7-0.7C17.9,3.8,18.2,4.1,18.2,4.5z"/>
	<path class="st1" d="M18.2,7.3c0,0.4-0.3,0.7-0.7,0.7c-0.4,0-0.7-0.3-0.7-0.7c0-0.4,0.3-0.7,0.7-0.7C17.9,6.6,18.2,6.9,18.2,7.3z"
		/>
	<g>
		<line class="st2" x1="4.4" y1="14.5" x2="4.4" y2="16.3"/>
		<line class="st2" x1="16.4" y1="14.5" x2="16.4" y2="16.3"/>
	</g>
</g>
</svg>
