<?xml version="1.0" encoding="utf-8"?>
<!-- Generator: Adobe Illustrator 22.0.1, SVG Export Plug-In . SVG Version: 6.00 Build 0)  -->
<svg version="1.1" id="Layer_1" xmlns="http://www.w3.org/2000/svg" xmlns:xlink="http://www.w3.org/1999/xlink" x="0px" y="0px"
	 viewBox="0 0 718.6 221.6" style="enable-background:new 0 0 718.6 221.6;" xml:space="preserve">
<style type="text/css">
	.st0{fill:#FFFFFF;}
</style>
<g>
	<g>
		<path class="st0" d="M193,33.1C171.6,11.8,143.3,0,113.1,0S54.5,11.8,33.1,33.1C11.8,54.5,0,82.9,0,113.1s11.8,58.6,33.1,79.9
			c13.7,13.7,30.2,23.4,48.2,28.6l23-86.7c-8.6-3.4-14.7-11.9-14.7-21.7c0-12.9,10.5-23.4,23.4-23.4c12.9,0,23.4,10.5,23.4,23.4
			c0,9.8-6.1,18.3-14.7,21.7l23,86.7c18-5.2,34.6-15,48.2-28.6c21.4-21.4,33.1-49.7,33.1-79.9S214.4,54.5,193,33.1z M166.1,131.6
			V84.9l-53.1-40.7L60,84.9v46.7H15c-1.1-6-1.7-12.2-1.7-18.5c0-55,44.8-99.8,99.8-99.8c55,0,99.8,44.8,99.8,99.8
			c0,6.3-0.6,12.5-1.7,18.5H166.1z"/>
		<g>
			<path class="st0" d="M288.6,129.5V43.4h33.1v85.2c0,24.5,12.3,37.2,32.5,37.2c20.2,0,32.5-12.3,32.5-36.1V43.4h33.1v85
				c0,45.6-25.6,68-66,68C313.4,196.4,288.6,173.8,288.6,129.5z"/>
			<path class="st0" d="M443.3,172.1l19.6-23.4c13.6,11.2,27.8,18.3,45,18.3c13.6,0,21.7-5.4,21.7-14.2v-0.4
				c0-8.4-5.2-12.7-30.3-19.1c-30.3-7.7-49.9-16.1-49.9-46v-0.4c0-27.3,21.9-45.4,52.7-45.4c21.9,0,40.7,6.9,55.9,19.1l-17.2,25
				c-13.3-9.2-26.5-14.8-39.2-14.8c-12.7,0-19.4,5.8-19.4,13.1v0.4c0,9.9,6.5,13.1,32.5,19.8c30.5,8,47.8,18.9,47.8,45.2v0.4
				c0,29.9-22.8,46.7-55.3,46.7C484.4,196.2,461.4,188.2,443.3,172.1z"/>
			<path class="st0" d="M591.3,43.4h33.1V103h61.1V43.4h33.1V194h-33.1v-60.4h-61.1V194h-33.1V43.4z"/>
		</g>
	</g>
</g>
</svg>
