<?xml version="1.0" encoding="utf-8"?>
<!-- Generator: Adobe Illustrator 22.0.1, SVG Export Plug-In . SVG Version: 6.00 Build 0)  -->
<svg version="1.1" id="Layer_1" xmlns="http://www.w3.org/2000/svg" xmlns:xlink="http://www.w3.org/1999/xlink" x="0px" y="0px"
	 viewBox="0 0 19.1 18.8" style="enable-background:new 0 0 19.1 18.8;" xml:space="preserve">
<style type="text/css">
	.st0{fill:none;stroke:#009EE1;stroke-width:0.7645;stroke-linejoin:round;stroke-miterlimit:10;}
</style>
<g>
	<g>
		<line class="st0" x1="3.2" y1="18.4" x2="5.7" y2="18.4"/>
		<line class="st0" x1="13.4" y1="18.4" x2="15.9" y2="18.4"/>
	</g>
	<path class="st0" d="M18.7,15.5c0,1.1-0.9,2-2,2H2.4c-1.1,0-2-0.9-2-2V2.4c0-1.1,0.9-2,2-2h14.3c1.1,0,2,0.9,2,2V15.5z"/>
	<path class="st0" d="M14.2,10.7c0,2.6-2.1,4.7-4.7,4.7c-2.6,0-4.7-2.1-4.7-4.7C4.9,8.1,7,6,9.6,6C12.1,6,14.2,8.1,14.2,10.7z"/>
	<path class="st0" d="M12.1,10.7c0,1.4-1.1,2.5-2.5,2.5s-2.5-1.1-2.5-2.5c0-1.4,1.1-2.5,2.5-2.5S12.1,9.3,12.1,10.7z"/>
	<line class="st0" x1="0.7" y1="4.2" x2="18.7" y2="4.2"/>
	<line class="st0" x1="2.4" y1="2.2" x2="4.9" y2="2.2"/>
	<line class="st0" x1="5.8" y1="2.2" x2="8.3" y2="2.2"/>
	<line class="st0" x1="9.2" y1="2.2" x2="11.7" y2="2.2"/>
</g>
</svg>
