<?xml version="1.0" encoding="utf-8"?>
<!-- Generator: Adobe Illustrator 22.0.1, SVG Export Plug-In . SVG Version: 6.00 Build 0)  -->
<svg version="1.1" id="Layer_1" xmlns="http://www.w3.org/2000/svg" xmlns:xlink="http://www.w3.org/1999/xlink" x="0px" y="0px"
	 viewBox="0 0 19.7 17.8" style="enable-background:new 0 0 19.7 17.8;" xml:space="preserve">
<style type="text/css">
	.st0{fill:none;stroke:#009EE1;stroke-width:0.7979;stroke-linejoin:round;stroke-miterlimit:10;}
</style>
<g>
	<path class="st0" d="M12.8,14.4c0,1.6-1.3,3-3,3c-1.6,0-3-1.3-3-3c0-1.6,1.3-3,3-3C11.5,11.4,12.8,12.8,12.8,14.4z"/>
	<path class="st0" d="M2.4,7.8c1.8-2,4.5-3.3,7.4-3.3c2.9,0,5.6,1.3,7.4,3.3"/>
	<path class="st0" d="M19.4,4.2c-2.5-2.3-5.9-3.8-9.6-3.8c-3.7,0-7.1,1.4-9.6,3.8"/>
	<path class="st0" d="M4.4,11c1.1-1.8,3.2-3,5.5-3c2.3,0,4.3,1.2,5.5,3"/>
	<path class="st0" d="M17.2,7.8c-1.8-2-4.5-3.3-7.4-3.3c-2.9,0-5.6,1.3-7.4,3.3"/>
</g>
</svg>
